M48
;DRILL file {KiCad 4.80~20160915-} date Sat Nov  5 18:07:56 2016
;FORMAT={-:-/ absolute / inch / decimal}
FMAT,2
INCH,TZ
T1C0.012
T2C0.016
T3C0.039
T4C0.040
T5C0.047
T6C0.093
%
G90
G05
M72
T1
X4.85Y-3.96
X4.85Y-4.08
X4.87Y-4.23
X4.9Y-3.46
X4.9Y-3.61
X5.03Y-3.4
X5.04Y-3.24
X5.1Y-3.46
X5.12Y-3.15
X5.19Y-3.46
X5.23Y-3.99
X5.24Y-3.75
X5.24Y-4.12
X5.25Y-4.26
X5.27Y-3.46
X5.27Y-4.47
X5.37Y-3.43
X5.37Y-3.55
X5.37Y-3.67
X5.38Y-3.31
X5.4Y-4.49
X5.41Y-4.25
X5.42Y-4.09
X5.43Y-3.98
X5.5Y-3.31
X5.52Y-4.25
X5.61Y-3.28
X5.64Y-3.07
X5.64Y-3.16
X5.64Y-4.49
X5.76Y-4.47
X5.79Y-4.27
X5.9Y-3.33
X5.9Y-3.393
X5.9Y-3.456
X5.9Y-3.519
X5.9Y-3.582
X5.91Y-4.27
X5.94Y-4.41
X5.963Y-3.33
X5.963Y-3.393
X5.963Y-3.456
X5.963Y-3.519
X5.963Y-3.582
X6.02Y-4.27
X6.026Y-3.33
X6.026Y-3.393
X6.026Y-3.456
X6.026Y-3.519
X6.026Y-3.582
X6.089Y-3.33
X6.089Y-3.393
X6.089Y-3.456
X6.089Y-3.519
X6.089Y-3.582
X6.09Y-4.41
X6.11Y-4.23
X6.152Y-3.33
X6.152Y-3.393
X6.152Y-3.456
X6.152Y-3.519
X6.152Y-3.582
X6.19Y-4.51
X6.215Y-3.33
X6.215Y-3.393
X6.215Y-3.456
X6.215Y-3.519
X6.215Y-3.582
X6.24Y-4.33
X6.278Y-3.33
X6.278Y-3.393
X6.278Y-3.456
X6.278Y-3.519
X6.278Y-3.582
X6.37Y-4.16
X6.39Y-4.66
X6.41Y-4.41
X6.41Y-4.53
X6.52Y-4.42
X6.54Y-4.27
X6.57Y-4.19
X6.59Y-4.41
X6.67Y-4.41
X6.69Y-4.29
T2
X4.88Y-3.8
X5.06Y-3.8
X5.13Y-3.26
X5.33Y-3.09
X5.36Y-3.26
X5.45Y-3.09
X5.49Y-4.76
X5.58Y-4.29
X5.58Y-4.46
X6.04Y-3.81
X6.18Y-3.81
X6.35Y-3.24
X6.35Y-3.29
X6.35Y-3.37
X6.42Y-3.18
X6.42Y-3.24
X6.42Y-3.32
X6.42Y-3.42
T4
X4.79Y-2.99
X4.89Y-2.99
X4.99Y-2.99
X5.09Y-2.99
X5.15Y-4.89
X5.19Y-2.99
X5.25Y-4.89
X5.29Y-2.99
X5.35Y-4.89
X5.39Y-2.99
X5.45Y-4.89
X5.49Y-2.99
X5.55Y-4.89
X5.59Y-2.99
X5.65Y-4.89
X5.69Y-2.99
X5.75Y-4.89
X5.85Y-2.99
X5.85Y-4.89
X5.95Y-2.99
X6.05Y-2.99
X6.05Y-4.89
X6.15Y-2.99
X6.15Y-4.89
X6.25Y-2.99
X6.25Y-4.89
X6.35Y-2.99
X6.35Y-4.89
X6.45Y-2.99
X6.45Y-4.89
X6.55Y-2.99
X6.55Y-3.79
X6.55Y-3.89
X6.55Y-3.99
X6.55Y-4.89
X6.65Y-3.79
X6.65Y-3.89
X6.65Y-3.99
T5
X6.93Y-4.34
T6
X6.78Y-4.19
X6.78Y-4.49
X7.08Y-4.19
X7.08Y-4.49
T3
X6.7867Y-3.2847G85X6.7867Y-3.3753
G05
X6.8674Y-3.1331G85X6.958Y-3.1331
G05
X7.0347Y-3.2847G85X7.0347Y-3.3753
G05
T0
M30
