G04 #@! TF.FileFunction,Copper,L2,Bot,Signal*
%FSLAX46Y46*%
G04 Gerber Fmt 4.6, Leading zero omitted, Abs format (unit mm)*
G04 Created by KiCad (PCBNEW 4.80~20160915-) date Sat Nov  5 18:07:46 2016*
%MOMM*%
%LPD*%
G01*
G04 APERTURE LIST*
%ADD10C,0.100000*%
%ADD11C,1.524000*%
%ADD12O,1.524000X2.540000*%
%ADD13C,0.600000*%
%ADD14R,3.000000X3.700000*%
%ADD15R,3.700000X3.000000*%
%ADD16C,2.190000*%
%ADD17C,3.360000*%
%ADD18C,0.250000*%
%ADD19C,0.254000*%
G04 APERTURE END LIST*
D10*
D11*
X168910000Y-101346000D03*
X166370000Y-101346000D03*
X168910000Y-98806000D03*
X166370000Y-98806000D03*
X168910000Y-96266000D03*
X166370000Y-96266000D03*
D12*
X130810000Y-124206000D03*
X133350000Y-124206000D03*
X121666000Y-75946000D03*
X124206000Y-75946000D03*
X140970000Y-124206000D03*
X126746000Y-75946000D03*
X129286000Y-75946000D03*
X131826000Y-75946000D03*
X134366000Y-75946000D03*
X136906000Y-75946000D03*
X139446000Y-75946000D03*
X141986000Y-75946000D03*
X144526000Y-75946000D03*
X148590000Y-75946000D03*
X151130000Y-75946000D03*
X153670000Y-75946000D03*
X156210000Y-75946000D03*
X158750000Y-75946000D03*
X161290000Y-75946000D03*
X163830000Y-75946000D03*
X166370000Y-75946000D03*
X135890000Y-124206000D03*
X138430000Y-124206000D03*
X143510000Y-124206000D03*
X146050000Y-124206000D03*
X148590000Y-124206000D03*
X158750000Y-124206000D03*
X156210000Y-124206000D03*
X153670000Y-124206000D03*
X161290000Y-124206000D03*
X163830000Y-124206000D03*
X166370000Y-124206000D03*
D13*
X123698000Y-107442000D03*
X123190000Y-103632000D03*
X123190000Y-100584000D03*
X124460000Y-91694000D03*
X124460000Y-87884000D03*
X161798000Y-105664000D03*
X157226000Y-114554000D03*
X162306000Y-118364000D03*
X162814000Y-115062000D03*
X155194000Y-107442000D03*
X150876000Y-112014000D03*
X154686000Y-112014000D03*
X152908000Y-108458000D03*
X150114000Y-108458000D03*
X147066000Y-108458000D03*
X143256000Y-114046000D03*
X146304000Y-113538000D03*
X137922000Y-101092000D03*
X137668000Y-103886000D03*
X140208000Y-107950000D03*
X137414000Y-107950000D03*
X137160000Y-114046000D03*
X133858000Y-113538000D03*
X133350000Y-108204000D03*
X133096000Y-104648000D03*
X132842000Y-101346000D03*
X133858000Y-87884000D03*
X131826000Y-87884000D03*
X129540000Y-87884000D03*
X127762000Y-86360000D03*
X128016000Y-82296000D03*
X130048000Y-80010000D03*
X143256000Y-77978000D03*
X143256000Y-80264000D03*
X142494000Y-83312000D03*
X139700000Y-84074000D03*
X136652000Y-84074000D03*
X136398000Y-87122000D03*
X136398000Y-90170000D03*
X136398000Y-93218000D03*
X133096000Y-95250000D03*
X169926000Y-108966000D03*
X166116000Y-108458000D03*
X162814000Y-112014000D03*
X165608000Y-112268000D03*
X167386000Y-112014000D03*
X169418000Y-112014000D03*
X158496000Y-109982000D03*
X166878000Y-106426000D03*
X159460000Y-90982000D03*
X157860000Y-90982000D03*
X156260000Y-90982000D03*
X154660000Y-90982000D03*
X153060000Y-90982000D03*
X151460000Y-90982000D03*
X149860000Y-90982000D03*
X159460000Y-89382000D03*
X157860000Y-89382000D03*
X156260000Y-89382000D03*
X154660000Y-89382000D03*
X153060000Y-89382000D03*
X151460000Y-89382000D03*
X149860000Y-89382000D03*
X159460000Y-87782000D03*
X157860000Y-87782000D03*
X156260000Y-87782000D03*
X154660000Y-87782000D03*
X153060000Y-87782000D03*
X151460000Y-87782000D03*
X149860000Y-87782000D03*
X159460000Y-86182000D03*
X157860000Y-86182000D03*
X156260000Y-86182000D03*
X154660000Y-86182000D03*
X153060000Y-86182000D03*
X151460000Y-86182000D03*
X149860000Y-86182000D03*
X159460000Y-84582000D03*
X157860000Y-84582000D03*
X156260000Y-84582000D03*
X154660000Y-84582000D03*
X153060000Y-84582000D03*
X151460000Y-84582000D03*
D14*
X172382000Y-84582000D03*
D15*
X175582000Y-79582000D03*
D14*
X178682000Y-84582000D03*
D16*
X176022000Y-110236000D03*
D17*
X172212000Y-106426000D03*
X179832000Y-106426000D03*
X179832000Y-114046000D03*
X172212000Y-114046000D03*
D13*
X149860000Y-84582000D03*
X163068000Y-80772000D03*
X163068000Y-82296000D03*
X163068000Y-84328000D03*
X163068000Y-86868000D03*
X128524000Y-96520000D03*
X123952000Y-96520000D03*
X141732000Y-108966000D03*
X141732000Y-113284000D03*
X139446000Y-120904000D03*
X161290000Y-82296000D03*
X161290000Y-83566000D03*
X161290000Y-85598000D03*
X156972000Y-96774000D03*
X153416000Y-96774000D03*
X136144000Y-82804000D03*
X130302000Y-82804000D03*
X138430000Y-78486000D03*
X135382000Y-78486000D03*
D18*
X166878000Y-106426000D02*
X162052000Y-106426000D01*
X162052000Y-106426000D02*
X158496000Y-109982000D01*
X172212000Y-106426000D02*
X166878000Y-106426000D01*
X163068000Y-82296000D02*
X163068000Y-80772000D01*
X163068000Y-86868000D02*
X163068000Y-84328000D01*
X123952000Y-96520000D02*
X128524000Y-96520000D01*
X141732000Y-113284000D02*
X141732000Y-108966000D01*
X148590000Y-122682000D02*
X148590000Y-124206000D01*
X147828000Y-121920000D02*
X148590000Y-122682000D01*
X143510000Y-121920000D02*
X147828000Y-121920000D01*
X142494000Y-120904000D02*
X143510000Y-121920000D01*
X139446000Y-120904000D02*
X142494000Y-120904000D01*
X161290000Y-77470000D02*
X161290000Y-75946000D01*
X160528000Y-78232000D02*
X161290000Y-77470000D01*
X160528000Y-81534000D02*
X160528000Y-78232000D01*
X161290000Y-82296000D02*
X160528000Y-81534000D01*
X161290000Y-85598000D02*
X161290000Y-83566000D01*
X153416000Y-96774000D02*
X156972000Y-96774000D01*
X130302000Y-82804000D02*
X136144000Y-82804000D01*
X135382000Y-78486000D02*
X138430000Y-78486000D01*
D19*
G36*
X121131391Y-74110019D02*
X120678172Y-74412851D01*
X120375340Y-74866070D01*
X120269000Y-75400679D01*
X120269000Y-76491321D01*
X120375340Y-77025930D01*
X120678172Y-77479149D01*
X121131391Y-77781981D01*
X121666000Y-77888321D01*
X122200609Y-77781981D01*
X122653828Y-77479149D01*
X122936000Y-77056850D01*
X123218172Y-77479149D01*
X123671391Y-77781981D01*
X124206000Y-77888321D01*
X124740609Y-77781981D01*
X125193828Y-77479149D01*
X125476000Y-77056850D01*
X125758172Y-77479149D01*
X126211391Y-77781981D01*
X126746000Y-77888321D01*
X127280609Y-77781981D01*
X127733828Y-77479149D01*
X128025330Y-77042887D01*
X128043941Y-77105941D01*
X128387974Y-77531630D01*
X128868723Y-77793260D01*
X128942930Y-77808220D01*
X129159000Y-77685720D01*
X129159000Y-76073000D01*
X129139000Y-76073000D01*
X129139000Y-75819000D01*
X129159000Y-75819000D01*
X129159000Y-75799000D01*
X129413000Y-75799000D01*
X129413000Y-75819000D01*
X129433000Y-75819000D01*
X129433000Y-76073000D01*
X129413000Y-76073000D01*
X129413000Y-77685720D01*
X129629070Y-77808220D01*
X129703277Y-77793260D01*
X130184026Y-77531630D01*
X130528059Y-77105941D01*
X130546670Y-77042887D01*
X130838172Y-77479149D01*
X131291391Y-77781981D01*
X131826000Y-77888321D01*
X132360609Y-77781981D01*
X132813828Y-77479149D01*
X133096000Y-77056850D01*
X133378172Y-77479149D01*
X133831391Y-77781981D01*
X134366000Y-77888321D01*
X134729760Y-77815965D01*
X134589808Y-77955673D01*
X134447162Y-78299201D01*
X134446838Y-78671167D01*
X134588883Y-79014943D01*
X134851673Y-79278192D01*
X135195201Y-79420838D01*
X135567167Y-79421162D01*
X135910943Y-79279117D01*
X135944118Y-79246000D01*
X137867537Y-79246000D01*
X137899673Y-79278192D01*
X138243201Y-79420838D01*
X138615167Y-79421162D01*
X138958943Y-79279117D01*
X139222192Y-79016327D01*
X139364838Y-78672799D01*
X139365162Y-78300833D01*
X139223117Y-77957057D01*
X139082279Y-77815973D01*
X139446000Y-77888321D01*
X139980609Y-77781981D01*
X140433828Y-77479149D01*
X140716000Y-77056850D01*
X140998172Y-77479149D01*
X141451391Y-77781981D01*
X141986000Y-77888321D01*
X142520609Y-77781981D01*
X142973828Y-77479149D01*
X143256000Y-77056850D01*
X143538172Y-77479149D01*
X143991391Y-77781981D01*
X144526000Y-77888321D01*
X145060609Y-77781981D01*
X145513828Y-77479149D01*
X145816660Y-77025930D01*
X145923000Y-76491321D01*
X145923000Y-75400679D01*
X145816660Y-74866070D01*
X145513828Y-74412851D01*
X145060609Y-74110019D01*
X144964994Y-74091000D01*
X148151006Y-74091000D01*
X148055391Y-74110019D01*
X147602172Y-74412851D01*
X147299340Y-74866070D01*
X147193000Y-75400679D01*
X147193000Y-76491321D01*
X147299340Y-77025930D01*
X147602172Y-77479149D01*
X148055391Y-77781981D01*
X148590000Y-77888321D01*
X149124609Y-77781981D01*
X149577828Y-77479149D01*
X149860000Y-77056850D01*
X150142172Y-77479149D01*
X150595391Y-77781981D01*
X151130000Y-77888321D01*
X151664609Y-77781981D01*
X152117828Y-77479149D01*
X152400000Y-77056850D01*
X152682172Y-77479149D01*
X153135391Y-77781981D01*
X153670000Y-77888321D01*
X154204609Y-77781981D01*
X154657828Y-77479149D01*
X154940000Y-77056850D01*
X155222172Y-77479149D01*
X155675391Y-77781981D01*
X156210000Y-77888321D01*
X156744609Y-77781981D01*
X157197828Y-77479149D01*
X157480000Y-77056850D01*
X157762172Y-77479149D01*
X158215391Y-77781981D01*
X158750000Y-77888321D01*
X159284609Y-77781981D01*
X159737828Y-77479149D01*
X160020000Y-77056850D01*
X160263670Y-77421528D01*
X159990599Y-77694599D01*
X159825852Y-77941161D01*
X159768000Y-78232000D01*
X159768000Y-81534000D01*
X159825852Y-81824839D01*
X159990599Y-82071401D01*
X160354878Y-82435680D01*
X160354838Y-82481167D01*
X160496883Y-82824943D01*
X160602710Y-82930954D01*
X160497808Y-83035673D01*
X160355162Y-83379201D01*
X160354838Y-83751167D01*
X160496883Y-84094943D01*
X160530000Y-84128118D01*
X160530000Y-85035537D01*
X160497808Y-85067673D01*
X160355162Y-85411201D01*
X160354838Y-85783167D01*
X160496883Y-86126943D01*
X160759673Y-86390192D01*
X161103201Y-86532838D01*
X161475167Y-86533162D01*
X161818943Y-86391117D01*
X162082192Y-86128327D01*
X162224838Y-85784799D01*
X162225162Y-85412833D01*
X162083117Y-85069057D01*
X162050000Y-85035882D01*
X162050000Y-84513167D01*
X162132838Y-84513167D01*
X162274883Y-84856943D01*
X162308000Y-84890118D01*
X162308000Y-86305537D01*
X162275808Y-86337673D01*
X162133162Y-86681201D01*
X162132838Y-87053167D01*
X162274883Y-87396943D01*
X162537673Y-87660192D01*
X162881201Y-87802838D01*
X163253167Y-87803162D01*
X163596943Y-87661117D01*
X163860192Y-87398327D01*
X164002838Y-87054799D01*
X164003162Y-86682833D01*
X163861117Y-86339057D01*
X163828000Y-86305882D01*
X163828000Y-84890463D01*
X163860192Y-84858327D01*
X164002838Y-84514799D01*
X164003162Y-84142833D01*
X163861117Y-83799057D01*
X163598327Y-83535808D01*
X163254799Y-83393162D01*
X162882833Y-83392838D01*
X162539057Y-83534883D01*
X162275808Y-83797673D01*
X162133162Y-84141201D01*
X162132838Y-84513167D01*
X162050000Y-84513167D01*
X162050000Y-84128463D01*
X162082192Y-84096327D01*
X162224838Y-83752799D01*
X162225162Y-83380833D01*
X162083117Y-83037057D01*
X161977290Y-82931046D01*
X162082192Y-82826327D01*
X162179062Y-82593039D01*
X162274883Y-82824943D01*
X162537673Y-83088192D01*
X162881201Y-83230838D01*
X163253167Y-83231162D01*
X163596943Y-83089117D01*
X163860192Y-82826327D01*
X163899360Y-82732000D01*
X170234560Y-82732000D01*
X170234560Y-86432000D01*
X170283843Y-86679765D01*
X170424191Y-86889809D01*
X170634235Y-87030157D01*
X170882000Y-87079440D01*
X173882000Y-87079440D01*
X174129765Y-87030157D01*
X174339809Y-86889809D01*
X174480157Y-86679765D01*
X174529440Y-86432000D01*
X174529440Y-84867750D01*
X176547000Y-84867750D01*
X176547000Y-86558310D01*
X176643673Y-86791699D01*
X176822302Y-86970327D01*
X177055691Y-87067000D01*
X178396250Y-87067000D01*
X178555000Y-86908250D01*
X178555000Y-84709000D01*
X178809000Y-84709000D01*
X178809000Y-86908250D01*
X178967750Y-87067000D01*
X180308309Y-87067000D01*
X180541698Y-86970327D01*
X180720327Y-86791699D01*
X180817000Y-86558310D01*
X180817000Y-84867750D01*
X180658250Y-84709000D01*
X178809000Y-84709000D01*
X178555000Y-84709000D01*
X176705750Y-84709000D01*
X176547000Y-84867750D01*
X174529440Y-84867750D01*
X174529440Y-82732000D01*
X174504316Y-82605690D01*
X176547000Y-82605690D01*
X176547000Y-84296250D01*
X176705750Y-84455000D01*
X178555000Y-84455000D01*
X178555000Y-82255750D01*
X178809000Y-82255750D01*
X178809000Y-84455000D01*
X180658250Y-84455000D01*
X180817000Y-84296250D01*
X180817000Y-82605690D01*
X180720327Y-82372301D01*
X180541698Y-82193673D01*
X180308309Y-82097000D01*
X178967750Y-82097000D01*
X178809000Y-82255750D01*
X178555000Y-82255750D01*
X178396250Y-82097000D01*
X177055691Y-82097000D01*
X176822302Y-82193673D01*
X176643673Y-82372301D01*
X176547000Y-82605690D01*
X174504316Y-82605690D01*
X174480157Y-82484235D01*
X174339809Y-82274191D01*
X174129765Y-82133843D01*
X173882000Y-82084560D01*
X170882000Y-82084560D01*
X170634235Y-82133843D01*
X170424191Y-82274191D01*
X170283843Y-82484235D01*
X170234560Y-82732000D01*
X163899360Y-82732000D01*
X164002838Y-82482799D01*
X164003162Y-82110833D01*
X163861117Y-81767057D01*
X163828000Y-81733882D01*
X163828000Y-81334463D01*
X163860192Y-81302327D01*
X164002838Y-80958799D01*
X164003162Y-80586833D01*
X163861117Y-80243057D01*
X163598327Y-79979808D01*
X163328463Y-79867750D01*
X173097000Y-79867750D01*
X173097000Y-81208309D01*
X173193673Y-81441698D01*
X173372301Y-81620327D01*
X173605690Y-81717000D01*
X175296250Y-81717000D01*
X175455000Y-81558250D01*
X175455000Y-79709000D01*
X175709000Y-79709000D01*
X175709000Y-81558250D01*
X175867750Y-81717000D01*
X177558310Y-81717000D01*
X177791699Y-81620327D01*
X177970327Y-81441698D01*
X178067000Y-81208309D01*
X178067000Y-79867750D01*
X177908250Y-79709000D01*
X175709000Y-79709000D01*
X175455000Y-79709000D01*
X173255750Y-79709000D01*
X173097000Y-79867750D01*
X163328463Y-79867750D01*
X163254799Y-79837162D01*
X162882833Y-79836838D01*
X162539057Y-79978883D01*
X162275808Y-80241673D01*
X162133162Y-80585201D01*
X162132838Y-80957167D01*
X162274883Y-81300943D01*
X162308000Y-81334118D01*
X162308000Y-81733537D01*
X162275808Y-81765673D01*
X162178938Y-81998961D01*
X162083117Y-81767057D01*
X161820327Y-81503808D01*
X161476799Y-81361162D01*
X161429923Y-81361121D01*
X161288000Y-81219198D01*
X161288000Y-78546802D01*
X161827401Y-78007401D01*
X161861952Y-77955691D01*
X173097000Y-77955691D01*
X173097000Y-79296250D01*
X173255750Y-79455000D01*
X175455000Y-79455000D01*
X175455000Y-77605750D01*
X175709000Y-77605750D01*
X175709000Y-79455000D01*
X177908250Y-79455000D01*
X178067000Y-79296250D01*
X178067000Y-77955691D01*
X177970327Y-77722302D01*
X177791699Y-77543673D01*
X177558310Y-77447000D01*
X175867750Y-77447000D01*
X175709000Y-77605750D01*
X175455000Y-77605750D01*
X175296250Y-77447000D01*
X173605690Y-77447000D01*
X173372301Y-77543673D01*
X173193673Y-77722302D01*
X173097000Y-77955691D01*
X161861952Y-77955691D01*
X161992148Y-77760839D01*
X162012979Y-77656116D01*
X162277828Y-77479149D01*
X162560000Y-77056850D01*
X162842172Y-77479149D01*
X163295391Y-77781981D01*
X163830000Y-77888321D01*
X164364609Y-77781981D01*
X164817828Y-77479149D01*
X165100000Y-77056850D01*
X165382172Y-77479149D01*
X165835391Y-77781981D01*
X166370000Y-77888321D01*
X166904609Y-77781981D01*
X167357828Y-77479149D01*
X167660660Y-77025930D01*
X167767000Y-76491321D01*
X167767000Y-75400679D01*
X167660660Y-74866070D01*
X167357828Y-74412851D01*
X166904609Y-74110019D01*
X166808994Y-74091000D01*
X183211000Y-74091000D01*
X183211000Y-126061000D01*
X166808994Y-126061000D01*
X166904609Y-126041981D01*
X167357828Y-125739149D01*
X167660660Y-125285930D01*
X167767000Y-124751321D01*
X167767000Y-123660679D01*
X167660660Y-123126070D01*
X167357828Y-122672851D01*
X166904609Y-122370019D01*
X166370000Y-122263679D01*
X165835391Y-122370019D01*
X165382172Y-122672851D01*
X165100000Y-123095150D01*
X164817828Y-122672851D01*
X164364609Y-122370019D01*
X163830000Y-122263679D01*
X163295391Y-122370019D01*
X162842172Y-122672851D01*
X162560000Y-123095150D01*
X162277828Y-122672851D01*
X161824609Y-122370019D01*
X161290000Y-122263679D01*
X160755391Y-122370019D01*
X160302172Y-122672851D01*
X160020000Y-123095150D01*
X159737828Y-122672851D01*
X159284609Y-122370019D01*
X158750000Y-122263679D01*
X158215391Y-122370019D01*
X157762172Y-122672851D01*
X157480000Y-123095150D01*
X157197828Y-122672851D01*
X156744609Y-122370019D01*
X156210000Y-122263679D01*
X155675391Y-122370019D01*
X155222172Y-122672851D01*
X154940000Y-123095150D01*
X154657828Y-122672851D01*
X154204609Y-122370019D01*
X153670000Y-122263679D01*
X153135391Y-122370019D01*
X152682172Y-122672851D01*
X152379340Y-123126070D01*
X152273000Y-123660679D01*
X152273000Y-124751321D01*
X152379340Y-125285930D01*
X152682172Y-125739149D01*
X153135391Y-126041981D01*
X153231006Y-126061000D01*
X149028994Y-126061000D01*
X149124609Y-126041981D01*
X149577828Y-125739149D01*
X149880660Y-125285930D01*
X149987000Y-124751321D01*
X149987000Y-123660679D01*
X149880660Y-123126070D01*
X149577828Y-122672851D01*
X149312979Y-122495884D01*
X149292148Y-122391161D01*
X149127401Y-122144599D01*
X148365401Y-121382599D01*
X148118839Y-121217852D01*
X147828000Y-121160000D01*
X143824802Y-121160000D01*
X143031401Y-120366599D01*
X142784839Y-120201852D01*
X142494000Y-120144000D01*
X140008463Y-120144000D01*
X139976327Y-120111808D01*
X139632799Y-119969162D01*
X139260833Y-119968838D01*
X138917057Y-120110883D01*
X138653808Y-120373673D01*
X138511162Y-120717201D01*
X138510838Y-121089167D01*
X138652883Y-121432943D01*
X138915673Y-121696192D01*
X139259201Y-121838838D01*
X139631167Y-121839162D01*
X139974943Y-121697117D01*
X140008118Y-121664000D01*
X142179198Y-121664000D01*
X142951042Y-122435844D01*
X142611974Y-122620370D01*
X142267941Y-123046059D01*
X142249330Y-123109113D01*
X141957828Y-122672851D01*
X141504609Y-122370019D01*
X140970000Y-122263679D01*
X140435391Y-122370019D01*
X139982172Y-122672851D01*
X139700000Y-123095150D01*
X139417828Y-122672851D01*
X138964609Y-122370019D01*
X138430000Y-122263679D01*
X137895391Y-122370019D01*
X137442172Y-122672851D01*
X137160000Y-123095150D01*
X136877828Y-122672851D01*
X136424609Y-122370019D01*
X135890000Y-122263679D01*
X135355391Y-122370019D01*
X134902172Y-122672851D01*
X134620000Y-123095150D01*
X134337828Y-122672851D01*
X133884609Y-122370019D01*
X133350000Y-122263679D01*
X132815391Y-122370019D01*
X132362172Y-122672851D01*
X132080000Y-123095150D01*
X131797828Y-122672851D01*
X131344609Y-122370019D01*
X130810000Y-122263679D01*
X130275391Y-122370019D01*
X129822172Y-122672851D01*
X129519340Y-123126070D01*
X129413000Y-123660679D01*
X129413000Y-124751321D01*
X129519340Y-125285930D01*
X129822172Y-125739149D01*
X130275391Y-126041981D01*
X130371006Y-126061000D01*
X115493000Y-126061000D01*
X115493000Y-119566143D01*
X166687115Y-119566143D01*
X167024758Y-120383300D01*
X167649411Y-121009045D01*
X168465978Y-121348113D01*
X169350143Y-121348885D01*
X170167300Y-121011242D01*
X170793045Y-120386589D01*
X171132113Y-119570022D01*
X171132885Y-118685857D01*
X170795242Y-117868700D01*
X170170589Y-117242955D01*
X169354022Y-116903887D01*
X168469857Y-116903115D01*
X167652700Y-117240758D01*
X167026955Y-117865411D01*
X166687887Y-118681978D01*
X166687115Y-119566143D01*
X115493000Y-119566143D01*
X115493000Y-115689979D01*
X170747626Y-115689979D01*
X170929373Y-116027449D01*
X171785275Y-116367460D01*
X172706142Y-116354050D01*
X173494627Y-116027449D01*
X173676374Y-115689979D01*
X178367626Y-115689979D01*
X178549373Y-116027449D01*
X179405275Y-116367460D01*
X180326142Y-116354050D01*
X181114627Y-116027449D01*
X181296374Y-115689979D01*
X179832000Y-114225605D01*
X178367626Y-115689979D01*
X173676374Y-115689979D01*
X172212000Y-114225605D01*
X170747626Y-115689979D01*
X115493000Y-115689979D01*
X115493000Y-109151167D01*
X140796838Y-109151167D01*
X140938883Y-109494943D01*
X140972000Y-109528118D01*
X140972000Y-112721537D01*
X140939808Y-112753673D01*
X140797162Y-113097201D01*
X140796838Y-113469167D01*
X140938883Y-113812943D01*
X141201673Y-114076192D01*
X141545201Y-114218838D01*
X141917167Y-114219162D01*
X142260943Y-114077117D01*
X142524192Y-113814327D01*
X142605185Y-113619275D01*
X169890540Y-113619275D01*
X169903950Y-114540142D01*
X170230551Y-115328627D01*
X170568021Y-115510374D01*
X172032395Y-114046000D01*
X172391605Y-114046000D01*
X173855979Y-115510374D01*
X174193449Y-115328627D01*
X174533460Y-114472725D01*
X174521032Y-113619275D01*
X177510540Y-113619275D01*
X177523950Y-114540142D01*
X177850551Y-115328627D01*
X178188021Y-115510374D01*
X179652395Y-114046000D01*
X180011605Y-114046000D01*
X181475979Y-115510374D01*
X181813449Y-115328627D01*
X182153460Y-114472725D01*
X182140050Y-113551858D01*
X181813449Y-112763373D01*
X181475979Y-112581626D01*
X180011605Y-114046000D01*
X179652395Y-114046000D01*
X178188021Y-112581626D01*
X177850551Y-112763373D01*
X177510540Y-113619275D01*
X174521032Y-113619275D01*
X174520050Y-113551858D01*
X174193449Y-112763373D01*
X173855979Y-112581626D01*
X172391605Y-114046000D01*
X172032395Y-114046000D01*
X170568021Y-112581626D01*
X170230551Y-112763373D01*
X169890540Y-113619275D01*
X142605185Y-113619275D01*
X142666838Y-113470799D01*
X142667162Y-113098833D01*
X142525117Y-112755057D01*
X142492000Y-112721882D01*
X142492000Y-112402021D01*
X170747626Y-112402021D01*
X172212000Y-113866395D01*
X173676374Y-112402021D01*
X178367626Y-112402021D01*
X179832000Y-113866395D01*
X181296374Y-112402021D01*
X181114627Y-112064551D01*
X180258725Y-111724540D01*
X179337858Y-111737950D01*
X178549373Y-112064551D01*
X178367626Y-112402021D01*
X173676374Y-112402021D01*
X173494627Y-112064551D01*
X172638725Y-111724540D01*
X171717858Y-111737950D01*
X170929373Y-112064551D01*
X170747626Y-112402021D01*
X142492000Y-112402021D01*
X142492000Y-109528463D01*
X142524192Y-109496327D01*
X142666838Y-109152799D01*
X142667162Y-108780833D01*
X142525117Y-108437057D01*
X142262327Y-108173808D01*
X141918799Y-108031162D01*
X141546833Y-108030838D01*
X141203057Y-108172883D01*
X140939808Y-108435673D01*
X140797162Y-108779201D01*
X140796838Y-109151167D01*
X115493000Y-109151167D01*
X115493000Y-107696000D01*
X167513000Y-107696000D01*
X167513000Y-111252000D01*
X167522667Y-111300601D01*
X167550197Y-111341803D01*
X167591399Y-111369333D01*
X167640000Y-111379000D01*
X169164000Y-111379000D01*
X169212601Y-111369333D01*
X169253803Y-111341803D01*
X169281333Y-111300601D01*
X169291000Y-111252000D01*
X169291000Y-110578609D01*
X174291700Y-110578609D01*
X174554522Y-111214686D01*
X175040754Y-111701768D01*
X175676372Y-111965699D01*
X176364609Y-111966300D01*
X177000686Y-111703478D01*
X177487768Y-111217246D01*
X177751699Y-110581628D01*
X177752300Y-109893391D01*
X177489478Y-109257314D01*
X177003246Y-108770232D01*
X176367628Y-108506301D01*
X175679391Y-108505700D01*
X175043314Y-108768522D01*
X174556232Y-109254754D01*
X174292301Y-109890372D01*
X174291700Y-110578609D01*
X169291000Y-110578609D01*
X169291000Y-108069979D01*
X170747626Y-108069979D01*
X170929373Y-108407449D01*
X171785275Y-108747460D01*
X172706142Y-108734050D01*
X173494627Y-108407449D01*
X173676374Y-108069979D01*
X178367626Y-108069979D01*
X178549373Y-108407449D01*
X179405275Y-108747460D01*
X180326142Y-108734050D01*
X181114627Y-108407449D01*
X181296374Y-108069979D01*
X179832000Y-106605605D01*
X178367626Y-108069979D01*
X173676374Y-108069979D01*
X172212000Y-106605605D01*
X170747626Y-108069979D01*
X169291000Y-108069979D01*
X169291000Y-107696000D01*
X169281333Y-107647399D01*
X169253803Y-107606197D01*
X169212601Y-107578667D01*
X169164000Y-107569000D01*
X167640000Y-107569000D01*
X167591399Y-107578667D01*
X167550197Y-107606197D01*
X167522667Y-107647399D01*
X167513000Y-107696000D01*
X115493000Y-107696000D01*
X115493000Y-105999275D01*
X169890540Y-105999275D01*
X169903950Y-106920142D01*
X170230551Y-107708627D01*
X170568021Y-107890374D01*
X172032395Y-106426000D01*
X172391605Y-106426000D01*
X173855979Y-107890374D01*
X174193449Y-107708627D01*
X174533460Y-106852725D01*
X174521032Y-105999275D01*
X177510540Y-105999275D01*
X177523950Y-106920142D01*
X177850551Y-107708627D01*
X178188021Y-107890374D01*
X179652395Y-106426000D01*
X180011605Y-106426000D01*
X181475979Y-107890374D01*
X181813449Y-107708627D01*
X182153460Y-106852725D01*
X182140050Y-105931858D01*
X181813449Y-105143373D01*
X181475979Y-104961626D01*
X180011605Y-106426000D01*
X179652395Y-106426000D01*
X178188021Y-104961626D01*
X177850551Y-105143373D01*
X177510540Y-105999275D01*
X174521032Y-105999275D01*
X174520050Y-105931858D01*
X174193449Y-105143373D01*
X173855979Y-104961626D01*
X172391605Y-106426000D01*
X172032395Y-106426000D01*
X170568021Y-104961626D01*
X170230551Y-105143373D01*
X169890540Y-105999275D01*
X115493000Y-105999275D01*
X115493000Y-104782021D01*
X170747626Y-104782021D01*
X172212000Y-106246395D01*
X173676374Y-104782021D01*
X178367626Y-104782021D01*
X179832000Y-106246395D01*
X181296374Y-104782021D01*
X181114627Y-104444551D01*
X180258725Y-104104540D01*
X179337858Y-104117950D01*
X178549373Y-104444551D01*
X178367626Y-104782021D01*
X173676374Y-104782021D01*
X173494627Y-104444551D01*
X172638725Y-104104540D01*
X171717858Y-104117950D01*
X170929373Y-104444551D01*
X170747626Y-104782021D01*
X115493000Y-104782021D01*
X115493000Y-96705167D01*
X123016838Y-96705167D01*
X123158883Y-97048943D01*
X123421673Y-97312192D01*
X123765201Y-97454838D01*
X124137167Y-97455162D01*
X124480943Y-97313117D01*
X124514118Y-97280000D01*
X127961537Y-97280000D01*
X127993673Y-97312192D01*
X128337201Y-97454838D01*
X128709167Y-97455162D01*
X129052943Y-97313117D01*
X129316192Y-97050327D01*
X129354045Y-96959167D01*
X152480838Y-96959167D01*
X152622883Y-97302943D01*
X152885673Y-97566192D01*
X153229201Y-97708838D01*
X153601167Y-97709162D01*
X153944943Y-97567117D01*
X153978118Y-97534000D01*
X156409537Y-97534000D01*
X156441673Y-97566192D01*
X156785201Y-97708838D01*
X157157167Y-97709162D01*
X157500943Y-97567117D01*
X157764192Y-97304327D01*
X157906838Y-96960799D01*
X157907162Y-96588833D01*
X157888085Y-96542661D01*
X164972758Y-96542661D01*
X165184990Y-97056303D01*
X165577630Y-97449629D01*
X165785512Y-97535949D01*
X165579697Y-97620990D01*
X165186371Y-98013630D01*
X164973243Y-98526900D01*
X164972758Y-99082661D01*
X165184990Y-99596303D01*
X165577630Y-99989629D01*
X165785512Y-100075949D01*
X165579697Y-100160990D01*
X165186371Y-100553630D01*
X164973243Y-101066900D01*
X164972758Y-101622661D01*
X165184990Y-102136303D01*
X165577630Y-102529629D01*
X166090900Y-102742757D01*
X166646661Y-102743242D01*
X167160303Y-102531010D01*
X167553629Y-102138370D01*
X167639949Y-101930488D01*
X167724990Y-102136303D01*
X168117630Y-102529629D01*
X168630900Y-102742757D01*
X169186661Y-102743242D01*
X169700303Y-102531010D01*
X170093629Y-102138370D01*
X170306757Y-101625100D01*
X170307242Y-101069339D01*
X170095010Y-100555697D01*
X169702370Y-100162371D01*
X169494488Y-100076051D01*
X169700303Y-99991010D01*
X170093629Y-99598370D01*
X170306757Y-99085100D01*
X170307242Y-98529339D01*
X170095010Y-98015697D01*
X169702370Y-97622371D01*
X169494488Y-97536051D01*
X169700303Y-97451010D01*
X170093629Y-97058370D01*
X170306757Y-96545100D01*
X170307242Y-95989339D01*
X170095010Y-95475697D01*
X169702370Y-95082371D01*
X169189100Y-94869243D01*
X168633339Y-94868758D01*
X168119697Y-95080990D01*
X167726371Y-95473630D01*
X167640051Y-95681512D01*
X167555010Y-95475697D01*
X167162370Y-95082371D01*
X166649100Y-94869243D01*
X166093339Y-94868758D01*
X165579697Y-95080990D01*
X165186371Y-95473630D01*
X164973243Y-95986900D01*
X164972758Y-96542661D01*
X157888085Y-96542661D01*
X157765117Y-96245057D01*
X157502327Y-95981808D01*
X157158799Y-95839162D01*
X156786833Y-95838838D01*
X156443057Y-95980883D01*
X156409882Y-96014000D01*
X153978463Y-96014000D01*
X153946327Y-95981808D01*
X153602799Y-95839162D01*
X153230833Y-95838838D01*
X152887057Y-95980883D01*
X152623808Y-96243673D01*
X152481162Y-96587201D01*
X152480838Y-96959167D01*
X129354045Y-96959167D01*
X129458838Y-96706799D01*
X129459162Y-96334833D01*
X129317117Y-95991057D01*
X129054327Y-95727808D01*
X128710799Y-95585162D01*
X128338833Y-95584838D01*
X127995057Y-95726883D01*
X127961882Y-95760000D01*
X124514463Y-95760000D01*
X124482327Y-95727808D01*
X124138799Y-95585162D01*
X123766833Y-95584838D01*
X123423057Y-95726883D01*
X123159808Y-95989673D01*
X123017162Y-96333201D01*
X123016838Y-96705167D01*
X115493000Y-96705167D01*
X115493000Y-91626143D01*
X166687115Y-91626143D01*
X167024758Y-92443300D01*
X167649411Y-93069045D01*
X168465978Y-93408113D01*
X169350143Y-93408885D01*
X170167300Y-93071242D01*
X170793045Y-92446589D01*
X171132113Y-91630022D01*
X171132885Y-90745857D01*
X170795242Y-89928700D01*
X170170589Y-89302955D01*
X169354022Y-88963887D01*
X168469857Y-88963115D01*
X167652700Y-89300758D01*
X167026955Y-89925411D01*
X166687887Y-90741978D01*
X166687115Y-91626143D01*
X115493000Y-91626143D01*
X115493000Y-82989167D01*
X129366838Y-82989167D01*
X129508883Y-83332943D01*
X129771673Y-83596192D01*
X130115201Y-83738838D01*
X130487167Y-83739162D01*
X130830943Y-83597117D01*
X130864118Y-83564000D01*
X135581537Y-83564000D01*
X135613673Y-83596192D01*
X135957201Y-83738838D01*
X136329167Y-83739162D01*
X136672943Y-83597117D01*
X136936192Y-83334327D01*
X137078838Y-82990799D01*
X137079162Y-82618833D01*
X136937117Y-82275057D01*
X136674327Y-82011808D01*
X136330799Y-81869162D01*
X135958833Y-81868838D01*
X135615057Y-82010883D01*
X135581882Y-82044000D01*
X130864463Y-82044000D01*
X130832327Y-82011808D01*
X130488799Y-81869162D01*
X130116833Y-81868838D01*
X129773057Y-82010883D01*
X129509808Y-82273673D01*
X129367162Y-82617201D01*
X129366838Y-82989167D01*
X115493000Y-82989167D01*
X115493000Y-74091000D01*
X121227006Y-74091000D01*
X121131391Y-74110019D01*
X121131391Y-74110019D01*
G37*
X121131391Y-74110019D02*
X120678172Y-74412851D01*
X120375340Y-74866070D01*
X120269000Y-75400679D01*
X120269000Y-76491321D01*
X120375340Y-77025930D01*
X120678172Y-77479149D01*
X121131391Y-77781981D01*
X121666000Y-77888321D01*
X122200609Y-77781981D01*
X122653828Y-77479149D01*
X122936000Y-77056850D01*
X123218172Y-77479149D01*
X123671391Y-77781981D01*
X124206000Y-77888321D01*
X124740609Y-77781981D01*
X125193828Y-77479149D01*
X125476000Y-77056850D01*
X125758172Y-77479149D01*
X126211391Y-77781981D01*
X126746000Y-77888321D01*
X127280609Y-77781981D01*
X127733828Y-77479149D01*
X128025330Y-77042887D01*
X128043941Y-77105941D01*
X128387974Y-77531630D01*
X128868723Y-77793260D01*
X128942930Y-77808220D01*
X129159000Y-77685720D01*
X129159000Y-76073000D01*
X129139000Y-76073000D01*
X129139000Y-75819000D01*
X129159000Y-75819000D01*
X129159000Y-75799000D01*
X129413000Y-75799000D01*
X129413000Y-75819000D01*
X129433000Y-75819000D01*
X129433000Y-76073000D01*
X129413000Y-76073000D01*
X129413000Y-77685720D01*
X129629070Y-77808220D01*
X129703277Y-77793260D01*
X130184026Y-77531630D01*
X130528059Y-77105941D01*
X130546670Y-77042887D01*
X130838172Y-77479149D01*
X131291391Y-77781981D01*
X131826000Y-77888321D01*
X132360609Y-77781981D01*
X132813828Y-77479149D01*
X133096000Y-77056850D01*
X133378172Y-77479149D01*
X133831391Y-77781981D01*
X134366000Y-77888321D01*
X134729760Y-77815965D01*
X134589808Y-77955673D01*
X134447162Y-78299201D01*
X134446838Y-78671167D01*
X134588883Y-79014943D01*
X134851673Y-79278192D01*
X135195201Y-79420838D01*
X135567167Y-79421162D01*
X135910943Y-79279117D01*
X135944118Y-79246000D01*
X137867537Y-79246000D01*
X137899673Y-79278192D01*
X138243201Y-79420838D01*
X138615167Y-79421162D01*
X138958943Y-79279117D01*
X139222192Y-79016327D01*
X139364838Y-78672799D01*
X139365162Y-78300833D01*
X139223117Y-77957057D01*
X139082279Y-77815973D01*
X139446000Y-77888321D01*
X139980609Y-77781981D01*
X140433828Y-77479149D01*
X140716000Y-77056850D01*
X140998172Y-77479149D01*
X141451391Y-77781981D01*
X141986000Y-77888321D01*
X142520609Y-77781981D01*
X142973828Y-77479149D01*
X143256000Y-77056850D01*
X143538172Y-77479149D01*
X143991391Y-77781981D01*
X144526000Y-77888321D01*
X145060609Y-77781981D01*
X145513828Y-77479149D01*
X145816660Y-77025930D01*
X145923000Y-76491321D01*
X145923000Y-75400679D01*
X145816660Y-74866070D01*
X145513828Y-74412851D01*
X145060609Y-74110019D01*
X144964994Y-74091000D01*
X148151006Y-74091000D01*
X148055391Y-74110019D01*
X147602172Y-74412851D01*
X147299340Y-74866070D01*
X147193000Y-75400679D01*
X147193000Y-76491321D01*
X147299340Y-77025930D01*
X147602172Y-77479149D01*
X148055391Y-77781981D01*
X148590000Y-77888321D01*
X149124609Y-77781981D01*
X149577828Y-77479149D01*
X149860000Y-77056850D01*
X150142172Y-77479149D01*
X150595391Y-77781981D01*
X151130000Y-77888321D01*
X151664609Y-77781981D01*
X152117828Y-77479149D01*
X152400000Y-77056850D01*
X152682172Y-77479149D01*
X153135391Y-77781981D01*
X153670000Y-77888321D01*
X154204609Y-77781981D01*
X154657828Y-77479149D01*
X154940000Y-77056850D01*
X155222172Y-77479149D01*
X155675391Y-77781981D01*
X156210000Y-77888321D01*
X156744609Y-77781981D01*
X157197828Y-77479149D01*
X157480000Y-77056850D01*
X157762172Y-77479149D01*
X158215391Y-77781981D01*
X158750000Y-77888321D01*
X159284609Y-77781981D01*
X159737828Y-77479149D01*
X160020000Y-77056850D01*
X160263670Y-77421528D01*
X159990599Y-77694599D01*
X159825852Y-77941161D01*
X159768000Y-78232000D01*
X159768000Y-81534000D01*
X159825852Y-81824839D01*
X159990599Y-82071401D01*
X160354878Y-82435680D01*
X160354838Y-82481167D01*
X160496883Y-82824943D01*
X160602710Y-82930954D01*
X160497808Y-83035673D01*
X160355162Y-83379201D01*
X160354838Y-83751167D01*
X160496883Y-84094943D01*
X160530000Y-84128118D01*
X160530000Y-85035537D01*
X160497808Y-85067673D01*
X160355162Y-85411201D01*
X160354838Y-85783167D01*
X160496883Y-86126943D01*
X160759673Y-86390192D01*
X161103201Y-86532838D01*
X161475167Y-86533162D01*
X161818943Y-86391117D01*
X162082192Y-86128327D01*
X162224838Y-85784799D01*
X162225162Y-85412833D01*
X162083117Y-85069057D01*
X162050000Y-85035882D01*
X162050000Y-84513167D01*
X162132838Y-84513167D01*
X162274883Y-84856943D01*
X162308000Y-84890118D01*
X162308000Y-86305537D01*
X162275808Y-86337673D01*
X162133162Y-86681201D01*
X162132838Y-87053167D01*
X162274883Y-87396943D01*
X162537673Y-87660192D01*
X162881201Y-87802838D01*
X163253167Y-87803162D01*
X163596943Y-87661117D01*
X163860192Y-87398327D01*
X164002838Y-87054799D01*
X164003162Y-86682833D01*
X163861117Y-86339057D01*
X163828000Y-86305882D01*
X163828000Y-84890463D01*
X163860192Y-84858327D01*
X164002838Y-84514799D01*
X164003162Y-84142833D01*
X163861117Y-83799057D01*
X163598327Y-83535808D01*
X163254799Y-83393162D01*
X162882833Y-83392838D01*
X162539057Y-83534883D01*
X162275808Y-83797673D01*
X162133162Y-84141201D01*
X162132838Y-84513167D01*
X162050000Y-84513167D01*
X162050000Y-84128463D01*
X162082192Y-84096327D01*
X162224838Y-83752799D01*
X162225162Y-83380833D01*
X162083117Y-83037057D01*
X161977290Y-82931046D01*
X162082192Y-82826327D01*
X162179062Y-82593039D01*
X162274883Y-82824943D01*
X162537673Y-83088192D01*
X162881201Y-83230838D01*
X163253167Y-83231162D01*
X163596943Y-83089117D01*
X163860192Y-82826327D01*
X163899360Y-82732000D01*
X170234560Y-82732000D01*
X170234560Y-86432000D01*
X170283843Y-86679765D01*
X170424191Y-86889809D01*
X170634235Y-87030157D01*
X170882000Y-87079440D01*
X173882000Y-87079440D01*
X174129765Y-87030157D01*
X174339809Y-86889809D01*
X174480157Y-86679765D01*
X174529440Y-86432000D01*
X174529440Y-84867750D01*
X176547000Y-84867750D01*
X176547000Y-86558310D01*
X176643673Y-86791699D01*
X176822302Y-86970327D01*
X177055691Y-87067000D01*
X178396250Y-87067000D01*
X178555000Y-86908250D01*
X178555000Y-84709000D01*
X178809000Y-84709000D01*
X178809000Y-86908250D01*
X178967750Y-87067000D01*
X180308309Y-87067000D01*
X180541698Y-86970327D01*
X180720327Y-86791699D01*
X180817000Y-86558310D01*
X180817000Y-84867750D01*
X180658250Y-84709000D01*
X178809000Y-84709000D01*
X178555000Y-84709000D01*
X176705750Y-84709000D01*
X176547000Y-84867750D01*
X174529440Y-84867750D01*
X174529440Y-82732000D01*
X174504316Y-82605690D01*
X176547000Y-82605690D01*
X176547000Y-84296250D01*
X176705750Y-84455000D01*
X178555000Y-84455000D01*
X178555000Y-82255750D01*
X178809000Y-82255750D01*
X178809000Y-84455000D01*
X180658250Y-84455000D01*
X180817000Y-84296250D01*
X180817000Y-82605690D01*
X180720327Y-82372301D01*
X180541698Y-82193673D01*
X180308309Y-82097000D01*
X178967750Y-82097000D01*
X178809000Y-82255750D01*
X178555000Y-82255750D01*
X178396250Y-82097000D01*
X177055691Y-82097000D01*
X176822302Y-82193673D01*
X176643673Y-82372301D01*
X176547000Y-82605690D01*
X174504316Y-82605690D01*
X174480157Y-82484235D01*
X174339809Y-82274191D01*
X174129765Y-82133843D01*
X173882000Y-82084560D01*
X170882000Y-82084560D01*
X170634235Y-82133843D01*
X170424191Y-82274191D01*
X170283843Y-82484235D01*
X170234560Y-82732000D01*
X163899360Y-82732000D01*
X164002838Y-82482799D01*
X164003162Y-82110833D01*
X163861117Y-81767057D01*
X163828000Y-81733882D01*
X163828000Y-81334463D01*
X163860192Y-81302327D01*
X164002838Y-80958799D01*
X164003162Y-80586833D01*
X163861117Y-80243057D01*
X163598327Y-79979808D01*
X163328463Y-79867750D01*
X173097000Y-79867750D01*
X173097000Y-81208309D01*
X173193673Y-81441698D01*
X173372301Y-81620327D01*
X173605690Y-81717000D01*
X175296250Y-81717000D01*
X175455000Y-81558250D01*
X175455000Y-79709000D01*
X175709000Y-79709000D01*
X175709000Y-81558250D01*
X175867750Y-81717000D01*
X177558310Y-81717000D01*
X177791699Y-81620327D01*
X177970327Y-81441698D01*
X178067000Y-81208309D01*
X178067000Y-79867750D01*
X177908250Y-79709000D01*
X175709000Y-79709000D01*
X175455000Y-79709000D01*
X173255750Y-79709000D01*
X173097000Y-79867750D01*
X163328463Y-79867750D01*
X163254799Y-79837162D01*
X162882833Y-79836838D01*
X162539057Y-79978883D01*
X162275808Y-80241673D01*
X162133162Y-80585201D01*
X162132838Y-80957167D01*
X162274883Y-81300943D01*
X162308000Y-81334118D01*
X162308000Y-81733537D01*
X162275808Y-81765673D01*
X162178938Y-81998961D01*
X162083117Y-81767057D01*
X161820327Y-81503808D01*
X161476799Y-81361162D01*
X161429923Y-81361121D01*
X161288000Y-81219198D01*
X161288000Y-78546802D01*
X161827401Y-78007401D01*
X161861952Y-77955691D01*
X173097000Y-77955691D01*
X173097000Y-79296250D01*
X173255750Y-79455000D01*
X175455000Y-79455000D01*
X175455000Y-77605750D01*
X175709000Y-77605750D01*
X175709000Y-79455000D01*
X177908250Y-79455000D01*
X178067000Y-79296250D01*
X178067000Y-77955691D01*
X177970327Y-77722302D01*
X177791699Y-77543673D01*
X177558310Y-77447000D01*
X175867750Y-77447000D01*
X175709000Y-77605750D01*
X175455000Y-77605750D01*
X175296250Y-77447000D01*
X173605690Y-77447000D01*
X173372301Y-77543673D01*
X173193673Y-77722302D01*
X173097000Y-77955691D01*
X161861952Y-77955691D01*
X161992148Y-77760839D01*
X162012979Y-77656116D01*
X162277828Y-77479149D01*
X162560000Y-77056850D01*
X162842172Y-77479149D01*
X163295391Y-77781981D01*
X163830000Y-77888321D01*
X164364609Y-77781981D01*
X164817828Y-77479149D01*
X165100000Y-77056850D01*
X165382172Y-77479149D01*
X165835391Y-77781981D01*
X166370000Y-77888321D01*
X166904609Y-77781981D01*
X167357828Y-77479149D01*
X167660660Y-77025930D01*
X167767000Y-76491321D01*
X167767000Y-75400679D01*
X167660660Y-74866070D01*
X167357828Y-74412851D01*
X166904609Y-74110019D01*
X166808994Y-74091000D01*
X183211000Y-74091000D01*
X183211000Y-126061000D01*
X166808994Y-126061000D01*
X166904609Y-126041981D01*
X167357828Y-125739149D01*
X167660660Y-125285930D01*
X167767000Y-124751321D01*
X167767000Y-123660679D01*
X167660660Y-123126070D01*
X167357828Y-122672851D01*
X166904609Y-122370019D01*
X166370000Y-122263679D01*
X165835391Y-122370019D01*
X165382172Y-122672851D01*
X165100000Y-123095150D01*
X164817828Y-122672851D01*
X164364609Y-122370019D01*
X163830000Y-122263679D01*
X163295391Y-122370019D01*
X162842172Y-122672851D01*
X162560000Y-123095150D01*
X162277828Y-122672851D01*
X161824609Y-122370019D01*
X161290000Y-122263679D01*
X160755391Y-122370019D01*
X160302172Y-122672851D01*
X160020000Y-123095150D01*
X159737828Y-122672851D01*
X159284609Y-122370019D01*
X158750000Y-122263679D01*
X158215391Y-122370019D01*
X157762172Y-122672851D01*
X157480000Y-123095150D01*
X157197828Y-122672851D01*
X156744609Y-122370019D01*
X156210000Y-122263679D01*
X155675391Y-122370019D01*
X155222172Y-122672851D01*
X154940000Y-123095150D01*
X154657828Y-122672851D01*
X154204609Y-122370019D01*
X153670000Y-122263679D01*
X153135391Y-122370019D01*
X152682172Y-122672851D01*
X152379340Y-123126070D01*
X152273000Y-123660679D01*
X152273000Y-124751321D01*
X152379340Y-125285930D01*
X152682172Y-125739149D01*
X153135391Y-126041981D01*
X153231006Y-126061000D01*
X149028994Y-126061000D01*
X149124609Y-126041981D01*
X149577828Y-125739149D01*
X149880660Y-125285930D01*
X149987000Y-124751321D01*
X149987000Y-123660679D01*
X149880660Y-123126070D01*
X149577828Y-122672851D01*
X149312979Y-122495884D01*
X149292148Y-122391161D01*
X149127401Y-122144599D01*
X148365401Y-121382599D01*
X148118839Y-121217852D01*
X147828000Y-121160000D01*
X143824802Y-121160000D01*
X143031401Y-120366599D01*
X142784839Y-120201852D01*
X142494000Y-120144000D01*
X140008463Y-120144000D01*
X139976327Y-120111808D01*
X139632799Y-119969162D01*
X139260833Y-119968838D01*
X138917057Y-120110883D01*
X138653808Y-120373673D01*
X138511162Y-120717201D01*
X138510838Y-121089167D01*
X138652883Y-121432943D01*
X138915673Y-121696192D01*
X139259201Y-121838838D01*
X139631167Y-121839162D01*
X139974943Y-121697117D01*
X140008118Y-121664000D01*
X142179198Y-121664000D01*
X142951042Y-122435844D01*
X142611974Y-122620370D01*
X142267941Y-123046059D01*
X142249330Y-123109113D01*
X141957828Y-122672851D01*
X141504609Y-122370019D01*
X140970000Y-122263679D01*
X140435391Y-122370019D01*
X139982172Y-122672851D01*
X139700000Y-123095150D01*
X139417828Y-122672851D01*
X138964609Y-122370019D01*
X138430000Y-122263679D01*
X137895391Y-122370019D01*
X137442172Y-122672851D01*
X137160000Y-123095150D01*
X136877828Y-122672851D01*
X136424609Y-122370019D01*
X135890000Y-122263679D01*
X135355391Y-122370019D01*
X134902172Y-122672851D01*
X134620000Y-123095150D01*
X134337828Y-122672851D01*
X133884609Y-122370019D01*
X133350000Y-122263679D01*
X132815391Y-122370019D01*
X132362172Y-122672851D01*
X132080000Y-123095150D01*
X131797828Y-122672851D01*
X131344609Y-122370019D01*
X130810000Y-122263679D01*
X130275391Y-122370019D01*
X129822172Y-122672851D01*
X129519340Y-123126070D01*
X129413000Y-123660679D01*
X129413000Y-124751321D01*
X129519340Y-125285930D01*
X129822172Y-125739149D01*
X130275391Y-126041981D01*
X130371006Y-126061000D01*
X115493000Y-126061000D01*
X115493000Y-119566143D01*
X166687115Y-119566143D01*
X167024758Y-120383300D01*
X167649411Y-121009045D01*
X168465978Y-121348113D01*
X169350143Y-121348885D01*
X170167300Y-121011242D01*
X170793045Y-120386589D01*
X171132113Y-119570022D01*
X171132885Y-118685857D01*
X170795242Y-117868700D01*
X170170589Y-117242955D01*
X169354022Y-116903887D01*
X168469857Y-116903115D01*
X167652700Y-117240758D01*
X167026955Y-117865411D01*
X166687887Y-118681978D01*
X166687115Y-119566143D01*
X115493000Y-119566143D01*
X115493000Y-115689979D01*
X170747626Y-115689979D01*
X170929373Y-116027449D01*
X171785275Y-116367460D01*
X172706142Y-116354050D01*
X173494627Y-116027449D01*
X173676374Y-115689979D01*
X178367626Y-115689979D01*
X178549373Y-116027449D01*
X179405275Y-116367460D01*
X180326142Y-116354050D01*
X181114627Y-116027449D01*
X181296374Y-115689979D01*
X179832000Y-114225605D01*
X178367626Y-115689979D01*
X173676374Y-115689979D01*
X172212000Y-114225605D01*
X170747626Y-115689979D01*
X115493000Y-115689979D01*
X115493000Y-109151167D01*
X140796838Y-109151167D01*
X140938883Y-109494943D01*
X140972000Y-109528118D01*
X140972000Y-112721537D01*
X140939808Y-112753673D01*
X140797162Y-113097201D01*
X140796838Y-113469167D01*
X140938883Y-113812943D01*
X141201673Y-114076192D01*
X141545201Y-114218838D01*
X141917167Y-114219162D01*
X142260943Y-114077117D01*
X142524192Y-113814327D01*
X142605185Y-113619275D01*
X169890540Y-113619275D01*
X169903950Y-114540142D01*
X170230551Y-115328627D01*
X170568021Y-115510374D01*
X172032395Y-114046000D01*
X172391605Y-114046000D01*
X173855979Y-115510374D01*
X174193449Y-115328627D01*
X174533460Y-114472725D01*
X174521032Y-113619275D01*
X177510540Y-113619275D01*
X177523950Y-114540142D01*
X177850551Y-115328627D01*
X178188021Y-115510374D01*
X179652395Y-114046000D01*
X180011605Y-114046000D01*
X181475979Y-115510374D01*
X181813449Y-115328627D01*
X182153460Y-114472725D01*
X182140050Y-113551858D01*
X181813449Y-112763373D01*
X181475979Y-112581626D01*
X180011605Y-114046000D01*
X179652395Y-114046000D01*
X178188021Y-112581626D01*
X177850551Y-112763373D01*
X177510540Y-113619275D01*
X174521032Y-113619275D01*
X174520050Y-113551858D01*
X174193449Y-112763373D01*
X173855979Y-112581626D01*
X172391605Y-114046000D01*
X172032395Y-114046000D01*
X170568021Y-112581626D01*
X170230551Y-112763373D01*
X169890540Y-113619275D01*
X142605185Y-113619275D01*
X142666838Y-113470799D01*
X142667162Y-113098833D01*
X142525117Y-112755057D01*
X142492000Y-112721882D01*
X142492000Y-112402021D01*
X170747626Y-112402021D01*
X172212000Y-113866395D01*
X173676374Y-112402021D01*
X178367626Y-112402021D01*
X179832000Y-113866395D01*
X181296374Y-112402021D01*
X181114627Y-112064551D01*
X180258725Y-111724540D01*
X179337858Y-111737950D01*
X178549373Y-112064551D01*
X178367626Y-112402021D01*
X173676374Y-112402021D01*
X173494627Y-112064551D01*
X172638725Y-111724540D01*
X171717858Y-111737950D01*
X170929373Y-112064551D01*
X170747626Y-112402021D01*
X142492000Y-112402021D01*
X142492000Y-109528463D01*
X142524192Y-109496327D01*
X142666838Y-109152799D01*
X142667162Y-108780833D01*
X142525117Y-108437057D01*
X142262327Y-108173808D01*
X141918799Y-108031162D01*
X141546833Y-108030838D01*
X141203057Y-108172883D01*
X140939808Y-108435673D01*
X140797162Y-108779201D01*
X140796838Y-109151167D01*
X115493000Y-109151167D01*
X115493000Y-107696000D01*
X167513000Y-107696000D01*
X167513000Y-111252000D01*
X167522667Y-111300601D01*
X167550197Y-111341803D01*
X167591399Y-111369333D01*
X167640000Y-111379000D01*
X169164000Y-111379000D01*
X169212601Y-111369333D01*
X169253803Y-111341803D01*
X169281333Y-111300601D01*
X169291000Y-111252000D01*
X169291000Y-110578609D01*
X174291700Y-110578609D01*
X174554522Y-111214686D01*
X175040754Y-111701768D01*
X175676372Y-111965699D01*
X176364609Y-111966300D01*
X177000686Y-111703478D01*
X177487768Y-111217246D01*
X177751699Y-110581628D01*
X177752300Y-109893391D01*
X177489478Y-109257314D01*
X177003246Y-108770232D01*
X176367628Y-108506301D01*
X175679391Y-108505700D01*
X175043314Y-108768522D01*
X174556232Y-109254754D01*
X174292301Y-109890372D01*
X174291700Y-110578609D01*
X169291000Y-110578609D01*
X169291000Y-108069979D01*
X170747626Y-108069979D01*
X170929373Y-108407449D01*
X171785275Y-108747460D01*
X172706142Y-108734050D01*
X173494627Y-108407449D01*
X173676374Y-108069979D01*
X178367626Y-108069979D01*
X178549373Y-108407449D01*
X179405275Y-108747460D01*
X180326142Y-108734050D01*
X181114627Y-108407449D01*
X181296374Y-108069979D01*
X179832000Y-106605605D01*
X178367626Y-108069979D01*
X173676374Y-108069979D01*
X172212000Y-106605605D01*
X170747626Y-108069979D01*
X169291000Y-108069979D01*
X169291000Y-107696000D01*
X169281333Y-107647399D01*
X169253803Y-107606197D01*
X169212601Y-107578667D01*
X169164000Y-107569000D01*
X167640000Y-107569000D01*
X167591399Y-107578667D01*
X167550197Y-107606197D01*
X167522667Y-107647399D01*
X167513000Y-107696000D01*
X115493000Y-107696000D01*
X115493000Y-105999275D01*
X169890540Y-105999275D01*
X169903950Y-106920142D01*
X170230551Y-107708627D01*
X170568021Y-107890374D01*
X172032395Y-106426000D01*
X172391605Y-106426000D01*
X173855979Y-107890374D01*
X174193449Y-107708627D01*
X174533460Y-106852725D01*
X174521032Y-105999275D01*
X177510540Y-105999275D01*
X177523950Y-106920142D01*
X177850551Y-107708627D01*
X178188021Y-107890374D01*
X179652395Y-106426000D01*
X180011605Y-106426000D01*
X181475979Y-107890374D01*
X181813449Y-107708627D01*
X182153460Y-106852725D01*
X182140050Y-105931858D01*
X181813449Y-105143373D01*
X181475979Y-104961626D01*
X180011605Y-106426000D01*
X179652395Y-106426000D01*
X178188021Y-104961626D01*
X177850551Y-105143373D01*
X177510540Y-105999275D01*
X174521032Y-105999275D01*
X174520050Y-105931858D01*
X174193449Y-105143373D01*
X173855979Y-104961626D01*
X172391605Y-106426000D01*
X172032395Y-106426000D01*
X170568021Y-104961626D01*
X170230551Y-105143373D01*
X169890540Y-105999275D01*
X115493000Y-105999275D01*
X115493000Y-104782021D01*
X170747626Y-104782021D01*
X172212000Y-106246395D01*
X173676374Y-104782021D01*
X178367626Y-104782021D01*
X179832000Y-106246395D01*
X181296374Y-104782021D01*
X181114627Y-104444551D01*
X180258725Y-104104540D01*
X179337858Y-104117950D01*
X178549373Y-104444551D01*
X178367626Y-104782021D01*
X173676374Y-104782021D01*
X173494627Y-104444551D01*
X172638725Y-104104540D01*
X171717858Y-104117950D01*
X170929373Y-104444551D01*
X170747626Y-104782021D01*
X115493000Y-104782021D01*
X115493000Y-96705167D01*
X123016838Y-96705167D01*
X123158883Y-97048943D01*
X123421673Y-97312192D01*
X123765201Y-97454838D01*
X124137167Y-97455162D01*
X124480943Y-97313117D01*
X124514118Y-97280000D01*
X127961537Y-97280000D01*
X127993673Y-97312192D01*
X128337201Y-97454838D01*
X128709167Y-97455162D01*
X129052943Y-97313117D01*
X129316192Y-97050327D01*
X129354045Y-96959167D01*
X152480838Y-96959167D01*
X152622883Y-97302943D01*
X152885673Y-97566192D01*
X153229201Y-97708838D01*
X153601167Y-97709162D01*
X153944943Y-97567117D01*
X153978118Y-97534000D01*
X156409537Y-97534000D01*
X156441673Y-97566192D01*
X156785201Y-97708838D01*
X157157167Y-97709162D01*
X157500943Y-97567117D01*
X157764192Y-97304327D01*
X157906838Y-96960799D01*
X157907162Y-96588833D01*
X157888085Y-96542661D01*
X164972758Y-96542661D01*
X165184990Y-97056303D01*
X165577630Y-97449629D01*
X165785512Y-97535949D01*
X165579697Y-97620990D01*
X165186371Y-98013630D01*
X164973243Y-98526900D01*
X164972758Y-99082661D01*
X165184990Y-99596303D01*
X165577630Y-99989629D01*
X165785512Y-100075949D01*
X165579697Y-100160990D01*
X165186371Y-100553630D01*
X164973243Y-101066900D01*
X164972758Y-101622661D01*
X165184990Y-102136303D01*
X165577630Y-102529629D01*
X166090900Y-102742757D01*
X166646661Y-102743242D01*
X167160303Y-102531010D01*
X167553629Y-102138370D01*
X167639949Y-101930488D01*
X167724990Y-102136303D01*
X168117630Y-102529629D01*
X168630900Y-102742757D01*
X169186661Y-102743242D01*
X169700303Y-102531010D01*
X170093629Y-102138370D01*
X170306757Y-101625100D01*
X170307242Y-101069339D01*
X170095010Y-100555697D01*
X169702370Y-100162371D01*
X169494488Y-100076051D01*
X169700303Y-99991010D01*
X170093629Y-99598370D01*
X170306757Y-99085100D01*
X170307242Y-98529339D01*
X170095010Y-98015697D01*
X169702370Y-97622371D01*
X169494488Y-97536051D01*
X169700303Y-97451010D01*
X170093629Y-97058370D01*
X170306757Y-96545100D01*
X170307242Y-95989339D01*
X170095010Y-95475697D01*
X169702370Y-95082371D01*
X169189100Y-94869243D01*
X168633339Y-94868758D01*
X168119697Y-95080990D01*
X167726371Y-95473630D01*
X167640051Y-95681512D01*
X167555010Y-95475697D01*
X167162370Y-95082371D01*
X166649100Y-94869243D01*
X166093339Y-94868758D01*
X165579697Y-95080990D01*
X165186371Y-95473630D01*
X164973243Y-95986900D01*
X164972758Y-96542661D01*
X157888085Y-96542661D01*
X157765117Y-96245057D01*
X157502327Y-95981808D01*
X157158799Y-95839162D01*
X156786833Y-95838838D01*
X156443057Y-95980883D01*
X156409882Y-96014000D01*
X153978463Y-96014000D01*
X153946327Y-95981808D01*
X153602799Y-95839162D01*
X153230833Y-95838838D01*
X152887057Y-95980883D01*
X152623808Y-96243673D01*
X152481162Y-96587201D01*
X152480838Y-96959167D01*
X129354045Y-96959167D01*
X129458838Y-96706799D01*
X129459162Y-96334833D01*
X129317117Y-95991057D01*
X129054327Y-95727808D01*
X128710799Y-95585162D01*
X128338833Y-95584838D01*
X127995057Y-95726883D01*
X127961882Y-95760000D01*
X124514463Y-95760000D01*
X124482327Y-95727808D01*
X124138799Y-95585162D01*
X123766833Y-95584838D01*
X123423057Y-95726883D01*
X123159808Y-95989673D01*
X123017162Y-96333201D01*
X123016838Y-96705167D01*
X115493000Y-96705167D01*
X115493000Y-91626143D01*
X166687115Y-91626143D01*
X167024758Y-92443300D01*
X167649411Y-93069045D01*
X168465978Y-93408113D01*
X169350143Y-93408885D01*
X170167300Y-93071242D01*
X170793045Y-92446589D01*
X171132113Y-91630022D01*
X171132885Y-90745857D01*
X170795242Y-89928700D01*
X170170589Y-89302955D01*
X169354022Y-88963887D01*
X168469857Y-88963115D01*
X167652700Y-89300758D01*
X167026955Y-89925411D01*
X166687887Y-90741978D01*
X166687115Y-91626143D01*
X115493000Y-91626143D01*
X115493000Y-82989167D01*
X129366838Y-82989167D01*
X129508883Y-83332943D01*
X129771673Y-83596192D01*
X130115201Y-83738838D01*
X130487167Y-83739162D01*
X130830943Y-83597117D01*
X130864118Y-83564000D01*
X135581537Y-83564000D01*
X135613673Y-83596192D01*
X135957201Y-83738838D01*
X136329167Y-83739162D01*
X136672943Y-83597117D01*
X136936192Y-83334327D01*
X137078838Y-82990799D01*
X137079162Y-82618833D01*
X136937117Y-82275057D01*
X136674327Y-82011808D01*
X136330799Y-81869162D01*
X135958833Y-81868838D01*
X135615057Y-82010883D01*
X135581882Y-82044000D01*
X130864463Y-82044000D01*
X130832327Y-82011808D01*
X130488799Y-81869162D01*
X130116833Y-81868838D01*
X129773057Y-82010883D01*
X129509808Y-82273673D01*
X129367162Y-82617201D01*
X129366838Y-82989167D01*
X115493000Y-82989167D01*
X115493000Y-74091000D01*
X121227006Y-74091000D01*
X121131391Y-74110019D01*
G36*
X143637000Y-124079000D02*
X145923000Y-124079000D01*
X145923000Y-124059000D01*
X146177000Y-124059000D01*
X146177000Y-124079000D01*
X146197000Y-124079000D01*
X146197000Y-124333000D01*
X146177000Y-124333000D01*
X146177000Y-124353000D01*
X145923000Y-124353000D01*
X145923000Y-124333000D01*
X143637000Y-124333000D01*
X143637000Y-124353000D01*
X143383000Y-124353000D01*
X143383000Y-124333000D01*
X143363000Y-124333000D01*
X143363000Y-124079000D01*
X143383000Y-124079000D01*
X143383000Y-124059000D01*
X143637000Y-124059000D01*
X143637000Y-124079000D01*
X143637000Y-124079000D01*
G37*
X143637000Y-124079000D02*
X145923000Y-124079000D01*
X145923000Y-124059000D01*
X146177000Y-124059000D01*
X146177000Y-124079000D01*
X146197000Y-124079000D01*
X146197000Y-124333000D01*
X146177000Y-124333000D01*
X146177000Y-124353000D01*
X145923000Y-124353000D01*
X145923000Y-124333000D01*
X143637000Y-124333000D01*
X143637000Y-124353000D01*
X143383000Y-124353000D01*
X143383000Y-124333000D01*
X143363000Y-124333000D01*
X143363000Y-124079000D01*
X143383000Y-124079000D01*
X143383000Y-124059000D01*
X143637000Y-124059000D01*
X143637000Y-124079000D01*
M02*
