G04 #@! TF.FileFunction,Soldermask,Top*
%FSLAX46Y46*%
G04 Gerber Fmt 4.6, Leading zero omitted, Abs format (unit mm)*
G04 Created by KiCad (PCBNEW 4.80~20160915-) date Sat Nov  5 18:07:46 2016*
%MOMM*%
%LPD*%
G01*
G04 APERTURE LIST*
%ADD10C,0.100000*%
%ADD11C,1.524000*%
%ADD12O,1.524000X2.540000*%
%ADD13C,3.175000*%
%ADD14R,1.250000X1.000000*%
%ADD15R,0.419100X2.200000*%
%ADD16R,1.800000X1.230000*%
%ADD17R,1.000000X1.250000*%
%ADD18R,1.230000X1.800000*%
%ADD19R,3.000000X3.700000*%
%ADD20R,3.700000X3.000000*%
%ADD21R,0.910000X1.220000*%
%ADD22R,0.899160X0.698500*%
%ADD23C,2.190000*%
%ADD24C,3.360000*%
%ADD25R,0.797560X1.198880*%
%ADD26R,11.000000X7.600000*%
%ADD27R,0.730000X1.950000*%
%ADD28R,1.100000X0.400000*%
%ADD29R,0.599440X2.199640*%
%ADD30R,0.800000X0.750000*%
%ADD31R,1.000000X1.600000*%
%ADD32R,1.300000X0.700000*%
%ADD33R,0.700000X1.300000*%
%ADD34R,1.550000X0.600000*%
%ADD35R,0.650000X1.060000*%
G04 APERTURE END LIST*
D10*
D11*
X168910000Y-101346000D03*
X166370000Y-101346000D03*
X168910000Y-98806000D03*
X166370000Y-98806000D03*
X168910000Y-96266000D03*
X166370000Y-96266000D03*
D12*
X130810000Y-124206000D03*
X133350000Y-124206000D03*
X121666000Y-75946000D03*
X124206000Y-75946000D03*
D13*
X168910000Y-91186000D03*
X168910000Y-119126000D03*
D12*
X140970000Y-124206000D03*
X126746000Y-75946000D03*
X129286000Y-75946000D03*
X131826000Y-75946000D03*
X134366000Y-75946000D03*
X136906000Y-75946000D03*
X139446000Y-75946000D03*
X141986000Y-75946000D03*
X144526000Y-75946000D03*
X148590000Y-75946000D03*
X151130000Y-75946000D03*
X153670000Y-75946000D03*
X156210000Y-75946000D03*
X158750000Y-75946000D03*
X161290000Y-75946000D03*
X163830000Y-75946000D03*
X166370000Y-75946000D03*
X135890000Y-124206000D03*
X138430000Y-124206000D03*
X143510000Y-124206000D03*
X146050000Y-124206000D03*
X148590000Y-124206000D03*
X158750000Y-124206000D03*
X156210000Y-124206000D03*
X153670000Y-124206000D03*
X161290000Y-124206000D03*
X163830000Y-124206000D03*
X166370000Y-124206000D03*
D14*
X163322000Y-105680000D03*
X163322000Y-107680000D03*
D15*
X133794500Y-90360500D03*
X133794500Y-85407500D03*
X133159500Y-90360500D03*
X133159500Y-85407500D03*
X132524500Y-90360500D03*
X132524500Y-85407500D03*
X131889500Y-90360500D03*
X131889500Y-85407500D03*
X131254500Y-90360500D03*
X131254500Y-85407500D03*
X130619500Y-90360500D03*
X130619500Y-85407500D03*
X129984500Y-90360500D03*
X129984500Y-85407500D03*
X129349500Y-90360500D03*
X129349500Y-85407500D03*
D14*
X164846000Y-85836000D03*
X164846000Y-83836000D03*
D16*
X153376000Y-99314000D03*
X155996000Y-99314000D03*
D17*
X163338000Y-103378000D03*
X165338000Y-103378000D03*
X166100000Y-110236000D03*
X164100000Y-110236000D03*
X160258000Y-103632000D03*
X158258000Y-103632000D03*
X160258000Y-106172000D03*
X158258000Y-106172000D03*
X160766000Y-116840000D03*
X158766000Y-116840000D03*
X160766000Y-113538000D03*
X158766000Y-113538000D03*
X127016000Y-93726000D03*
X129016000Y-93726000D03*
D18*
X127000000Y-91226000D03*
X127000000Y-88606000D03*
D19*
X172382000Y-84582000D03*
D20*
X175582000Y-79582000D03*
D19*
X178682000Y-84582000D03*
D21*
X168513000Y-81534000D03*
X165243000Y-81534000D03*
D22*
X168402000Y-110121700D03*
X168402000Y-108826300D03*
D23*
X176022000Y-110236000D03*
D24*
X172212000Y-106426000D03*
X179832000Y-106426000D03*
X179832000Y-114046000D03*
X172212000Y-114046000D03*
D25*
X153045160Y-110236000D03*
X151246840Y-110236000D03*
X137805160Y-112014000D03*
X136006840Y-112014000D03*
X137805160Y-109982000D03*
X136006840Y-109982000D03*
D26*
X154686000Y-87884000D03*
D27*
X152146000Y-81409000D03*
X152146000Y-94359000D03*
X153416000Y-81409000D03*
X153416000Y-94359000D03*
X154686000Y-81409000D03*
X154686000Y-94359000D03*
X155956000Y-81409000D03*
X155956000Y-94359000D03*
X157226000Y-81409000D03*
X157226000Y-94359000D03*
D28*
X156600000Y-110957000D03*
X156600000Y-110307000D03*
X156600000Y-109657000D03*
X156600000Y-109007000D03*
X160900000Y-109007000D03*
X160900000Y-109657000D03*
X160900000Y-110307000D03*
X160900000Y-110957000D03*
D29*
X129921000Y-101795580D03*
X128651000Y-101795580D03*
X126111000Y-101795580D03*
X129921000Y-106992420D03*
X128651000Y-106992420D03*
X126111000Y-106992420D03*
X127381000Y-101795580D03*
X127381000Y-106992420D03*
D14*
X144526000Y-117618000D03*
X144526000Y-119618000D03*
X155956000Y-119618000D03*
X155956000Y-117618000D03*
X148082000Y-112252000D03*
X148082000Y-110252000D03*
D17*
X145018000Y-107442000D03*
X143018000Y-107442000D03*
D14*
X140208000Y-111998000D03*
X140208000Y-109998000D03*
D30*
X136640000Y-105664000D03*
X135140000Y-105664000D03*
D31*
X125754000Y-98806000D03*
X128754000Y-98806000D03*
D32*
X135128000Y-103566000D03*
X135128000Y-101666000D03*
D33*
X132776000Y-98806000D03*
X130876000Y-98806000D03*
X134686000Y-98806000D03*
X136586000Y-98806000D03*
D34*
X147922000Y-120015000D03*
X147922000Y-118745000D03*
X147922000Y-117475000D03*
X147922000Y-116205000D03*
X153322000Y-116205000D03*
X153322000Y-117475000D03*
X153322000Y-118745000D03*
X153322000Y-120015000D03*
D35*
X143068000Y-109898000D03*
X144968000Y-109898000D03*
X144968000Y-112098000D03*
X144018000Y-112098000D03*
X143068000Y-112098000D03*
M02*
