G04 #@! TF.FileFunction,Copper,L1,Top,Signal*
%FSLAX46Y46*%
G04 Gerber Fmt 4.6, Leading zero omitted, Abs format (unit mm)*
G04 Created by KiCad (PCBNEW 4.80~20160915-) date Sat Nov  5 18:07:46 2016*
%MOMM*%
%LPD*%
G01*
G04 APERTURE LIST*
%ADD10C,0.100000*%
%ADD11C,1.524000*%
%ADD12O,1.524000X2.540000*%
%ADD13C,0.600000*%
%ADD14R,1.250000X1.000000*%
%ADD15R,0.419100X2.200000*%
%ADD16R,1.800000X1.230000*%
%ADD17R,1.000000X1.250000*%
%ADD18R,1.230000X1.800000*%
%ADD19R,3.000000X3.700000*%
%ADD20R,3.700000X3.000000*%
%ADD21R,0.910000X1.220000*%
%ADD22R,0.899160X0.698500*%
%ADD23C,2.190000*%
%ADD24C,3.360000*%
%ADD25R,0.797560X1.198880*%
%ADD26R,11.000000X7.600000*%
%ADD27R,0.730000X1.950000*%
%ADD28R,1.100000X0.400000*%
%ADD29R,0.599440X2.199640*%
%ADD30R,0.800000X0.750000*%
%ADD31R,1.000000X1.600000*%
%ADD32R,1.300000X0.700000*%
%ADD33R,0.700000X1.300000*%
%ADD34R,1.550000X0.600000*%
%ADD35R,0.650000X1.060000*%
%ADD36C,0.250000*%
%ADD37C,0.254000*%
G04 APERTURE END LIST*
D10*
D11*
X168910000Y-101346000D03*
X166370000Y-101346000D03*
X168910000Y-98806000D03*
X166370000Y-98806000D03*
X168910000Y-96266000D03*
X166370000Y-96266000D03*
D12*
X130810000Y-124206000D03*
X133350000Y-124206000D03*
X121666000Y-75946000D03*
X124206000Y-75946000D03*
X140970000Y-124206000D03*
X126746000Y-75946000D03*
X129286000Y-75946000D03*
X131826000Y-75946000D03*
X134366000Y-75946000D03*
X136906000Y-75946000D03*
X139446000Y-75946000D03*
X141986000Y-75946000D03*
X144526000Y-75946000D03*
X148590000Y-75946000D03*
X151130000Y-75946000D03*
X153670000Y-75946000D03*
X156210000Y-75946000D03*
X158750000Y-75946000D03*
X161290000Y-75946000D03*
X163830000Y-75946000D03*
X166370000Y-75946000D03*
X135890000Y-124206000D03*
X138430000Y-124206000D03*
X143510000Y-124206000D03*
X146050000Y-124206000D03*
X148590000Y-124206000D03*
X158750000Y-124206000D03*
X156210000Y-124206000D03*
X153670000Y-124206000D03*
X161290000Y-124206000D03*
X163830000Y-124206000D03*
X166370000Y-124206000D03*
D13*
X123698000Y-107442000D03*
X123190000Y-103632000D03*
X123190000Y-100584000D03*
X124460000Y-91694000D03*
X124460000Y-87884000D03*
X161798000Y-105664000D03*
X157226000Y-114554000D03*
X162306000Y-118364000D03*
X162814000Y-115062000D03*
X155194000Y-107442000D03*
X150876000Y-112014000D03*
X154686000Y-112014000D03*
X152908000Y-108458000D03*
X150114000Y-108458000D03*
X147066000Y-108458000D03*
X143256000Y-114046000D03*
X146304000Y-113538000D03*
X137922000Y-101092000D03*
X137668000Y-103886000D03*
X140208000Y-107950000D03*
X137414000Y-107950000D03*
X137160000Y-114046000D03*
X133858000Y-113538000D03*
X133350000Y-108204000D03*
X133096000Y-104648000D03*
X132842000Y-101346000D03*
X133858000Y-87884000D03*
X131826000Y-87884000D03*
X129540000Y-87884000D03*
X127762000Y-86360000D03*
X128016000Y-82296000D03*
X130048000Y-80010000D03*
X143256000Y-77978000D03*
X143256000Y-80264000D03*
X142494000Y-83312000D03*
X139700000Y-84074000D03*
X136652000Y-84074000D03*
X136398000Y-87122000D03*
X136398000Y-90170000D03*
X136398000Y-93218000D03*
X133096000Y-95250000D03*
X169926000Y-108966000D03*
X166116000Y-108458000D03*
X162814000Y-112014000D03*
X165608000Y-112268000D03*
X167386000Y-112014000D03*
X169418000Y-112014000D03*
D14*
X163322000Y-105680000D03*
X163322000Y-107680000D03*
D15*
X133794500Y-90360500D03*
X133794500Y-85407500D03*
X133159500Y-90360500D03*
X133159500Y-85407500D03*
X132524500Y-90360500D03*
X132524500Y-85407500D03*
X131889500Y-90360500D03*
X131889500Y-85407500D03*
X131254500Y-90360500D03*
X131254500Y-85407500D03*
X130619500Y-90360500D03*
X130619500Y-85407500D03*
X129984500Y-90360500D03*
X129984500Y-85407500D03*
X129349500Y-90360500D03*
X129349500Y-85407500D03*
D13*
X158496000Y-109982000D03*
X166878000Y-106426000D03*
X159460000Y-90982000D03*
X157860000Y-90982000D03*
X156260000Y-90982000D03*
X154660000Y-90982000D03*
X153060000Y-90982000D03*
X151460000Y-90982000D03*
X149860000Y-90982000D03*
X159460000Y-89382000D03*
X157860000Y-89382000D03*
X156260000Y-89382000D03*
X154660000Y-89382000D03*
X153060000Y-89382000D03*
X151460000Y-89382000D03*
X149860000Y-89382000D03*
X159460000Y-87782000D03*
X157860000Y-87782000D03*
X156260000Y-87782000D03*
X154660000Y-87782000D03*
X153060000Y-87782000D03*
X151460000Y-87782000D03*
X149860000Y-87782000D03*
X159460000Y-86182000D03*
X157860000Y-86182000D03*
X156260000Y-86182000D03*
X154660000Y-86182000D03*
X153060000Y-86182000D03*
X151460000Y-86182000D03*
X149860000Y-86182000D03*
X159460000Y-84582000D03*
X157860000Y-84582000D03*
X156260000Y-84582000D03*
X154660000Y-84582000D03*
X153060000Y-84582000D03*
X151460000Y-84582000D03*
D14*
X164846000Y-85836000D03*
X164846000Y-83836000D03*
D16*
X153376000Y-99314000D03*
X155996000Y-99314000D03*
D17*
X163338000Y-103378000D03*
X165338000Y-103378000D03*
X166100000Y-110236000D03*
X164100000Y-110236000D03*
X160258000Y-103632000D03*
X158258000Y-103632000D03*
X160258000Y-106172000D03*
X158258000Y-106172000D03*
X160766000Y-116840000D03*
X158766000Y-116840000D03*
X160766000Y-113538000D03*
X158766000Y-113538000D03*
X127016000Y-93726000D03*
X129016000Y-93726000D03*
D18*
X127000000Y-91226000D03*
X127000000Y-88606000D03*
D19*
X172382000Y-84582000D03*
D20*
X175582000Y-79582000D03*
D19*
X178682000Y-84582000D03*
D21*
X168513000Y-81534000D03*
X165243000Y-81534000D03*
D22*
X168402000Y-110121700D03*
X168402000Y-108826300D03*
D23*
X176022000Y-110236000D03*
D24*
X172212000Y-106426000D03*
X179832000Y-106426000D03*
X179832000Y-114046000D03*
X172212000Y-114046000D03*
D25*
X153045160Y-110236000D03*
X151246840Y-110236000D03*
X137805160Y-112014000D03*
X136006840Y-112014000D03*
X137805160Y-109982000D03*
X136006840Y-109982000D03*
D26*
X154686000Y-87884000D03*
D27*
X152146000Y-81409000D03*
X152146000Y-94359000D03*
X153416000Y-81409000D03*
X153416000Y-94359000D03*
X154686000Y-81409000D03*
X154686000Y-94359000D03*
X155956000Y-81409000D03*
X155956000Y-94359000D03*
X157226000Y-81409000D03*
X157226000Y-94359000D03*
D28*
X156600000Y-110957000D03*
X156600000Y-110307000D03*
X156600000Y-109657000D03*
X156600000Y-109007000D03*
X160900000Y-109007000D03*
X160900000Y-109657000D03*
X160900000Y-110307000D03*
X160900000Y-110957000D03*
D29*
X129921000Y-101795580D03*
X128651000Y-101795580D03*
X126111000Y-101795580D03*
X129921000Y-106992420D03*
X128651000Y-106992420D03*
X126111000Y-106992420D03*
X127381000Y-101795580D03*
X127381000Y-106992420D03*
D13*
X149860000Y-84582000D03*
D14*
X144526000Y-117618000D03*
X144526000Y-119618000D03*
X155956000Y-119618000D03*
X155956000Y-117618000D03*
X148082000Y-112252000D03*
X148082000Y-110252000D03*
D17*
X145018000Y-107442000D03*
X143018000Y-107442000D03*
D14*
X140208000Y-111998000D03*
X140208000Y-109998000D03*
D30*
X136640000Y-105664000D03*
X135140000Y-105664000D03*
D31*
X125754000Y-98806000D03*
X128754000Y-98806000D03*
D32*
X135128000Y-103566000D03*
X135128000Y-101666000D03*
D33*
X132776000Y-98806000D03*
X130876000Y-98806000D03*
X134686000Y-98806000D03*
X136586000Y-98806000D03*
D34*
X147922000Y-120015000D03*
X147922000Y-118745000D03*
X147922000Y-117475000D03*
X147922000Y-116205000D03*
X153322000Y-116205000D03*
X153322000Y-117475000D03*
X153322000Y-118745000D03*
X153322000Y-120015000D03*
D35*
X143068000Y-109898000D03*
X144968000Y-109898000D03*
X144968000Y-112098000D03*
X144018000Y-112098000D03*
X143068000Y-112098000D03*
D13*
X163068000Y-80772000D03*
X163068000Y-82296000D03*
X163068000Y-84328000D03*
X163068000Y-86868000D03*
X128524000Y-96520000D03*
X123952000Y-96520000D03*
X141732000Y-108966000D03*
X141732000Y-113284000D03*
X139446000Y-120904000D03*
X161290000Y-82296000D03*
X161290000Y-83566000D03*
X161290000Y-85598000D03*
X156972000Y-96774000D03*
X153416000Y-96774000D03*
X136144000Y-82804000D03*
X130302000Y-82804000D03*
X138430000Y-78486000D03*
X135382000Y-78486000D03*
D36*
X165243000Y-81534000D02*
X165243000Y-83439000D01*
X165243000Y-83439000D02*
X164846000Y-83836000D01*
X165243000Y-81534000D02*
X160782000Y-81534000D01*
X160782000Y-81534000D02*
X157351000Y-81534000D01*
X157351000Y-81534000D02*
X157226000Y-81409000D01*
X165227000Y-81550000D02*
X165243000Y-81534000D01*
X157367000Y-81550000D02*
X157226000Y-81409000D01*
X157226000Y-81409000D02*
X155956000Y-81409000D01*
X163338000Y-103378000D02*
X163338000Y-101108000D01*
X161544000Y-99314000D02*
X155996000Y-99314000D01*
X163338000Y-101108000D02*
X161544000Y-99314000D01*
X163338000Y-103378000D02*
X163338000Y-105664000D01*
X163338000Y-105664000D02*
X163322000Y-105680000D01*
X129921000Y-106992420D02*
X129921000Y-105537000D01*
X124206000Y-100354000D02*
X125754000Y-98806000D01*
X124206000Y-103632000D02*
X124206000Y-100354000D01*
X124714000Y-104140000D02*
X124206000Y-103632000D01*
X128524000Y-104140000D02*
X124714000Y-104140000D01*
X129921000Y-105537000D02*
X128524000Y-104140000D01*
X166878000Y-106204000D02*
X166878000Y-106426000D01*
X155996000Y-99314000D02*
X155996000Y-100878000D01*
X155996000Y-100878000D02*
X158258000Y-103140000D01*
X158258000Y-103140000D02*
X158258000Y-103632000D01*
X164846000Y-85836000D02*
X163560000Y-85836000D01*
X162306000Y-84582000D02*
X159460000Y-84582000D01*
X163560000Y-85836000D02*
X162306000Y-84582000D01*
X155956000Y-94359000D02*
X155956000Y-99274000D01*
X155956000Y-99274000D02*
X155996000Y-99314000D01*
X145018000Y-107442000D02*
X153416000Y-107442000D01*
X154981000Y-109007000D02*
X156600000Y-109007000D01*
X153416000Y-107442000D02*
X154981000Y-109007000D01*
X144018000Y-112098000D02*
X144018000Y-114046000D01*
X144526000Y-114554000D02*
X144526000Y-117618000D01*
X144018000Y-114046000D02*
X144526000Y-114554000D01*
X136640000Y-105664000D02*
X144018000Y-105664000D01*
X145018000Y-106664000D02*
X145018000Y-107442000D01*
X144018000Y-105664000D02*
X145018000Y-106664000D01*
X136586000Y-98806000D02*
X136586000Y-105610000D01*
X136586000Y-105610000D02*
X136640000Y-105664000D01*
X127000000Y-88606000D02*
X126278000Y-88606000D01*
X125730000Y-92440000D02*
X127016000Y-93726000D01*
X125730000Y-89154000D02*
X125730000Y-92440000D01*
X126278000Y-88606000D02*
X125730000Y-89154000D01*
X132524500Y-90360500D02*
X132524500Y-93154500D01*
X136586000Y-94930000D02*
X136586000Y-98806000D01*
X135890000Y-94234000D02*
X136586000Y-94930000D01*
X133604000Y-94234000D02*
X135890000Y-94234000D01*
X132524500Y-93154500D02*
X133604000Y-94234000D01*
X125754000Y-98806000D02*
X125754000Y-94988000D01*
X125754000Y-94988000D02*
X127016000Y-93726000D01*
X129794000Y-87630000D02*
X128778000Y-87630000D01*
X127802000Y-88606000D02*
X127000000Y-88606000D01*
X128778000Y-87630000D02*
X127802000Y-88606000D01*
X129349500Y-87630000D02*
X129794000Y-87630000D01*
X129794000Y-87630000D02*
X130810000Y-87630000D01*
X133350000Y-87630000D02*
X133794500Y-87630000D01*
X130810000Y-87630000D02*
X133350000Y-87630000D01*
X133794500Y-87630000D02*
X133858000Y-87630000D01*
X133858000Y-87630000D02*
X133794500Y-87630000D01*
X133794500Y-85407500D02*
X133794500Y-87630000D01*
X133794500Y-87630000D02*
X133794500Y-90360500D01*
X133159500Y-85407500D02*
X133159500Y-87820500D01*
X132524500Y-88455500D02*
X132524500Y-90360500D01*
X133159500Y-87820500D02*
X132524500Y-88455500D01*
X130619500Y-85407500D02*
X130619500Y-87693500D01*
X131254500Y-88328500D02*
X131254500Y-90360500D01*
X130619500Y-87693500D02*
X131254500Y-88328500D01*
X129349500Y-85407500D02*
X129349500Y-87630000D01*
X129349500Y-87630000D02*
X129349500Y-90360500D01*
X129286000Y-75946000D02*
X129286000Y-85344000D01*
X129286000Y-85344000D02*
X129349500Y-85407500D01*
X147922000Y-118745000D02*
X149479000Y-118745000D01*
X146050000Y-122428000D02*
X146050000Y-124206000D01*
X146304000Y-122174000D02*
X146050000Y-122428000D01*
X148844000Y-122174000D02*
X146304000Y-122174000D01*
X149860000Y-121158000D02*
X148844000Y-122174000D01*
X149860000Y-119126000D02*
X149860000Y-121158000D01*
X149479000Y-118745000D02*
X149860000Y-119126000D01*
X147922000Y-118745000D02*
X147922000Y-117475000D01*
X147922000Y-116205000D02*
X147922000Y-117475000D01*
X148082000Y-112252000D02*
X148082000Y-116045000D01*
X148082000Y-116045000D02*
X147922000Y-116205000D01*
X147922000Y-117475000D02*
X144669000Y-117475000D01*
X144669000Y-117475000D02*
X144526000Y-117618000D01*
X153322000Y-117475000D02*
X147922000Y-117475000D01*
X153322000Y-117475000D02*
X153322000Y-118745000D01*
X155956000Y-117618000D02*
X153465000Y-117618000D01*
X153465000Y-117618000D02*
X153322000Y-117475000D01*
X158766000Y-116840000D02*
X158496000Y-116840000D01*
X158496000Y-116840000D02*
X157718000Y-117618000D01*
X157718000Y-117618000D02*
X155956000Y-117618000D01*
X154686000Y-87884000D02*
X154660000Y-87782000D01*
X172074840Y-114183160D02*
X172212000Y-114046000D01*
X156600000Y-109007000D02*
X156600000Y-107814000D01*
X156600000Y-107814000D02*
X156718000Y-107696000D01*
X156718000Y-107696000D02*
X157734000Y-107696000D01*
X157734000Y-107696000D02*
X158258000Y-107172000D01*
X158258000Y-107172000D02*
X158258000Y-106172000D01*
X156529000Y-109728000D02*
X156600000Y-109657000D01*
X172212000Y-106426000D02*
X172212000Y-88138000D01*
X154686000Y-86868000D02*
X154686000Y-87884000D01*
X175582000Y-79582000D02*
X177974000Y-79582000D01*
X178562000Y-80170000D02*
X178562000Y-84462000D01*
X177974000Y-79582000D02*
X178562000Y-80170000D01*
X178562000Y-84462000D02*
X178682000Y-84582000D01*
X172212000Y-88138000D02*
X177292000Y-88138000D01*
X178682000Y-86748000D02*
X178682000Y-84582000D01*
X177292000Y-88138000D02*
X178682000Y-86748000D01*
X158766000Y-116840000D02*
X158766000Y-117332000D01*
X143550000Y-124166000D02*
X143510000Y-124206000D01*
X156600000Y-109657000D02*
X158425000Y-109657000D01*
X158425000Y-109657000D02*
X158766000Y-109998000D01*
X158766000Y-109998000D02*
X158766000Y-113538000D01*
X154686000Y-87884000D02*
X154686000Y-91186000D01*
X154686000Y-91186000D02*
X155956000Y-92456000D01*
X155956000Y-92456000D02*
X155956000Y-94359000D01*
X154686000Y-87884000D02*
X154686000Y-89662000D01*
X154686000Y-89662000D02*
X152146000Y-92202000D01*
X152146000Y-92202000D02*
X152146000Y-94359000D01*
X143510000Y-124206000D02*
X146050000Y-124206000D01*
X158766000Y-113538000D02*
X158766000Y-116840000D01*
X158258000Y-103632000D02*
X158258000Y-106172000D01*
X158258000Y-106172000D02*
X157988000Y-106172000D01*
X172212000Y-114046000D02*
X179832000Y-114046000D01*
X179832000Y-106426000D02*
X179832000Y-114046000D01*
X172212000Y-106426000D02*
X179832000Y-106426000D01*
X156600000Y-109007000D02*
X156600000Y-109657000D01*
X156464000Y-87122000D02*
X153924000Y-89662000D01*
X152654000Y-88392000D02*
X153924000Y-89662000D01*
X154686000Y-94359000D02*
X154686000Y-96774000D01*
X153376000Y-98084000D02*
X153376000Y-99314000D01*
X154686000Y-96774000D02*
X153376000Y-98084000D01*
X165338000Y-103378000D02*
X165338000Y-102346000D01*
X154686000Y-79756000D02*
X154686000Y-81409000D01*
X155194000Y-79248000D02*
X154686000Y-79756000D01*
X163068000Y-79248000D02*
X155194000Y-79248000D01*
X163068000Y-80772000D02*
X163068000Y-79248000D01*
X163068000Y-84328000D02*
X163068000Y-82296000D01*
X164338000Y-88138000D02*
X163068000Y-86868000D01*
X164338000Y-101346000D02*
X164338000Y-88138000D01*
X165338000Y-102346000D02*
X164338000Y-101346000D01*
X165338000Y-103378000D02*
X167132000Y-103378000D01*
X168402000Y-104648000D02*
X168402000Y-108826300D01*
X167132000Y-103378000D02*
X168402000Y-104648000D01*
X160900000Y-110307000D02*
X164029000Y-110307000D01*
X164029000Y-110307000D02*
X164100000Y-110236000D01*
X168402000Y-110121700D02*
X166214300Y-110121700D01*
X166214300Y-110121700D02*
X166100000Y-110236000D01*
X176022000Y-110236000D02*
X168516300Y-110236000D01*
X168516300Y-110236000D02*
X168402000Y-110121700D01*
X160900000Y-109657000D02*
X162377000Y-109657000D01*
X163322000Y-108712000D02*
X163322000Y-107680000D01*
X162377000Y-109657000D02*
X163322000Y-108712000D01*
X140970000Y-124206000D02*
X140970000Y-122174000D01*
X129032000Y-96012000D02*
X129032000Y-93742000D01*
X128524000Y-96520000D02*
X129032000Y-96012000D01*
X122682000Y-96520000D02*
X123952000Y-96520000D01*
X120904000Y-98298000D02*
X122682000Y-96520000D01*
X120904000Y-121920000D02*
X120904000Y-98298000D01*
X121158000Y-122174000D02*
X120904000Y-121920000D01*
X140970000Y-122174000D02*
X121158000Y-122174000D01*
X129032000Y-93742000D02*
X129016000Y-93726000D01*
X141732000Y-119618000D02*
X141732000Y-113284000D01*
X142240000Y-107442000D02*
X143018000Y-107442000D01*
X141732000Y-107950000D02*
X142240000Y-107442000D01*
X141732000Y-108966000D02*
X141732000Y-107950000D01*
X143018000Y-107442000D02*
X143018000Y-109848000D01*
X143018000Y-109848000D02*
X143068000Y-109898000D01*
X129016000Y-93726000D02*
X129794000Y-93726000D01*
X129984500Y-93535500D02*
X129984500Y-90360500D01*
X129794000Y-93726000D02*
X129984500Y-93535500D01*
X127000000Y-91226000D02*
X127000000Y-91710000D01*
X127000000Y-91710000D02*
X129016000Y-93726000D01*
X144526000Y-119618000D02*
X141732000Y-119618000D01*
X141732000Y-119618000D02*
X141494000Y-119618000D01*
X140970000Y-120142000D02*
X140970000Y-124206000D01*
X141494000Y-119618000D02*
X140970000Y-120142000D01*
X147922000Y-120015000D02*
X144923000Y-120015000D01*
X144923000Y-120015000D02*
X144526000Y-119618000D01*
X140930000Y-124166000D02*
X140970000Y-124206000D01*
X140930000Y-124166000D02*
X140970000Y-124206000D01*
X142868000Y-109998000D02*
X142918000Y-110048000D01*
X168513000Y-81534000D02*
X171196000Y-81534000D01*
X172382000Y-82720000D02*
X172382000Y-84582000D01*
X171196000Y-81534000D02*
X172382000Y-82720000D01*
X127381000Y-106992420D02*
X127381000Y-120523000D01*
X127762000Y-120904000D02*
X139446000Y-120904000D01*
X127381000Y-120523000D02*
X127762000Y-120904000D01*
X153416000Y-94359000D02*
X153416000Y-96774000D01*
X161290000Y-83566000D02*
X161290000Y-82296000D01*
X161290000Y-96520000D02*
X161290000Y-85598000D01*
X161036000Y-96774000D02*
X161290000Y-96520000D01*
X156972000Y-96774000D02*
X161036000Y-96774000D01*
X153416000Y-95250000D02*
X153416000Y-94359000D01*
X158750000Y-75946000D02*
X158750000Y-77724000D01*
X153416000Y-78994000D02*
X153416000Y-81409000D01*
X153924000Y-78486000D02*
X153416000Y-78994000D01*
X157988000Y-78486000D02*
X153924000Y-78486000D01*
X158750000Y-77724000D02*
X157988000Y-78486000D01*
X156210000Y-75946000D02*
X156210000Y-76962000D01*
X156210000Y-76962000D02*
X155448000Y-77724000D01*
X152146000Y-78740000D02*
X152146000Y-81409000D01*
X153162000Y-77724000D02*
X152146000Y-78740000D01*
X155448000Y-77724000D02*
X153162000Y-77724000D01*
X156210000Y-75946000D02*
X156210000Y-76454000D01*
X129984500Y-85407500D02*
X129984500Y-83121500D01*
X141986000Y-81534000D02*
X141986000Y-75946000D01*
X140716000Y-82804000D02*
X141986000Y-81534000D01*
X136144000Y-82804000D02*
X140716000Y-82804000D01*
X129984500Y-83121500D02*
X130302000Y-82804000D01*
X132524500Y-85407500D02*
X132524500Y-79311500D01*
X139446000Y-77470000D02*
X139446000Y-75946000D01*
X138430000Y-78486000D02*
X139446000Y-77470000D01*
X133350000Y-78486000D02*
X135382000Y-78486000D01*
X132524500Y-79311500D02*
X133350000Y-78486000D01*
X133159500Y-90360500D02*
X133159500Y-92519500D01*
X136906000Y-78994000D02*
X136906000Y-75946000D01*
X135128000Y-80772000D02*
X136906000Y-78994000D01*
X135128000Y-92202000D02*
X135128000Y-80772000D01*
X134620000Y-92710000D02*
X135128000Y-92202000D01*
X133350000Y-92710000D02*
X134620000Y-92710000D01*
X133159500Y-92519500D02*
X133350000Y-92710000D01*
X131889500Y-85407500D02*
X131889500Y-78930500D01*
X134366000Y-77724000D02*
X134366000Y-75946000D01*
X133096000Y-77724000D02*
X134366000Y-77724000D01*
X131889500Y-78930500D02*
X133096000Y-77724000D01*
X131254500Y-85407500D02*
X131254500Y-78295500D01*
X131826000Y-77724000D02*
X131826000Y-75946000D01*
X131254500Y-78295500D02*
X131826000Y-77724000D01*
X155956000Y-119618000D02*
X155718000Y-119618000D01*
X155718000Y-119618000D02*
X155321000Y-120015000D01*
X155321000Y-120015000D02*
X153322000Y-120015000D01*
X160766000Y-116840000D02*
X160766000Y-118634000D01*
X159782000Y-119618000D02*
X155956000Y-119618000D01*
X160766000Y-118634000D02*
X159782000Y-119618000D01*
X160782000Y-116856000D02*
X160766000Y-116840000D01*
X160900000Y-109007000D02*
X159979000Y-109007000D01*
X159979000Y-110957000D02*
X160900000Y-110957000D01*
X159766000Y-110744000D02*
X159979000Y-110957000D01*
X159766000Y-109220000D02*
X159766000Y-110744000D01*
X159979000Y-109007000D02*
X159766000Y-109220000D01*
X160258000Y-103632000D02*
X160258000Y-106172000D01*
X160258000Y-106172000D02*
X160258000Y-106918000D01*
X160900000Y-107560000D02*
X160900000Y-109007000D01*
X160258000Y-106918000D02*
X160900000Y-107560000D01*
X160900000Y-110957000D02*
X160900000Y-113404000D01*
X160900000Y-113404000D02*
X160766000Y-113538000D01*
X160766000Y-113538000D02*
X160766000Y-116840000D01*
X148082000Y-110252000D02*
X146542000Y-110252000D01*
X145712000Y-112098000D02*
X144968000Y-112098000D01*
X146050000Y-111760000D02*
X145712000Y-112098000D01*
X146050000Y-110744000D02*
X146050000Y-111760000D01*
X146542000Y-110252000D02*
X146050000Y-110744000D01*
X151246840Y-110236000D02*
X148098000Y-110236000D01*
X148098000Y-110236000D02*
X148082000Y-110252000D01*
X140208000Y-111998000D02*
X142968000Y-111998000D01*
X142968000Y-111998000D02*
X143068000Y-112098000D01*
X140208000Y-111998000D02*
X137821160Y-111998000D01*
X137821160Y-111998000D02*
X137805160Y-112014000D01*
X140700000Y-112014000D02*
X140716000Y-111998000D01*
X142968000Y-111998000D02*
X143068000Y-112098000D01*
X140208000Y-109998000D02*
X140986000Y-109998000D01*
X144968000Y-110810000D02*
X144968000Y-109898000D01*
X144780000Y-110998000D02*
X144968000Y-110810000D01*
X141986000Y-110998000D02*
X144780000Y-110998000D01*
X140986000Y-109998000D02*
X141986000Y-110998000D01*
X140208000Y-109998000D02*
X137821160Y-109998000D01*
X137821160Y-109998000D02*
X137805160Y-109982000D01*
X136006840Y-109982000D02*
X136006840Y-108574840D01*
X135140000Y-107708000D02*
X135140000Y-105664000D01*
X136006840Y-108574840D02*
X135140000Y-107708000D01*
X136006840Y-109982000D02*
X136006840Y-112014000D01*
X135128000Y-103566000D02*
X135128000Y-105652000D01*
X135128000Y-105652000D02*
X135140000Y-105664000D01*
X130619500Y-90360500D02*
X130619500Y-98549500D01*
X130619500Y-98549500D02*
X130876000Y-98806000D01*
X128754000Y-98806000D02*
X130876000Y-98806000D01*
X128651000Y-101795580D02*
X128651000Y-98909000D01*
X128651000Y-98909000D02*
X128754000Y-98806000D01*
X156600000Y-110307000D02*
X153116160Y-110307000D01*
X153116160Y-110307000D02*
X153045160Y-110236000D01*
X156600000Y-110307000D02*
X156600000Y-110957000D01*
X134686000Y-98806000D02*
X134686000Y-100396000D01*
X135128000Y-100838000D02*
X135128000Y-101666000D01*
X134686000Y-100396000D02*
X135128000Y-100838000D01*
X131889500Y-90360500D02*
X131889500Y-96837500D01*
X132588000Y-97536000D02*
X132588000Y-98618000D01*
X131889500Y-96837500D02*
X132588000Y-97536000D01*
X132588000Y-98618000D02*
X132776000Y-98806000D01*
X134686000Y-98806000D02*
X132776000Y-98806000D01*
X153670000Y-76454000D02*
X153670000Y-75946000D01*
X153670000Y-75946000D02*
X153670000Y-76200000D01*
D37*
G36*
X121131391Y-74110019D02*
X120678172Y-74412851D01*
X120375340Y-74866070D01*
X120269000Y-75400679D01*
X120269000Y-76491321D01*
X120375340Y-77025930D01*
X120678172Y-77479149D01*
X121131391Y-77781981D01*
X121666000Y-77888321D01*
X122200609Y-77781981D01*
X122653828Y-77479149D01*
X122936000Y-77056850D01*
X123218172Y-77479149D01*
X123671391Y-77781981D01*
X124206000Y-77888321D01*
X124740609Y-77781981D01*
X125193828Y-77479149D01*
X125476000Y-77056850D01*
X125758172Y-77479149D01*
X126211391Y-77781981D01*
X126746000Y-77888321D01*
X127280609Y-77781981D01*
X127733828Y-77479149D01*
X128025330Y-77042887D01*
X128043941Y-77105941D01*
X128387974Y-77531630D01*
X128868723Y-77793260D01*
X128942930Y-77808220D01*
X129159000Y-77685720D01*
X129159000Y-76073000D01*
X129139000Y-76073000D01*
X129139000Y-75819000D01*
X129159000Y-75819000D01*
X129159000Y-75799000D01*
X129413000Y-75799000D01*
X129413000Y-75819000D01*
X129433000Y-75819000D01*
X129433000Y-76073000D01*
X129413000Y-76073000D01*
X129413000Y-77685720D01*
X129629070Y-77808220D01*
X129703277Y-77793260D01*
X130184026Y-77531630D01*
X130528059Y-77105941D01*
X130546670Y-77042887D01*
X130838172Y-77479149D01*
X130932812Y-77542386D01*
X130717099Y-77758099D01*
X130552352Y-78004661D01*
X130494500Y-78295500D01*
X130494500Y-81871529D01*
X130488799Y-81869162D01*
X130116833Y-81868838D01*
X129773057Y-82010883D01*
X129509808Y-82273673D01*
X129367162Y-82617201D01*
X129367087Y-82703846D01*
X129282352Y-82830661D01*
X129224500Y-83121500D01*
X129224500Y-83672500D01*
X129222498Y-83672500D01*
X129222498Y-83809023D01*
X129085975Y-83672500D01*
X129013641Y-83672500D01*
X128780252Y-83769173D01*
X128601623Y-83947801D01*
X128504950Y-84181190D01*
X128504950Y-85121750D01*
X128663700Y-85280500D01*
X129127510Y-85280500D01*
X129127510Y-85534500D01*
X128663700Y-85534500D01*
X128504950Y-85693250D01*
X128504950Y-86633810D01*
X128601623Y-86867199D01*
X128780252Y-87045827D01*
X129013641Y-87142500D01*
X129085975Y-87142500D01*
X129244725Y-86983750D01*
X129244725Y-86856932D01*
X129317141Y-86965309D01*
X129527185Y-87105657D01*
X129588348Y-87117823D01*
X129613025Y-87142500D01*
X129685359Y-87142500D01*
X129694135Y-87138865D01*
X129774950Y-87154940D01*
X130194050Y-87154940D01*
X130274865Y-87138865D01*
X130283641Y-87142500D01*
X130355975Y-87142500D01*
X130380652Y-87117823D01*
X130441815Y-87105657D01*
X130619500Y-86986931D01*
X130797185Y-87105657D01*
X130858348Y-87117823D01*
X130883025Y-87142500D01*
X130955359Y-87142500D01*
X130964135Y-87138865D01*
X131044950Y-87154940D01*
X131464050Y-87154940D01*
X131572000Y-87133468D01*
X131679950Y-87154940D01*
X132099050Y-87154940D01*
X132207000Y-87133468D01*
X132314950Y-87154940D01*
X132734050Y-87154940D01*
X132814865Y-87138865D01*
X132823641Y-87142500D01*
X132895975Y-87142500D01*
X132920652Y-87117823D01*
X132981815Y-87105657D01*
X133163610Y-86984185D01*
X133225252Y-87045827D01*
X133397841Y-87117316D01*
X133423025Y-87142500D01*
X133530975Y-87142500D01*
X133556159Y-87117316D01*
X133728748Y-87045827D01*
X133899275Y-86875301D01*
X133899275Y-86983750D01*
X134058025Y-87142500D01*
X134130359Y-87142500D01*
X134363748Y-87045827D01*
X134368000Y-87041575D01*
X134368000Y-88726425D01*
X134363748Y-88722173D01*
X134130359Y-88625500D01*
X134058025Y-88625500D01*
X133899275Y-88784250D01*
X133899275Y-88911068D01*
X133826859Y-88802691D01*
X133616815Y-88662343D01*
X133555652Y-88650177D01*
X133530975Y-88625500D01*
X133458641Y-88625500D01*
X133449865Y-88629135D01*
X133369050Y-88613060D01*
X132949950Y-88613060D01*
X132869135Y-88629135D01*
X132860359Y-88625500D01*
X132788025Y-88625500D01*
X132763348Y-88650177D01*
X132702185Y-88662343D01*
X132524500Y-88781069D01*
X132346815Y-88662343D01*
X132285652Y-88650177D01*
X132260975Y-88625500D01*
X132188641Y-88625500D01*
X132179865Y-88629135D01*
X132099050Y-88613060D01*
X131679950Y-88613060D01*
X131599135Y-88629135D01*
X131590359Y-88625500D01*
X131518025Y-88625500D01*
X131493348Y-88650177D01*
X131432185Y-88662343D01*
X131254500Y-88781069D01*
X131076815Y-88662343D01*
X131015652Y-88650177D01*
X130990975Y-88625500D01*
X130918641Y-88625500D01*
X130909865Y-88629135D01*
X130829050Y-88613060D01*
X130409950Y-88613060D01*
X130302000Y-88634532D01*
X130194050Y-88613060D01*
X129774950Y-88613060D01*
X129694135Y-88629135D01*
X129685359Y-88625500D01*
X129613025Y-88625500D01*
X129588348Y-88650177D01*
X129527185Y-88662343D01*
X129317141Y-88802691D01*
X129244725Y-88911068D01*
X129244725Y-88784250D01*
X129085975Y-88625500D01*
X129013641Y-88625500D01*
X128780252Y-88722173D01*
X128601623Y-88900801D01*
X128504950Y-89134190D01*
X128504950Y-90074750D01*
X128663700Y-90233500D01*
X129127510Y-90233500D01*
X129127510Y-90487500D01*
X128663700Y-90487500D01*
X128504950Y-90646250D01*
X128504950Y-91586810D01*
X128601623Y-91820199D01*
X128780252Y-91998827D01*
X129013641Y-92095500D01*
X129085975Y-92095500D01*
X129222498Y-91958977D01*
X129222498Y-92095500D01*
X129224500Y-92095500D01*
X129224500Y-92453560D01*
X128818362Y-92453560D01*
X128262440Y-91897638D01*
X128262440Y-90326000D01*
X128213157Y-90078235D01*
X128104062Y-89914964D01*
X128153327Y-89865698D01*
X128250000Y-89632309D01*
X128250000Y-88891750D01*
X128091250Y-88733000D01*
X127127000Y-88733000D01*
X127127000Y-88753000D01*
X126873000Y-88753000D01*
X126873000Y-88733000D01*
X125908750Y-88733000D01*
X125750000Y-88891750D01*
X125750000Y-89632309D01*
X125846673Y-89865698D01*
X125895938Y-89914964D01*
X125786843Y-90078235D01*
X125737560Y-90326000D01*
X125737560Y-92126000D01*
X125786843Y-92373765D01*
X125927191Y-92583809D01*
X126051862Y-92667112D01*
X125977673Y-92741301D01*
X125881000Y-92974690D01*
X125881000Y-93440250D01*
X126039750Y-93599000D01*
X126889000Y-93599000D01*
X126889000Y-93579000D01*
X127143000Y-93579000D01*
X127143000Y-93599000D01*
X127163000Y-93599000D01*
X127163000Y-93853000D01*
X127143000Y-93853000D01*
X127143000Y-94827250D01*
X127301750Y-94986000D01*
X127642309Y-94986000D01*
X127875698Y-94889327D01*
X128017346Y-94747680D01*
X128058191Y-94808809D01*
X128268235Y-94949157D01*
X128272000Y-94949906D01*
X128272000Y-95612453D01*
X127995057Y-95726883D01*
X127731808Y-95989673D01*
X127589162Y-96333201D01*
X127588838Y-96705167D01*
X127730883Y-97048943D01*
X127993673Y-97312192D01*
X128153487Y-97378553D01*
X128006235Y-97407843D01*
X127796191Y-97548191D01*
X127655843Y-97758235D01*
X127606560Y-98006000D01*
X127606560Y-99606000D01*
X127655843Y-99853765D01*
X127796191Y-100063809D01*
X127812129Y-100074459D01*
X127680720Y-100048320D01*
X127081280Y-100048320D01*
X126833515Y-100097603D01*
X126746000Y-100156079D01*
X126659646Y-100098379D01*
X126792327Y-99965699D01*
X126889000Y-99732310D01*
X126889000Y-99091750D01*
X126730250Y-98933000D01*
X125881000Y-98933000D01*
X125881000Y-98953000D01*
X125627000Y-98953000D01*
X125627000Y-98933000D01*
X124777750Y-98933000D01*
X124619000Y-99091750D01*
X124619000Y-99732310D01*
X124715673Y-99965699D01*
X124894302Y-100144327D01*
X125127691Y-100241000D01*
X125351434Y-100241000D01*
X125213123Y-100447995D01*
X125163840Y-100695760D01*
X125163840Y-102895400D01*
X125213123Y-103143165D01*
X125353471Y-103353209D01*
X125563515Y-103493557D01*
X125811280Y-103542840D01*
X126410720Y-103542840D01*
X126658485Y-103493557D01*
X126746000Y-103435081D01*
X126833515Y-103493557D01*
X127081280Y-103542840D01*
X127680720Y-103542840D01*
X127928485Y-103493557D01*
X128016000Y-103435081D01*
X128103515Y-103493557D01*
X128351280Y-103542840D01*
X128950720Y-103542840D01*
X129198485Y-103493557D01*
X129286000Y-103435081D01*
X129373515Y-103493557D01*
X129621280Y-103542840D01*
X130220720Y-103542840D01*
X130468485Y-103493557D01*
X130678529Y-103353209D01*
X130818877Y-103143165D01*
X130868160Y-102895400D01*
X130868160Y-100695760D01*
X130818877Y-100447995D01*
X130678529Y-100237951D01*
X130468485Y-100097603D01*
X130220720Y-100048320D01*
X129722158Y-100048320D01*
X129852157Y-99853765D01*
X129901440Y-99606000D01*
X129901440Y-99571027D01*
X129927843Y-99703765D01*
X130068191Y-99913809D01*
X130278235Y-100054157D01*
X130526000Y-100103440D01*
X131226000Y-100103440D01*
X131473765Y-100054157D01*
X131683809Y-99913809D01*
X131824157Y-99703765D01*
X131826000Y-99694500D01*
X131827843Y-99703765D01*
X131968191Y-99913809D01*
X132178235Y-100054157D01*
X132426000Y-100103440D01*
X133126000Y-100103440D01*
X133373765Y-100054157D01*
X133583809Y-99913809D01*
X133724157Y-99703765D01*
X133731000Y-99669363D01*
X133737843Y-99703765D01*
X133878191Y-99913809D01*
X133926000Y-99945754D01*
X133926000Y-100396000D01*
X133983852Y-100686839D01*
X134074222Y-100822088D01*
X134020191Y-100858191D01*
X133879843Y-101068235D01*
X133830560Y-101316000D01*
X133830560Y-102016000D01*
X133879843Y-102263765D01*
X134020191Y-102473809D01*
X134230235Y-102614157D01*
X134239500Y-102616000D01*
X134230235Y-102617843D01*
X134020191Y-102758191D01*
X133879843Y-102968235D01*
X133830560Y-103216000D01*
X133830560Y-103916000D01*
X133879843Y-104163765D01*
X134020191Y-104373809D01*
X134230235Y-104514157D01*
X134368000Y-104541560D01*
X134368000Y-104773855D01*
X134282191Y-104831191D01*
X134141843Y-105041235D01*
X134092560Y-105289000D01*
X134092560Y-106039000D01*
X134141843Y-106286765D01*
X134282191Y-106496809D01*
X134380000Y-106562163D01*
X134380000Y-107708000D01*
X134437852Y-107998839D01*
X134602599Y-108245401D01*
X135229198Y-108872000D01*
X135150251Y-108924751D01*
X135009903Y-109134795D01*
X134960620Y-109382560D01*
X134960620Y-110581440D01*
X135009903Y-110829205D01*
X135122689Y-110998000D01*
X135009903Y-111166795D01*
X134960620Y-111414560D01*
X134960620Y-112613440D01*
X135009903Y-112861205D01*
X135150251Y-113071249D01*
X135360295Y-113211597D01*
X135608060Y-113260880D01*
X136405620Y-113260880D01*
X136653385Y-113211597D01*
X136863429Y-113071249D01*
X136906000Y-113007537D01*
X136948571Y-113071249D01*
X137158615Y-113211597D01*
X137406380Y-113260880D01*
X138203940Y-113260880D01*
X138451705Y-113211597D01*
X138661749Y-113071249D01*
X138802097Y-112861205D01*
X138822626Y-112758000D01*
X138993018Y-112758000D01*
X139125191Y-112955809D01*
X139335235Y-113096157D01*
X139583000Y-113145440D01*
X140797120Y-113145440D01*
X140796838Y-113469167D01*
X140938883Y-113812943D01*
X140972000Y-113846118D01*
X140972000Y-119070308D01*
X140956599Y-119080599D01*
X140432599Y-119604599D01*
X140267852Y-119851161D01*
X140210000Y-120142000D01*
X140210000Y-120345889D01*
X139976327Y-120111808D01*
X139632799Y-119969162D01*
X139260833Y-119968838D01*
X138917057Y-120110883D01*
X138883882Y-120144000D01*
X128141000Y-120144000D01*
X128141000Y-108697853D01*
X128351280Y-108739680D01*
X128950720Y-108739680D01*
X129198485Y-108690397D01*
X129277907Y-108637329D01*
X129494971Y-108727240D01*
X129635250Y-108727240D01*
X129794000Y-108568490D01*
X129794000Y-107119420D01*
X130048000Y-107119420D01*
X130048000Y-108568490D01*
X130206750Y-108727240D01*
X130347029Y-108727240D01*
X130580418Y-108630567D01*
X130759047Y-108451939D01*
X130855720Y-108218550D01*
X130855720Y-107278170D01*
X130696970Y-107119420D01*
X130048000Y-107119420D01*
X129794000Y-107119420D01*
X129774000Y-107119420D01*
X129774000Y-106865420D01*
X129794000Y-106865420D01*
X129794000Y-105416350D01*
X130048000Y-105416350D01*
X130048000Y-106865420D01*
X130696970Y-106865420D01*
X130855720Y-106706670D01*
X130855720Y-105766290D01*
X130759047Y-105532901D01*
X130580418Y-105354273D01*
X130347029Y-105257600D01*
X130206750Y-105257600D01*
X130048000Y-105416350D01*
X129794000Y-105416350D01*
X129635250Y-105257600D01*
X129494971Y-105257600D01*
X129277907Y-105347511D01*
X129198485Y-105294443D01*
X128950720Y-105245160D01*
X128351280Y-105245160D01*
X128103515Y-105294443D01*
X128016000Y-105352919D01*
X127928485Y-105294443D01*
X127680720Y-105245160D01*
X127081280Y-105245160D01*
X126833515Y-105294443D01*
X126746000Y-105352919D01*
X126658485Y-105294443D01*
X126410720Y-105245160D01*
X125811280Y-105245160D01*
X125563515Y-105294443D01*
X125353471Y-105434791D01*
X125213123Y-105644835D01*
X125163840Y-105892600D01*
X125163840Y-108092240D01*
X125213123Y-108340005D01*
X125353471Y-108550049D01*
X125563515Y-108690397D01*
X125811280Y-108739680D01*
X126410720Y-108739680D01*
X126621000Y-108697853D01*
X126621000Y-120523000D01*
X126678852Y-120813839D01*
X126843599Y-121060401D01*
X127197198Y-121414000D01*
X121664000Y-121414000D01*
X121664000Y-98612802D01*
X122397112Y-97879690D01*
X124619000Y-97879690D01*
X124619000Y-98520250D01*
X124777750Y-98679000D01*
X125627000Y-98679000D01*
X125627000Y-97529750D01*
X125881000Y-97529750D01*
X125881000Y-98679000D01*
X126730250Y-98679000D01*
X126889000Y-98520250D01*
X126889000Y-97879690D01*
X126792327Y-97646301D01*
X126613698Y-97467673D01*
X126380309Y-97371000D01*
X126039750Y-97371000D01*
X125881000Y-97529750D01*
X125627000Y-97529750D01*
X125468250Y-97371000D01*
X125127691Y-97371000D01*
X124894302Y-97467673D01*
X124715673Y-97646301D01*
X124619000Y-97879690D01*
X122397112Y-97879690D01*
X122996802Y-97280000D01*
X123389537Y-97280000D01*
X123421673Y-97312192D01*
X123765201Y-97454838D01*
X124137167Y-97455162D01*
X124480943Y-97313117D01*
X124744192Y-97050327D01*
X124886838Y-96706799D01*
X124887162Y-96334833D01*
X124745117Y-95991057D01*
X124482327Y-95727808D01*
X124138799Y-95585162D01*
X123766833Y-95584838D01*
X123423057Y-95726883D01*
X123389882Y-95760000D01*
X122682000Y-95760000D01*
X122391161Y-95817852D01*
X122144599Y-95982599D01*
X120366599Y-97760599D01*
X120201852Y-98007161D01*
X120144000Y-98298000D01*
X120144000Y-121920000D01*
X120201852Y-122210839D01*
X120366599Y-122457401D01*
X120620599Y-122711401D01*
X120867160Y-122876148D01*
X121158000Y-122934000D01*
X129647677Y-122934000D01*
X129519340Y-123126070D01*
X129413000Y-123660679D01*
X129413000Y-124751321D01*
X129519340Y-125285930D01*
X129822172Y-125739149D01*
X130275391Y-126041981D01*
X130371006Y-126061000D01*
X115493000Y-126061000D01*
X115493000Y-94011750D01*
X125881000Y-94011750D01*
X125881000Y-94477310D01*
X125977673Y-94710699D01*
X126156302Y-94889327D01*
X126389691Y-94986000D01*
X126730250Y-94986000D01*
X126889000Y-94827250D01*
X126889000Y-93853000D01*
X126039750Y-93853000D01*
X125881000Y-94011750D01*
X115493000Y-94011750D01*
X115493000Y-87579691D01*
X125750000Y-87579691D01*
X125750000Y-88320250D01*
X125908750Y-88479000D01*
X126873000Y-88479000D01*
X126873000Y-87229750D01*
X127127000Y-87229750D01*
X127127000Y-88479000D01*
X128091250Y-88479000D01*
X128250000Y-88320250D01*
X128250000Y-87579691D01*
X128153327Y-87346302D01*
X127974699Y-87167673D01*
X127741310Y-87071000D01*
X127285750Y-87071000D01*
X127127000Y-87229750D01*
X126873000Y-87229750D01*
X126714250Y-87071000D01*
X126258690Y-87071000D01*
X126025301Y-87167673D01*
X125846673Y-87346302D01*
X125750000Y-87579691D01*
X115493000Y-87579691D01*
X115493000Y-74091000D01*
X121227006Y-74091000D01*
X121131391Y-74110019D01*
X121131391Y-74110019D01*
G37*
X121131391Y-74110019D02*
X120678172Y-74412851D01*
X120375340Y-74866070D01*
X120269000Y-75400679D01*
X120269000Y-76491321D01*
X120375340Y-77025930D01*
X120678172Y-77479149D01*
X121131391Y-77781981D01*
X121666000Y-77888321D01*
X122200609Y-77781981D01*
X122653828Y-77479149D01*
X122936000Y-77056850D01*
X123218172Y-77479149D01*
X123671391Y-77781981D01*
X124206000Y-77888321D01*
X124740609Y-77781981D01*
X125193828Y-77479149D01*
X125476000Y-77056850D01*
X125758172Y-77479149D01*
X126211391Y-77781981D01*
X126746000Y-77888321D01*
X127280609Y-77781981D01*
X127733828Y-77479149D01*
X128025330Y-77042887D01*
X128043941Y-77105941D01*
X128387974Y-77531630D01*
X128868723Y-77793260D01*
X128942930Y-77808220D01*
X129159000Y-77685720D01*
X129159000Y-76073000D01*
X129139000Y-76073000D01*
X129139000Y-75819000D01*
X129159000Y-75819000D01*
X129159000Y-75799000D01*
X129413000Y-75799000D01*
X129413000Y-75819000D01*
X129433000Y-75819000D01*
X129433000Y-76073000D01*
X129413000Y-76073000D01*
X129413000Y-77685720D01*
X129629070Y-77808220D01*
X129703277Y-77793260D01*
X130184026Y-77531630D01*
X130528059Y-77105941D01*
X130546670Y-77042887D01*
X130838172Y-77479149D01*
X130932812Y-77542386D01*
X130717099Y-77758099D01*
X130552352Y-78004661D01*
X130494500Y-78295500D01*
X130494500Y-81871529D01*
X130488799Y-81869162D01*
X130116833Y-81868838D01*
X129773057Y-82010883D01*
X129509808Y-82273673D01*
X129367162Y-82617201D01*
X129367087Y-82703846D01*
X129282352Y-82830661D01*
X129224500Y-83121500D01*
X129224500Y-83672500D01*
X129222498Y-83672500D01*
X129222498Y-83809023D01*
X129085975Y-83672500D01*
X129013641Y-83672500D01*
X128780252Y-83769173D01*
X128601623Y-83947801D01*
X128504950Y-84181190D01*
X128504950Y-85121750D01*
X128663700Y-85280500D01*
X129127510Y-85280500D01*
X129127510Y-85534500D01*
X128663700Y-85534500D01*
X128504950Y-85693250D01*
X128504950Y-86633810D01*
X128601623Y-86867199D01*
X128780252Y-87045827D01*
X129013641Y-87142500D01*
X129085975Y-87142500D01*
X129244725Y-86983750D01*
X129244725Y-86856932D01*
X129317141Y-86965309D01*
X129527185Y-87105657D01*
X129588348Y-87117823D01*
X129613025Y-87142500D01*
X129685359Y-87142500D01*
X129694135Y-87138865D01*
X129774950Y-87154940D01*
X130194050Y-87154940D01*
X130274865Y-87138865D01*
X130283641Y-87142500D01*
X130355975Y-87142500D01*
X130380652Y-87117823D01*
X130441815Y-87105657D01*
X130619500Y-86986931D01*
X130797185Y-87105657D01*
X130858348Y-87117823D01*
X130883025Y-87142500D01*
X130955359Y-87142500D01*
X130964135Y-87138865D01*
X131044950Y-87154940D01*
X131464050Y-87154940D01*
X131572000Y-87133468D01*
X131679950Y-87154940D01*
X132099050Y-87154940D01*
X132207000Y-87133468D01*
X132314950Y-87154940D01*
X132734050Y-87154940D01*
X132814865Y-87138865D01*
X132823641Y-87142500D01*
X132895975Y-87142500D01*
X132920652Y-87117823D01*
X132981815Y-87105657D01*
X133163610Y-86984185D01*
X133225252Y-87045827D01*
X133397841Y-87117316D01*
X133423025Y-87142500D01*
X133530975Y-87142500D01*
X133556159Y-87117316D01*
X133728748Y-87045827D01*
X133899275Y-86875301D01*
X133899275Y-86983750D01*
X134058025Y-87142500D01*
X134130359Y-87142500D01*
X134363748Y-87045827D01*
X134368000Y-87041575D01*
X134368000Y-88726425D01*
X134363748Y-88722173D01*
X134130359Y-88625500D01*
X134058025Y-88625500D01*
X133899275Y-88784250D01*
X133899275Y-88911068D01*
X133826859Y-88802691D01*
X133616815Y-88662343D01*
X133555652Y-88650177D01*
X133530975Y-88625500D01*
X133458641Y-88625500D01*
X133449865Y-88629135D01*
X133369050Y-88613060D01*
X132949950Y-88613060D01*
X132869135Y-88629135D01*
X132860359Y-88625500D01*
X132788025Y-88625500D01*
X132763348Y-88650177D01*
X132702185Y-88662343D01*
X132524500Y-88781069D01*
X132346815Y-88662343D01*
X132285652Y-88650177D01*
X132260975Y-88625500D01*
X132188641Y-88625500D01*
X132179865Y-88629135D01*
X132099050Y-88613060D01*
X131679950Y-88613060D01*
X131599135Y-88629135D01*
X131590359Y-88625500D01*
X131518025Y-88625500D01*
X131493348Y-88650177D01*
X131432185Y-88662343D01*
X131254500Y-88781069D01*
X131076815Y-88662343D01*
X131015652Y-88650177D01*
X130990975Y-88625500D01*
X130918641Y-88625500D01*
X130909865Y-88629135D01*
X130829050Y-88613060D01*
X130409950Y-88613060D01*
X130302000Y-88634532D01*
X130194050Y-88613060D01*
X129774950Y-88613060D01*
X129694135Y-88629135D01*
X129685359Y-88625500D01*
X129613025Y-88625500D01*
X129588348Y-88650177D01*
X129527185Y-88662343D01*
X129317141Y-88802691D01*
X129244725Y-88911068D01*
X129244725Y-88784250D01*
X129085975Y-88625500D01*
X129013641Y-88625500D01*
X128780252Y-88722173D01*
X128601623Y-88900801D01*
X128504950Y-89134190D01*
X128504950Y-90074750D01*
X128663700Y-90233500D01*
X129127510Y-90233500D01*
X129127510Y-90487500D01*
X128663700Y-90487500D01*
X128504950Y-90646250D01*
X128504950Y-91586810D01*
X128601623Y-91820199D01*
X128780252Y-91998827D01*
X129013641Y-92095500D01*
X129085975Y-92095500D01*
X129222498Y-91958977D01*
X129222498Y-92095500D01*
X129224500Y-92095500D01*
X129224500Y-92453560D01*
X128818362Y-92453560D01*
X128262440Y-91897638D01*
X128262440Y-90326000D01*
X128213157Y-90078235D01*
X128104062Y-89914964D01*
X128153327Y-89865698D01*
X128250000Y-89632309D01*
X128250000Y-88891750D01*
X128091250Y-88733000D01*
X127127000Y-88733000D01*
X127127000Y-88753000D01*
X126873000Y-88753000D01*
X126873000Y-88733000D01*
X125908750Y-88733000D01*
X125750000Y-88891750D01*
X125750000Y-89632309D01*
X125846673Y-89865698D01*
X125895938Y-89914964D01*
X125786843Y-90078235D01*
X125737560Y-90326000D01*
X125737560Y-92126000D01*
X125786843Y-92373765D01*
X125927191Y-92583809D01*
X126051862Y-92667112D01*
X125977673Y-92741301D01*
X125881000Y-92974690D01*
X125881000Y-93440250D01*
X126039750Y-93599000D01*
X126889000Y-93599000D01*
X126889000Y-93579000D01*
X127143000Y-93579000D01*
X127143000Y-93599000D01*
X127163000Y-93599000D01*
X127163000Y-93853000D01*
X127143000Y-93853000D01*
X127143000Y-94827250D01*
X127301750Y-94986000D01*
X127642309Y-94986000D01*
X127875698Y-94889327D01*
X128017346Y-94747680D01*
X128058191Y-94808809D01*
X128268235Y-94949157D01*
X128272000Y-94949906D01*
X128272000Y-95612453D01*
X127995057Y-95726883D01*
X127731808Y-95989673D01*
X127589162Y-96333201D01*
X127588838Y-96705167D01*
X127730883Y-97048943D01*
X127993673Y-97312192D01*
X128153487Y-97378553D01*
X128006235Y-97407843D01*
X127796191Y-97548191D01*
X127655843Y-97758235D01*
X127606560Y-98006000D01*
X127606560Y-99606000D01*
X127655843Y-99853765D01*
X127796191Y-100063809D01*
X127812129Y-100074459D01*
X127680720Y-100048320D01*
X127081280Y-100048320D01*
X126833515Y-100097603D01*
X126746000Y-100156079D01*
X126659646Y-100098379D01*
X126792327Y-99965699D01*
X126889000Y-99732310D01*
X126889000Y-99091750D01*
X126730250Y-98933000D01*
X125881000Y-98933000D01*
X125881000Y-98953000D01*
X125627000Y-98953000D01*
X125627000Y-98933000D01*
X124777750Y-98933000D01*
X124619000Y-99091750D01*
X124619000Y-99732310D01*
X124715673Y-99965699D01*
X124894302Y-100144327D01*
X125127691Y-100241000D01*
X125351434Y-100241000D01*
X125213123Y-100447995D01*
X125163840Y-100695760D01*
X125163840Y-102895400D01*
X125213123Y-103143165D01*
X125353471Y-103353209D01*
X125563515Y-103493557D01*
X125811280Y-103542840D01*
X126410720Y-103542840D01*
X126658485Y-103493557D01*
X126746000Y-103435081D01*
X126833515Y-103493557D01*
X127081280Y-103542840D01*
X127680720Y-103542840D01*
X127928485Y-103493557D01*
X128016000Y-103435081D01*
X128103515Y-103493557D01*
X128351280Y-103542840D01*
X128950720Y-103542840D01*
X129198485Y-103493557D01*
X129286000Y-103435081D01*
X129373515Y-103493557D01*
X129621280Y-103542840D01*
X130220720Y-103542840D01*
X130468485Y-103493557D01*
X130678529Y-103353209D01*
X130818877Y-103143165D01*
X130868160Y-102895400D01*
X130868160Y-100695760D01*
X130818877Y-100447995D01*
X130678529Y-100237951D01*
X130468485Y-100097603D01*
X130220720Y-100048320D01*
X129722158Y-100048320D01*
X129852157Y-99853765D01*
X129901440Y-99606000D01*
X129901440Y-99571027D01*
X129927843Y-99703765D01*
X130068191Y-99913809D01*
X130278235Y-100054157D01*
X130526000Y-100103440D01*
X131226000Y-100103440D01*
X131473765Y-100054157D01*
X131683809Y-99913809D01*
X131824157Y-99703765D01*
X131826000Y-99694500D01*
X131827843Y-99703765D01*
X131968191Y-99913809D01*
X132178235Y-100054157D01*
X132426000Y-100103440D01*
X133126000Y-100103440D01*
X133373765Y-100054157D01*
X133583809Y-99913809D01*
X133724157Y-99703765D01*
X133731000Y-99669363D01*
X133737843Y-99703765D01*
X133878191Y-99913809D01*
X133926000Y-99945754D01*
X133926000Y-100396000D01*
X133983852Y-100686839D01*
X134074222Y-100822088D01*
X134020191Y-100858191D01*
X133879843Y-101068235D01*
X133830560Y-101316000D01*
X133830560Y-102016000D01*
X133879843Y-102263765D01*
X134020191Y-102473809D01*
X134230235Y-102614157D01*
X134239500Y-102616000D01*
X134230235Y-102617843D01*
X134020191Y-102758191D01*
X133879843Y-102968235D01*
X133830560Y-103216000D01*
X133830560Y-103916000D01*
X133879843Y-104163765D01*
X134020191Y-104373809D01*
X134230235Y-104514157D01*
X134368000Y-104541560D01*
X134368000Y-104773855D01*
X134282191Y-104831191D01*
X134141843Y-105041235D01*
X134092560Y-105289000D01*
X134092560Y-106039000D01*
X134141843Y-106286765D01*
X134282191Y-106496809D01*
X134380000Y-106562163D01*
X134380000Y-107708000D01*
X134437852Y-107998839D01*
X134602599Y-108245401D01*
X135229198Y-108872000D01*
X135150251Y-108924751D01*
X135009903Y-109134795D01*
X134960620Y-109382560D01*
X134960620Y-110581440D01*
X135009903Y-110829205D01*
X135122689Y-110998000D01*
X135009903Y-111166795D01*
X134960620Y-111414560D01*
X134960620Y-112613440D01*
X135009903Y-112861205D01*
X135150251Y-113071249D01*
X135360295Y-113211597D01*
X135608060Y-113260880D01*
X136405620Y-113260880D01*
X136653385Y-113211597D01*
X136863429Y-113071249D01*
X136906000Y-113007537D01*
X136948571Y-113071249D01*
X137158615Y-113211597D01*
X137406380Y-113260880D01*
X138203940Y-113260880D01*
X138451705Y-113211597D01*
X138661749Y-113071249D01*
X138802097Y-112861205D01*
X138822626Y-112758000D01*
X138993018Y-112758000D01*
X139125191Y-112955809D01*
X139335235Y-113096157D01*
X139583000Y-113145440D01*
X140797120Y-113145440D01*
X140796838Y-113469167D01*
X140938883Y-113812943D01*
X140972000Y-113846118D01*
X140972000Y-119070308D01*
X140956599Y-119080599D01*
X140432599Y-119604599D01*
X140267852Y-119851161D01*
X140210000Y-120142000D01*
X140210000Y-120345889D01*
X139976327Y-120111808D01*
X139632799Y-119969162D01*
X139260833Y-119968838D01*
X138917057Y-120110883D01*
X138883882Y-120144000D01*
X128141000Y-120144000D01*
X128141000Y-108697853D01*
X128351280Y-108739680D01*
X128950720Y-108739680D01*
X129198485Y-108690397D01*
X129277907Y-108637329D01*
X129494971Y-108727240D01*
X129635250Y-108727240D01*
X129794000Y-108568490D01*
X129794000Y-107119420D01*
X130048000Y-107119420D01*
X130048000Y-108568490D01*
X130206750Y-108727240D01*
X130347029Y-108727240D01*
X130580418Y-108630567D01*
X130759047Y-108451939D01*
X130855720Y-108218550D01*
X130855720Y-107278170D01*
X130696970Y-107119420D01*
X130048000Y-107119420D01*
X129794000Y-107119420D01*
X129774000Y-107119420D01*
X129774000Y-106865420D01*
X129794000Y-106865420D01*
X129794000Y-105416350D01*
X130048000Y-105416350D01*
X130048000Y-106865420D01*
X130696970Y-106865420D01*
X130855720Y-106706670D01*
X130855720Y-105766290D01*
X130759047Y-105532901D01*
X130580418Y-105354273D01*
X130347029Y-105257600D01*
X130206750Y-105257600D01*
X130048000Y-105416350D01*
X129794000Y-105416350D01*
X129635250Y-105257600D01*
X129494971Y-105257600D01*
X129277907Y-105347511D01*
X129198485Y-105294443D01*
X128950720Y-105245160D01*
X128351280Y-105245160D01*
X128103515Y-105294443D01*
X128016000Y-105352919D01*
X127928485Y-105294443D01*
X127680720Y-105245160D01*
X127081280Y-105245160D01*
X126833515Y-105294443D01*
X126746000Y-105352919D01*
X126658485Y-105294443D01*
X126410720Y-105245160D01*
X125811280Y-105245160D01*
X125563515Y-105294443D01*
X125353471Y-105434791D01*
X125213123Y-105644835D01*
X125163840Y-105892600D01*
X125163840Y-108092240D01*
X125213123Y-108340005D01*
X125353471Y-108550049D01*
X125563515Y-108690397D01*
X125811280Y-108739680D01*
X126410720Y-108739680D01*
X126621000Y-108697853D01*
X126621000Y-120523000D01*
X126678852Y-120813839D01*
X126843599Y-121060401D01*
X127197198Y-121414000D01*
X121664000Y-121414000D01*
X121664000Y-98612802D01*
X122397112Y-97879690D01*
X124619000Y-97879690D01*
X124619000Y-98520250D01*
X124777750Y-98679000D01*
X125627000Y-98679000D01*
X125627000Y-97529750D01*
X125881000Y-97529750D01*
X125881000Y-98679000D01*
X126730250Y-98679000D01*
X126889000Y-98520250D01*
X126889000Y-97879690D01*
X126792327Y-97646301D01*
X126613698Y-97467673D01*
X126380309Y-97371000D01*
X126039750Y-97371000D01*
X125881000Y-97529750D01*
X125627000Y-97529750D01*
X125468250Y-97371000D01*
X125127691Y-97371000D01*
X124894302Y-97467673D01*
X124715673Y-97646301D01*
X124619000Y-97879690D01*
X122397112Y-97879690D01*
X122996802Y-97280000D01*
X123389537Y-97280000D01*
X123421673Y-97312192D01*
X123765201Y-97454838D01*
X124137167Y-97455162D01*
X124480943Y-97313117D01*
X124744192Y-97050327D01*
X124886838Y-96706799D01*
X124887162Y-96334833D01*
X124745117Y-95991057D01*
X124482327Y-95727808D01*
X124138799Y-95585162D01*
X123766833Y-95584838D01*
X123423057Y-95726883D01*
X123389882Y-95760000D01*
X122682000Y-95760000D01*
X122391161Y-95817852D01*
X122144599Y-95982599D01*
X120366599Y-97760599D01*
X120201852Y-98007161D01*
X120144000Y-98298000D01*
X120144000Y-121920000D01*
X120201852Y-122210839D01*
X120366599Y-122457401D01*
X120620599Y-122711401D01*
X120867160Y-122876148D01*
X121158000Y-122934000D01*
X129647677Y-122934000D01*
X129519340Y-123126070D01*
X129413000Y-123660679D01*
X129413000Y-124751321D01*
X129519340Y-125285930D01*
X129822172Y-125739149D01*
X130275391Y-126041981D01*
X130371006Y-126061000D01*
X115493000Y-126061000D01*
X115493000Y-94011750D01*
X125881000Y-94011750D01*
X125881000Y-94477310D01*
X125977673Y-94710699D01*
X126156302Y-94889327D01*
X126389691Y-94986000D01*
X126730250Y-94986000D01*
X126889000Y-94827250D01*
X126889000Y-93853000D01*
X126039750Y-93853000D01*
X125881000Y-94011750D01*
X115493000Y-94011750D01*
X115493000Y-87579691D01*
X125750000Y-87579691D01*
X125750000Y-88320250D01*
X125908750Y-88479000D01*
X126873000Y-88479000D01*
X126873000Y-87229750D01*
X127127000Y-87229750D01*
X127127000Y-88479000D01*
X128091250Y-88479000D01*
X128250000Y-88320250D01*
X128250000Y-87579691D01*
X128153327Y-87346302D01*
X127974699Y-87167673D01*
X127741310Y-87071000D01*
X127285750Y-87071000D01*
X127127000Y-87229750D01*
X126873000Y-87229750D01*
X126714250Y-87071000D01*
X126258690Y-87071000D01*
X126025301Y-87167673D01*
X125846673Y-87346302D01*
X125750000Y-87579691D01*
X115493000Y-87579691D01*
X115493000Y-74091000D01*
X121227006Y-74091000D01*
X121131391Y-74110019D01*
G36*
X148055391Y-74110019D02*
X147602172Y-74412851D01*
X147299340Y-74866070D01*
X147193000Y-75400679D01*
X147193000Y-76491321D01*
X147299340Y-77025930D01*
X147602172Y-77479149D01*
X148055391Y-77781981D01*
X148590000Y-77888321D01*
X149124609Y-77781981D01*
X149577828Y-77479149D01*
X149860000Y-77056850D01*
X150142172Y-77479149D01*
X150595391Y-77781981D01*
X151130000Y-77888321D01*
X151664609Y-77781981D01*
X152117828Y-77479149D01*
X152400000Y-77056850D01*
X152541932Y-77269266D01*
X151608599Y-78202599D01*
X151443852Y-78449161D01*
X151386000Y-78740000D01*
X151386000Y-79934223D01*
X151323191Y-79976191D01*
X151182843Y-80186235D01*
X151133560Y-80434000D01*
X151133560Y-82384000D01*
X151182843Y-82631765D01*
X151323191Y-82841809D01*
X151533235Y-82982157D01*
X151781000Y-83031440D01*
X152511000Y-83031440D01*
X152758765Y-82982157D01*
X152781000Y-82967300D01*
X152803235Y-82982157D01*
X153051000Y-83031440D01*
X153781000Y-83031440D01*
X154028765Y-82982157D01*
X154051000Y-82967300D01*
X154073235Y-82982157D01*
X154321000Y-83031440D01*
X155051000Y-83031440D01*
X155298765Y-82982157D01*
X155321000Y-82967300D01*
X155343235Y-82982157D01*
X155591000Y-83031440D01*
X156321000Y-83031440D01*
X156568765Y-82982157D01*
X156591000Y-82967300D01*
X156613235Y-82982157D01*
X156861000Y-83031440D01*
X157591000Y-83031440D01*
X157838765Y-82982157D01*
X158048809Y-82841809D01*
X158189157Y-82631765D01*
X158238440Y-82384000D01*
X158238440Y-82294000D01*
X160355001Y-82294000D01*
X160354838Y-82481167D01*
X160496883Y-82824943D01*
X160530000Y-82858118D01*
X160530000Y-83003537D01*
X160497808Y-83035673D01*
X160355162Y-83379201D01*
X160354838Y-83751167D01*
X160496883Y-84094943D01*
X160759673Y-84358192D01*
X161103201Y-84500838D01*
X161475167Y-84501162D01*
X161818943Y-84359117D01*
X162082192Y-84096327D01*
X162224838Y-83752799D01*
X162225162Y-83380833D01*
X162083117Y-83037057D01*
X162050000Y-83003882D01*
X162050000Y-82858463D01*
X162082192Y-82826327D01*
X162179062Y-82593039D01*
X162274883Y-82824943D01*
X162308000Y-82858118D01*
X162308000Y-83765537D01*
X162275808Y-83797673D01*
X162133162Y-84141201D01*
X162132838Y-84513167D01*
X162274883Y-84856943D01*
X162537673Y-85120192D01*
X162881201Y-85262838D01*
X163253167Y-85263162D01*
X163596943Y-85121117D01*
X163640839Y-85077297D01*
X163586000Y-85209691D01*
X163586000Y-85550250D01*
X163744750Y-85709000D01*
X164719000Y-85709000D01*
X164719000Y-85689000D01*
X164973000Y-85689000D01*
X164973000Y-85709000D01*
X165947250Y-85709000D01*
X166106000Y-85550250D01*
X166106000Y-85209691D01*
X166009327Y-84976302D01*
X165867680Y-84834654D01*
X165928809Y-84793809D01*
X166069157Y-84583765D01*
X166118440Y-84336000D01*
X166118440Y-83336000D01*
X166069157Y-83088235D01*
X166003000Y-82989225D01*
X166003000Y-82703913D01*
X166155809Y-82601809D01*
X166296157Y-82391765D01*
X166345440Y-82144000D01*
X166345440Y-80924000D01*
X167410560Y-80924000D01*
X167410560Y-82144000D01*
X167459843Y-82391765D01*
X167600191Y-82601809D01*
X167810235Y-82742157D01*
X168058000Y-82791440D01*
X168968000Y-82791440D01*
X169215765Y-82742157D01*
X169425809Y-82601809D01*
X169566157Y-82391765D01*
X169585603Y-82294000D01*
X170410955Y-82294000D01*
X170283843Y-82484235D01*
X170234560Y-82732000D01*
X170234560Y-86432000D01*
X170283843Y-86679765D01*
X170424191Y-86889809D01*
X170634235Y-87030157D01*
X170882000Y-87079440D01*
X173882000Y-87079440D01*
X174129765Y-87030157D01*
X174339809Y-86889809D01*
X174480157Y-86679765D01*
X174529440Y-86432000D01*
X174529440Y-84867750D01*
X176547000Y-84867750D01*
X176547000Y-86558310D01*
X176643673Y-86791699D01*
X176822302Y-86970327D01*
X177055691Y-87067000D01*
X178396250Y-87067000D01*
X178555000Y-86908250D01*
X178555000Y-84709000D01*
X178809000Y-84709000D01*
X178809000Y-86908250D01*
X178967750Y-87067000D01*
X180308309Y-87067000D01*
X180541698Y-86970327D01*
X180720327Y-86791699D01*
X180817000Y-86558310D01*
X180817000Y-84867750D01*
X180658250Y-84709000D01*
X178809000Y-84709000D01*
X178555000Y-84709000D01*
X176705750Y-84709000D01*
X176547000Y-84867750D01*
X174529440Y-84867750D01*
X174529440Y-82732000D01*
X174504316Y-82605690D01*
X176547000Y-82605690D01*
X176547000Y-84296250D01*
X176705750Y-84455000D01*
X178555000Y-84455000D01*
X178555000Y-82255750D01*
X178809000Y-82255750D01*
X178809000Y-84455000D01*
X180658250Y-84455000D01*
X180817000Y-84296250D01*
X180817000Y-82605690D01*
X180720327Y-82372301D01*
X180541698Y-82193673D01*
X180308309Y-82097000D01*
X178967750Y-82097000D01*
X178809000Y-82255750D01*
X178555000Y-82255750D01*
X178396250Y-82097000D01*
X177055691Y-82097000D01*
X176822302Y-82193673D01*
X176643673Y-82372301D01*
X176547000Y-82605690D01*
X174504316Y-82605690D01*
X174480157Y-82484235D01*
X174339809Y-82274191D01*
X174129765Y-82133843D01*
X173882000Y-82084560D01*
X172821362Y-82084560D01*
X171733401Y-80996599D01*
X171486839Y-80831852D01*
X171196000Y-80774000D01*
X169585603Y-80774000D01*
X169566157Y-80676235D01*
X169425809Y-80466191D01*
X169215765Y-80325843D01*
X168968000Y-80276560D01*
X168058000Y-80276560D01*
X167810235Y-80325843D01*
X167600191Y-80466191D01*
X167459843Y-80676235D01*
X167410560Y-80924000D01*
X166345440Y-80924000D01*
X166296157Y-80676235D01*
X166155809Y-80466191D01*
X165945765Y-80325843D01*
X165698000Y-80276560D01*
X164788000Y-80276560D01*
X164540235Y-80325843D01*
X164330191Y-80466191D01*
X164189843Y-80676235D01*
X164170397Y-80774000D01*
X164002999Y-80774000D01*
X164003162Y-80586833D01*
X163861117Y-80243057D01*
X163828000Y-80209882D01*
X163828000Y-79867750D01*
X173097000Y-79867750D01*
X173097000Y-81208309D01*
X173193673Y-81441698D01*
X173372301Y-81620327D01*
X173605690Y-81717000D01*
X175296250Y-81717000D01*
X175455000Y-81558250D01*
X175455000Y-79709000D01*
X175709000Y-79709000D01*
X175709000Y-81558250D01*
X175867750Y-81717000D01*
X177558310Y-81717000D01*
X177791699Y-81620327D01*
X177970327Y-81441698D01*
X178067000Y-81208309D01*
X178067000Y-79867750D01*
X177908250Y-79709000D01*
X175709000Y-79709000D01*
X175455000Y-79709000D01*
X173255750Y-79709000D01*
X173097000Y-79867750D01*
X163828000Y-79867750D01*
X163828000Y-79248000D01*
X163770148Y-78957161D01*
X163605401Y-78710599D01*
X163358839Y-78545852D01*
X163068000Y-78488000D01*
X159060802Y-78488000D01*
X159287401Y-78261401D01*
X159452148Y-78014839D01*
X159463913Y-77955691D01*
X173097000Y-77955691D01*
X173097000Y-79296250D01*
X173255750Y-79455000D01*
X175455000Y-79455000D01*
X175455000Y-77605750D01*
X175709000Y-77605750D01*
X175709000Y-79455000D01*
X177908250Y-79455000D01*
X178067000Y-79296250D01*
X178067000Y-77955691D01*
X177970327Y-77722302D01*
X177791699Y-77543673D01*
X177558310Y-77447000D01*
X175867750Y-77447000D01*
X175709000Y-77605750D01*
X175455000Y-77605750D01*
X175296250Y-77447000D01*
X173605690Y-77447000D01*
X173372301Y-77543673D01*
X173193673Y-77722302D01*
X173097000Y-77955691D01*
X159463913Y-77955691D01*
X159510000Y-77724000D01*
X159510000Y-77631379D01*
X159737828Y-77479149D01*
X160020000Y-77056850D01*
X160302172Y-77479149D01*
X160755391Y-77781981D01*
X161290000Y-77888321D01*
X161824609Y-77781981D01*
X162277828Y-77479149D01*
X162560000Y-77056850D01*
X162842172Y-77479149D01*
X163295391Y-77781981D01*
X163830000Y-77888321D01*
X164364609Y-77781981D01*
X164817828Y-77479149D01*
X165100000Y-77056850D01*
X165382172Y-77479149D01*
X165835391Y-77781981D01*
X166370000Y-77888321D01*
X166904609Y-77781981D01*
X167357828Y-77479149D01*
X167660660Y-77025930D01*
X167767000Y-76491321D01*
X167767000Y-75400679D01*
X167660660Y-74866070D01*
X167357828Y-74412851D01*
X166904609Y-74110019D01*
X166808994Y-74091000D01*
X183211000Y-74091000D01*
X183211000Y-126061000D01*
X166808994Y-126061000D01*
X166904609Y-126041981D01*
X167357828Y-125739149D01*
X167660660Y-125285930D01*
X167767000Y-124751321D01*
X167767000Y-123660679D01*
X167660660Y-123126070D01*
X167357828Y-122672851D01*
X166904609Y-122370019D01*
X166370000Y-122263679D01*
X165835391Y-122370019D01*
X165382172Y-122672851D01*
X165100000Y-123095150D01*
X164817828Y-122672851D01*
X164364609Y-122370019D01*
X163830000Y-122263679D01*
X163295391Y-122370019D01*
X162842172Y-122672851D01*
X162560000Y-123095150D01*
X162277828Y-122672851D01*
X161824609Y-122370019D01*
X161290000Y-122263679D01*
X160755391Y-122370019D01*
X160302172Y-122672851D01*
X160020000Y-123095150D01*
X159737828Y-122672851D01*
X159284609Y-122370019D01*
X158750000Y-122263679D01*
X158215391Y-122370019D01*
X157762172Y-122672851D01*
X157480000Y-123095150D01*
X157197828Y-122672851D01*
X156744609Y-122370019D01*
X156210000Y-122263679D01*
X155675391Y-122370019D01*
X155222172Y-122672851D01*
X154940000Y-123095150D01*
X154657828Y-122672851D01*
X154204609Y-122370019D01*
X153670000Y-122263679D01*
X153135391Y-122370019D01*
X152682172Y-122672851D01*
X152379340Y-123126070D01*
X152273000Y-123660679D01*
X152273000Y-124751321D01*
X152379340Y-125285930D01*
X152682172Y-125739149D01*
X153135391Y-126041981D01*
X153231006Y-126061000D01*
X149028994Y-126061000D01*
X149124609Y-126041981D01*
X149577828Y-125739149D01*
X149880660Y-125285930D01*
X149987000Y-124751321D01*
X149987000Y-123660679D01*
X149880660Y-123126070D01*
X149577828Y-122672851D01*
X149124609Y-122370019D01*
X148590000Y-122263679D01*
X148055391Y-122370019D01*
X147602172Y-122672851D01*
X147310670Y-123109113D01*
X147292059Y-123046059D01*
X146948026Y-122620370D01*
X146467277Y-122358740D01*
X146393070Y-122343780D01*
X146177000Y-122466280D01*
X146177000Y-124079000D01*
X146197000Y-124079000D01*
X146197000Y-124333000D01*
X146177000Y-124333000D01*
X146177000Y-124353000D01*
X145923000Y-124353000D01*
X145923000Y-124333000D01*
X143637000Y-124333000D01*
X143637000Y-124353000D01*
X143383000Y-124353000D01*
X143383000Y-124333000D01*
X143363000Y-124333000D01*
X143363000Y-124079000D01*
X143383000Y-124079000D01*
X143383000Y-122466280D01*
X143637000Y-122466280D01*
X143637000Y-124079000D01*
X145923000Y-124079000D01*
X145923000Y-122466280D01*
X145706930Y-122343780D01*
X145632723Y-122358740D01*
X145151974Y-122620370D01*
X144807941Y-123046059D01*
X144780000Y-123140723D01*
X144752059Y-123046059D01*
X144408026Y-122620370D01*
X143927277Y-122358740D01*
X143853070Y-122343780D01*
X143637000Y-122466280D01*
X143383000Y-122466280D01*
X143166930Y-122343780D01*
X143092723Y-122358740D01*
X142611974Y-122620370D01*
X142267941Y-123046059D01*
X142249330Y-123109113D01*
X141957828Y-122672851D01*
X141730000Y-122520621D01*
X141730000Y-120456802D01*
X141808802Y-120378000D01*
X143311018Y-120378000D01*
X143443191Y-120575809D01*
X143653235Y-120716157D01*
X143901000Y-120765440D01*
X144874939Y-120765440D01*
X144923000Y-120775000D01*
X146692470Y-120775000D01*
X146899235Y-120913157D01*
X147147000Y-120962440D01*
X148697000Y-120962440D01*
X148944765Y-120913157D01*
X149154809Y-120772809D01*
X149295157Y-120562765D01*
X149344440Y-120315000D01*
X149344440Y-119715000D01*
X151899560Y-119715000D01*
X151899560Y-120315000D01*
X151948843Y-120562765D01*
X152089191Y-120772809D01*
X152299235Y-120913157D01*
X152547000Y-120962440D01*
X154097000Y-120962440D01*
X154344765Y-120913157D01*
X154551530Y-120775000D01*
X155321000Y-120775000D01*
X155369061Y-120765440D01*
X156581000Y-120765440D01*
X156828765Y-120716157D01*
X157038809Y-120575809D01*
X157170982Y-120378000D01*
X159782000Y-120378000D01*
X160072839Y-120320148D01*
X160319401Y-120155401D01*
X160908659Y-119566143D01*
X166687115Y-119566143D01*
X167024758Y-120383300D01*
X167649411Y-121009045D01*
X168465978Y-121348113D01*
X169350143Y-121348885D01*
X170167300Y-121011242D01*
X170793045Y-120386589D01*
X171132113Y-119570022D01*
X171132885Y-118685857D01*
X170795242Y-117868700D01*
X170170589Y-117242955D01*
X169354022Y-116903887D01*
X168469857Y-116903115D01*
X167652700Y-117240758D01*
X167026955Y-117865411D01*
X166687887Y-118681978D01*
X166687115Y-119566143D01*
X160908659Y-119566143D01*
X161303401Y-119171401D01*
X161468148Y-118924839D01*
X161526000Y-118634000D01*
X161526000Y-118054982D01*
X161723809Y-117922809D01*
X161864157Y-117712765D01*
X161913440Y-117465000D01*
X161913440Y-116215000D01*
X161864157Y-115967235D01*
X161723809Y-115757191D01*
X161623221Y-115689979D01*
X170747626Y-115689979D01*
X170929373Y-116027449D01*
X171785275Y-116367460D01*
X172706142Y-116354050D01*
X173494627Y-116027449D01*
X173676374Y-115689979D01*
X178367626Y-115689979D01*
X178549373Y-116027449D01*
X179405275Y-116367460D01*
X180326142Y-116354050D01*
X181114627Y-116027449D01*
X181296374Y-115689979D01*
X179832000Y-114225605D01*
X178367626Y-115689979D01*
X173676374Y-115689979D01*
X172212000Y-114225605D01*
X170747626Y-115689979D01*
X161623221Y-115689979D01*
X161526000Y-115625018D01*
X161526000Y-114752982D01*
X161723809Y-114620809D01*
X161864157Y-114410765D01*
X161913440Y-114163000D01*
X161913440Y-113619275D01*
X169890540Y-113619275D01*
X169903950Y-114540142D01*
X170230551Y-115328627D01*
X170568021Y-115510374D01*
X172032395Y-114046000D01*
X172391605Y-114046000D01*
X173855979Y-115510374D01*
X174193449Y-115328627D01*
X174533460Y-114472725D01*
X174521032Y-113619275D01*
X177510540Y-113619275D01*
X177523950Y-114540142D01*
X177850551Y-115328627D01*
X178188021Y-115510374D01*
X179652395Y-114046000D01*
X180011605Y-114046000D01*
X181475979Y-115510374D01*
X181813449Y-115328627D01*
X182153460Y-114472725D01*
X182140050Y-113551858D01*
X181813449Y-112763373D01*
X181475979Y-112581626D01*
X180011605Y-114046000D01*
X179652395Y-114046000D01*
X178188021Y-112581626D01*
X177850551Y-112763373D01*
X177510540Y-113619275D01*
X174521032Y-113619275D01*
X174520050Y-113551858D01*
X174193449Y-112763373D01*
X173855979Y-112581626D01*
X172391605Y-114046000D01*
X172032395Y-114046000D01*
X170568021Y-112581626D01*
X170230551Y-112763373D01*
X169890540Y-113619275D01*
X161913440Y-113619275D01*
X161913440Y-112913000D01*
X161864157Y-112665235D01*
X161723809Y-112455191D01*
X161660000Y-112412555D01*
X161660000Y-112402021D01*
X170747626Y-112402021D01*
X172212000Y-113866395D01*
X173676374Y-112402021D01*
X178367626Y-112402021D01*
X179832000Y-113866395D01*
X181296374Y-112402021D01*
X181114627Y-112064551D01*
X180258725Y-111724540D01*
X179337858Y-111737950D01*
X178549373Y-112064551D01*
X178367626Y-112402021D01*
X173676374Y-112402021D01*
X173494627Y-112064551D01*
X172638725Y-111724540D01*
X171717858Y-111737950D01*
X170929373Y-112064551D01*
X170747626Y-112402021D01*
X161660000Y-112402021D01*
X161660000Y-111762669D01*
X161697765Y-111755157D01*
X161907809Y-111614809D01*
X162048157Y-111404765D01*
X162097440Y-111157000D01*
X162097440Y-111067000D01*
X162993536Y-111067000D01*
X163001843Y-111108765D01*
X163142191Y-111318809D01*
X163352235Y-111459157D01*
X163600000Y-111508440D01*
X164600000Y-111508440D01*
X164847765Y-111459157D01*
X165057809Y-111318809D01*
X165100000Y-111255666D01*
X165142191Y-111318809D01*
X165352235Y-111459157D01*
X165600000Y-111508440D01*
X166600000Y-111508440D01*
X166847765Y-111459157D01*
X167057809Y-111318809D01*
X167198157Y-111108765D01*
X167243323Y-110881700D01*
X167463167Y-110881700D01*
X167494611Y-110928759D01*
X167704655Y-111069107D01*
X167952420Y-111118390D01*
X168851580Y-111118390D01*
X169099345Y-111069107D01*
X169208757Y-110996000D01*
X174464163Y-110996000D01*
X174554522Y-111214686D01*
X175040754Y-111701768D01*
X175676372Y-111965699D01*
X176364609Y-111966300D01*
X177000686Y-111703478D01*
X177487768Y-111217246D01*
X177751699Y-110581628D01*
X177752300Y-109893391D01*
X177489478Y-109257314D01*
X177003246Y-108770232D01*
X176367628Y-108506301D01*
X175679391Y-108505700D01*
X175043314Y-108768522D01*
X174556232Y-109254754D01*
X174464363Y-109476000D01*
X169417206Y-109476000D01*
X169415870Y-109474000D01*
X169449737Y-109423315D01*
X169499020Y-109175550D01*
X169499020Y-108477050D01*
X169449737Y-108229285D01*
X169343292Y-108069979D01*
X170747626Y-108069979D01*
X170929373Y-108407449D01*
X171785275Y-108747460D01*
X172706142Y-108734050D01*
X173494627Y-108407449D01*
X173676374Y-108069979D01*
X178367626Y-108069979D01*
X178549373Y-108407449D01*
X179405275Y-108747460D01*
X180326142Y-108734050D01*
X181114627Y-108407449D01*
X181296374Y-108069979D01*
X179832000Y-106605605D01*
X178367626Y-108069979D01*
X173676374Y-108069979D01*
X172212000Y-106605605D01*
X170747626Y-108069979D01*
X169343292Y-108069979D01*
X169309389Y-108019241D01*
X169162000Y-107920758D01*
X169162000Y-105999275D01*
X169890540Y-105999275D01*
X169903950Y-106920142D01*
X170230551Y-107708627D01*
X170568021Y-107890374D01*
X172032395Y-106426000D01*
X172391605Y-106426000D01*
X173855979Y-107890374D01*
X174193449Y-107708627D01*
X174533460Y-106852725D01*
X174521032Y-105999275D01*
X177510540Y-105999275D01*
X177523950Y-106920142D01*
X177850551Y-107708627D01*
X178188021Y-107890374D01*
X179652395Y-106426000D01*
X180011605Y-106426000D01*
X181475979Y-107890374D01*
X181813449Y-107708627D01*
X182153460Y-106852725D01*
X182140050Y-105931858D01*
X181813449Y-105143373D01*
X181475979Y-104961626D01*
X180011605Y-106426000D01*
X179652395Y-106426000D01*
X178188021Y-104961626D01*
X177850551Y-105143373D01*
X177510540Y-105999275D01*
X174521032Y-105999275D01*
X174520050Y-105931858D01*
X174193449Y-105143373D01*
X173855979Y-104961626D01*
X172391605Y-106426000D01*
X172032395Y-106426000D01*
X170568021Y-104961626D01*
X170230551Y-105143373D01*
X169890540Y-105999275D01*
X169162000Y-105999275D01*
X169162000Y-104782021D01*
X170747626Y-104782021D01*
X172212000Y-106246395D01*
X173676374Y-104782021D01*
X178367626Y-104782021D01*
X179832000Y-106246395D01*
X181296374Y-104782021D01*
X181114627Y-104444551D01*
X180258725Y-104104540D01*
X179337858Y-104117950D01*
X178549373Y-104444551D01*
X178367626Y-104782021D01*
X173676374Y-104782021D01*
X173494627Y-104444551D01*
X172638725Y-104104540D01*
X171717858Y-104117950D01*
X170929373Y-104444551D01*
X170747626Y-104782021D01*
X169162000Y-104782021D01*
X169162000Y-104648000D01*
X169121531Y-104444551D01*
X169104148Y-104357160D01*
X168939401Y-104110599D01*
X167669401Y-102840599D01*
X167422839Y-102675852D01*
X167132000Y-102618000D01*
X166949771Y-102618000D01*
X167160303Y-102531010D01*
X167553629Y-102138370D01*
X167639949Y-101930488D01*
X167724990Y-102136303D01*
X168117630Y-102529629D01*
X168630900Y-102742757D01*
X169186661Y-102743242D01*
X169700303Y-102531010D01*
X170093629Y-102138370D01*
X170306757Y-101625100D01*
X170307242Y-101069339D01*
X170095010Y-100555697D01*
X169702370Y-100162371D01*
X169494488Y-100076051D01*
X169700303Y-99991010D01*
X170093629Y-99598370D01*
X170306757Y-99085100D01*
X170307242Y-98529339D01*
X170095010Y-98015697D01*
X169702370Y-97622371D01*
X169494488Y-97536051D01*
X169700303Y-97451010D01*
X170093629Y-97058370D01*
X170306757Y-96545100D01*
X170307242Y-95989339D01*
X170095010Y-95475697D01*
X169702370Y-95082371D01*
X169189100Y-94869243D01*
X168633339Y-94868758D01*
X168119697Y-95080990D01*
X167726371Y-95473630D01*
X167640051Y-95681512D01*
X167555010Y-95475697D01*
X167162370Y-95082371D01*
X166649100Y-94869243D01*
X166093339Y-94868758D01*
X165579697Y-95080990D01*
X165186371Y-95473630D01*
X165098000Y-95686451D01*
X165098000Y-91626143D01*
X166687115Y-91626143D01*
X167024758Y-92443300D01*
X167649411Y-93069045D01*
X168465978Y-93408113D01*
X169350143Y-93408885D01*
X170167300Y-93071242D01*
X170793045Y-92446589D01*
X171132113Y-91630022D01*
X171132885Y-90745857D01*
X170795242Y-89928700D01*
X170170589Y-89302955D01*
X169354022Y-88963887D01*
X168469857Y-88963115D01*
X167652700Y-89300758D01*
X167026955Y-89925411D01*
X166687887Y-90741978D01*
X166687115Y-91626143D01*
X165098000Y-91626143D01*
X165098000Y-88138000D01*
X165040148Y-87847161D01*
X165040148Y-87847160D01*
X164875401Y-87600599D01*
X164245802Y-86971000D01*
X164560250Y-86971000D01*
X164719000Y-86812250D01*
X164719000Y-85963000D01*
X164973000Y-85963000D01*
X164973000Y-86812250D01*
X165131750Y-86971000D01*
X165597310Y-86971000D01*
X165830699Y-86874327D01*
X166009327Y-86695698D01*
X166106000Y-86462309D01*
X166106000Y-86121750D01*
X165947250Y-85963000D01*
X164973000Y-85963000D01*
X164719000Y-85963000D01*
X163744750Y-85963000D01*
X163615120Y-86092630D01*
X163598327Y-86075808D01*
X163254799Y-85933162D01*
X162882833Y-85932838D01*
X162539057Y-86074883D01*
X162275808Y-86337673D01*
X162133162Y-86681201D01*
X162132838Y-87053167D01*
X162274883Y-87396943D01*
X162537673Y-87660192D01*
X162881201Y-87802838D01*
X162928077Y-87802879D01*
X163578000Y-88452802D01*
X163578000Y-101346000D01*
X163635852Y-101636839D01*
X163800599Y-101883401D01*
X164085324Y-102168126D01*
X163964309Y-102118000D01*
X163623750Y-102118000D01*
X163465000Y-102276750D01*
X163465000Y-103251000D01*
X163485000Y-103251000D01*
X163485000Y-103505000D01*
X163465000Y-103505000D01*
X163465000Y-104479250D01*
X163569250Y-104583500D01*
X163449000Y-104703750D01*
X163449000Y-105553000D01*
X164423250Y-105553000D01*
X164582000Y-105394250D01*
X164582000Y-105053691D01*
X164485327Y-104820302D01*
X164306699Y-104641673D01*
X164131070Y-104568925D01*
X164197698Y-104541327D01*
X164339346Y-104399680D01*
X164380191Y-104460809D01*
X164590235Y-104601157D01*
X164838000Y-104650440D01*
X165838000Y-104650440D01*
X166085765Y-104601157D01*
X166295809Y-104460809D01*
X166436157Y-104250765D01*
X166458587Y-104138000D01*
X166817198Y-104138000D01*
X167642000Y-104962802D01*
X167642000Y-107920758D01*
X167494611Y-108019241D01*
X167354263Y-108229285D01*
X167304980Y-108477050D01*
X167304980Y-109175550D01*
X167342007Y-109361700D01*
X167197131Y-109361700D01*
X167057809Y-109153191D01*
X166847765Y-109012843D01*
X166600000Y-108963560D01*
X165600000Y-108963560D01*
X165352235Y-109012843D01*
X165142191Y-109153191D01*
X165100000Y-109216334D01*
X165057809Y-109153191D01*
X164847765Y-109012843D01*
X164600000Y-108963560D01*
X164031961Y-108963560D01*
X164063653Y-108804237D01*
X164194765Y-108778157D01*
X164404809Y-108637809D01*
X164545157Y-108427765D01*
X164594440Y-108180000D01*
X164594440Y-107180000D01*
X164545157Y-106932235D01*
X164404809Y-106722191D01*
X164343680Y-106681346D01*
X164485327Y-106539698D01*
X164582000Y-106306309D01*
X164582000Y-105965750D01*
X164423250Y-105807000D01*
X163449000Y-105807000D01*
X163449000Y-105827000D01*
X163195000Y-105827000D01*
X163195000Y-105807000D01*
X162220750Y-105807000D01*
X162062000Y-105965750D01*
X162062000Y-106306309D01*
X162158673Y-106539698D01*
X162300320Y-106681346D01*
X162239191Y-106722191D01*
X162098843Y-106932235D01*
X162049560Y-107180000D01*
X162049560Y-108180000D01*
X162098843Y-108427765D01*
X162239191Y-108637809D01*
X162288465Y-108670733D01*
X162097440Y-108861758D01*
X162097440Y-108807000D01*
X162048157Y-108559235D01*
X161907809Y-108349191D01*
X161697765Y-108208843D01*
X161660000Y-108201331D01*
X161660000Y-107560000D01*
X161602148Y-107269161D01*
X161437401Y-107022599D01*
X161373314Y-106958512D01*
X161405440Y-106797000D01*
X161405440Y-105547000D01*
X161356157Y-105299235D01*
X161215809Y-105089191D01*
X161162680Y-105053691D01*
X162062000Y-105053691D01*
X162062000Y-105394250D01*
X162220750Y-105553000D01*
X163195000Y-105553000D01*
X163195000Y-104703750D01*
X163090750Y-104599500D01*
X163211000Y-104479250D01*
X163211000Y-103505000D01*
X162361750Y-103505000D01*
X162203000Y-103663750D01*
X162203000Y-104129310D01*
X162299673Y-104362699D01*
X162478302Y-104541327D01*
X162528930Y-104562298D01*
X162337301Y-104641673D01*
X162158673Y-104820302D01*
X162062000Y-105053691D01*
X161162680Y-105053691D01*
X161018000Y-104957018D01*
X161018000Y-104846982D01*
X161215809Y-104714809D01*
X161356157Y-104504765D01*
X161405440Y-104257000D01*
X161405440Y-103007000D01*
X161356157Y-102759235D01*
X161267593Y-102626690D01*
X162203000Y-102626690D01*
X162203000Y-103092250D01*
X162361750Y-103251000D01*
X163211000Y-103251000D01*
X163211000Y-102276750D01*
X163052250Y-102118000D01*
X162711691Y-102118000D01*
X162478302Y-102214673D01*
X162299673Y-102393301D01*
X162203000Y-102626690D01*
X161267593Y-102626690D01*
X161215809Y-102549191D01*
X161005765Y-102408843D01*
X160758000Y-102359560D01*
X159758000Y-102359560D01*
X159510235Y-102408843D01*
X159300191Y-102549191D01*
X159259346Y-102610320D01*
X159117698Y-102468673D01*
X158884309Y-102372000D01*
X158543750Y-102372000D01*
X158385000Y-102530750D01*
X158385000Y-103505000D01*
X158405000Y-103505000D01*
X158405000Y-103759000D01*
X158385000Y-103759000D01*
X158385000Y-104733250D01*
X158543750Y-104892000D01*
X158884309Y-104892000D01*
X159117698Y-104795327D01*
X159259346Y-104653680D01*
X159300191Y-104714809D01*
X159498000Y-104846982D01*
X159498000Y-104957018D01*
X159300191Y-105089191D01*
X159259346Y-105150320D01*
X159117698Y-105008673D01*
X158884309Y-104912000D01*
X158543750Y-104912000D01*
X158385000Y-105070750D01*
X158385000Y-106045000D01*
X158405000Y-106045000D01*
X158405000Y-106299000D01*
X158385000Y-106299000D01*
X158385000Y-107273250D01*
X158543750Y-107432000D01*
X158884309Y-107432000D01*
X159117698Y-107335327D01*
X159259346Y-107193680D01*
X159300191Y-107254809D01*
X159510235Y-107395157D01*
X159706420Y-107434180D01*
X159720599Y-107455401D01*
X160140000Y-107874802D01*
X160140000Y-108201331D01*
X160102235Y-108208843D01*
X160045129Y-108247000D01*
X159979000Y-108247000D01*
X159688161Y-108304852D01*
X159649402Y-108330750D01*
X159441599Y-108469599D01*
X159228599Y-108682599D01*
X159063852Y-108929161D01*
X159006000Y-109220000D01*
X159006000Y-110744000D01*
X159063852Y-111034839D01*
X159228599Y-111281401D01*
X159441599Y-111494401D01*
X159688161Y-111659148D01*
X159979000Y-111717000D01*
X160045129Y-111717000D01*
X160102235Y-111755157D01*
X160140000Y-111762669D01*
X160140000Y-112290623D01*
X160018235Y-112314843D01*
X159808191Y-112455191D01*
X159767346Y-112516320D01*
X159625698Y-112374673D01*
X159392309Y-112278000D01*
X159051750Y-112278000D01*
X158893000Y-112436750D01*
X158893000Y-113411000D01*
X158913000Y-113411000D01*
X158913000Y-113665000D01*
X158893000Y-113665000D01*
X158893000Y-114639250D01*
X159051750Y-114798000D01*
X159392309Y-114798000D01*
X159625698Y-114701327D01*
X159767346Y-114559680D01*
X159808191Y-114620809D01*
X160006000Y-114752982D01*
X160006000Y-115625018D01*
X159808191Y-115757191D01*
X159767346Y-115818320D01*
X159625698Y-115676673D01*
X159392309Y-115580000D01*
X159051750Y-115580000D01*
X158893000Y-115738750D01*
X158893000Y-116713000D01*
X158913000Y-116713000D01*
X158913000Y-116967000D01*
X158893000Y-116967000D01*
X158893000Y-117941250D01*
X159051750Y-118100000D01*
X159392309Y-118100000D01*
X159625698Y-118003327D01*
X159767346Y-117861680D01*
X159808191Y-117922809D01*
X160006000Y-118054982D01*
X160006000Y-118319198D01*
X159467198Y-118858000D01*
X157170982Y-118858000D01*
X157038809Y-118660191D01*
X156977680Y-118619346D01*
X157119327Y-118477698D01*
X157216000Y-118244309D01*
X157216000Y-117903750D01*
X157057250Y-117745000D01*
X156083000Y-117745000D01*
X156083000Y-117765000D01*
X155829000Y-117765000D01*
X155829000Y-117745000D01*
X154854750Y-117745000D01*
X154732000Y-117867750D01*
X154732000Y-117760750D01*
X154573250Y-117602000D01*
X153449000Y-117602000D01*
X153449000Y-118618000D01*
X154573250Y-118618000D01*
X154732000Y-118459250D01*
X154732000Y-118331221D01*
X154792673Y-118477698D01*
X154934320Y-118619346D01*
X154873191Y-118660191D01*
X154732843Y-118870235D01*
X154706072Y-119004822D01*
X154573250Y-118872000D01*
X153449000Y-118872000D01*
X153449000Y-118892000D01*
X153195000Y-118892000D01*
X153195000Y-118872000D01*
X152070750Y-118872000D01*
X151912000Y-119030750D01*
X151912000Y-119171310D01*
X152001768Y-119388028D01*
X151948843Y-119467235D01*
X151899560Y-119715000D01*
X149344440Y-119715000D01*
X149295157Y-119467235D01*
X149242232Y-119388028D01*
X149332000Y-119171310D01*
X149332000Y-119030750D01*
X149173250Y-118872000D01*
X148049000Y-118872000D01*
X148049000Y-118892000D01*
X147795000Y-118892000D01*
X147795000Y-118872000D01*
X146670750Y-118872000D01*
X146512000Y-119030750D01*
X146512000Y-119171310D01*
X146546666Y-119255000D01*
X145798440Y-119255000D01*
X145798440Y-119118000D01*
X145749157Y-118870235D01*
X145608809Y-118660191D01*
X145547680Y-118619346D01*
X145689327Y-118477698D01*
X145786000Y-118244309D01*
X145786000Y-117903750D01*
X145643000Y-117760750D01*
X146512000Y-117760750D01*
X146512000Y-117901310D01*
X146598442Y-118110000D01*
X146512000Y-118318690D01*
X146512000Y-118459250D01*
X146670750Y-118618000D01*
X147795000Y-118618000D01*
X147795000Y-117602000D01*
X148049000Y-117602000D01*
X148049000Y-118618000D01*
X149173250Y-118618000D01*
X149332000Y-118459250D01*
X149332000Y-118318690D01*
X149245558Y-118110000D01*
X149332000Y-117901310D01*
X149332000Y-117760750D01*
X151912000Y-117760750D01*
X151912000Y-117901310D01*
X151998442Y-118110000D01*
X151912000Y-118318690D01*
X151912000Y-118459250D01*
X152070750Y-118618000D01*
X153195000Y-118618000D01*
X153195000Y-117602000D01*
X152070750Y-117602000D01*
X151912000Y-117760750D01*
X149332000Y-117760750D01*
X149173250Y-117602000D01*
X148049000Y-117602000D01*
X147795000Y-117602000D01*
X146670750Y-117602000D01*
X146512000Y-117760750D01*
X145643000Y-117760750D01*
X145627250Y-117745000D01*
X144653000Y-117745000D01*
X144653000Y-117765000D01*
X144399000Y-117765000D01*
X144399000Y-117745000D01*
X143424750Y-117745000D01*
X143266000Y-117903750D01*
X143266000Y-118244309D01*
X143362673Y-118477698D01*
X143504320Y-118619346D01*
X143443191Y-118660191D01*
X143311018Y-118858000D01*
X142492000Y-118858000D01*
X142492000Y-116991691D01*
X143266000Y-116991691D01*
X143266000Y-117332250D01*
X143424750Y-117491000D01*
X144399000Y-117491000D01*
X144399000Y-116641750D01*
X144653000Y-116641750D01*
X144653000Y-117491000D01*
X145627250Y-117491000D01*
X145786000Y-117332250D01*
X145786000Y-116991691D01*
X145689327Y-116758302D01*
X145510699Y-116579673D01*
X145296021Y-116490750D01*
X146512000Y-116490750D01*
X146512000Y-116631310D01*
X146598442Y-116840000D01*
X146512000Y-117048690D01*
X146512000Y-117189250D01*
X146670750Y-117348000D01*
X147795000Y-117348000D01*
X147795000Y-116332000D01*
X148049000Y-116332000D01*
X148049000Y-117348000D01*
X149173250Y-117348000D01*
X149332000Y-117189250D01*
X149332000Y-117048690D01*
X149245558Y-116840000D01*
X149332000Y-116631310D01*
X149332000Y-116490750D01*
X149173250Y-116332000D01*
X148049000Y-116332000D01*
X147795000Y-116332000D01*
X146670750Y-116332000D01*
X146512000Y-116490750D01*
X145296021Y-116490750D01*
X145277310Y-116483000D01*
X144811750Y-116483000D01*
X144653000Y-116641750D01*
X144399000Y-116641750D01*
X144240250Y-116483000D01*
X143774690Y-116483000D01*
X143541301Y-116579673D01*
X143362673Y-116758302D01*
X143266000Y-116991691D01*
X142492000Y-116991691D01*
X142492000Y-115778690D01*
X146512000Y-115778690D01*
X146512000Y-115919250D01*
X146670750Y-116078000D01*
X147795000Y-116078000D01*
X147795000Y-115428750D01*
X148049000Y-115428750D01*
X148049000Y-116078000D01*
X149173250Y-116078000D01*
X149332000Y-115919250D01*
X149332000Y-115905000D01*
X151899560Y-115905000D01*
X151899560Y-116505000D01*
X151948843Y-116752765D01*
X152001768Y-116831972D01*
X151912000Y-117048690D01*
X151912000Y-117189250D01*
X152070750Y-117348000D01*
X153195000Y-117348000D01*
X153195000Y-117328000D01*
X153449000Y-117328000D01*
X153449000Y-117348000D01*
X154573250Y-117348000D01*
X154696000Y-117225250D01*
X154696000Y-117332250D01*
X154854750Y-117491000D01*
X155829000Y-117491000D01*
X155829000Y-116641750D01*
X156083000Y-116641750D01*
X156083000Y-117491000D01*
X157057250Y-117491000D01*
X157216000Y-117332250D01*
X157216000Y-117125750D01*
X157631000Y-117125750D01*
X157631000Y-117591310D01*
X157727673Y-117824699D01*
X157906302Y-118003327D01*
X158139691Y-118100000D01*
X158480250Y-118100000D01*
X158639000Y-117941250D01*
X158639000Y-116967000D01*
X157789750Y-116967000D01*
X157631000Y-117125750D01*
X157216000Y-117125750D01*
X157216000Y-116991691D01*
X157119327Y-116758302D01*
X156940699Y-116579673D01*
X156707310Y-116483000D01*
X156241750Y-116483000D01*
X156083000Y-116641750D01*
X155829000Y-116641750D01*
X155670250Y-116483000D01*
X155204690Y-116483000D01*
X154971301Y-116579673D01*
X154792673Y-116758302D01*
X154702195Y-116976735D01*
X154642232Y-116831972D01*
X154695157Y-116752765D01*
X154744440Y-116505000D01*
X154744440Y-116088690D01*
X157631000Y-116088690D01*
X157631000Y-116554250D01*
X157789750Y-116713000D01*
X158639000Y-116713000D01*
X158639000Y-115738750D01*
X158480250Y-115580000D01*
X158139691Y-115580000D01*
X157906302Y-115676673D01*
X157727673Y-115855301D01*
X157631000Y-116088690D01*
X154744440Y-116088690D01*
X154744440Y-115905000D01*
X154695157Y-115657235D01*
X154554809Y-115447191D01*
X154344765Y-115306843D01*
X154097000Y-115257560D01*
X152547000Y-115257560D01*
X152299235Y-115306843D01*
X152089191Y-115447191D01*
X151948843Y-115657235D01*
X151899560Y-115905000D01*
X149332000Y-115905000D01*
X149332000Y-115778690D01*
X149235327Y-115545301D01*
X149056698Y-115366673D01*
X148823309Y-115270000D01*
X148207750Y-115270000D01*
X148049000Y-115428750D01*
X147795000Y-115428750D01*
X147636250Y-115270000D01*
X147020691Y-115270000D01*
X146787302Y-115366673D01*
X146608673Y-115545301D01*
X146512000Y-115778690D01*
X142492000Y-115778690D01*
X142492000Y-113846463D01*
X142514752Y-113823750D01*
X157631000Y-113823750D01*
X157631000Y-114289310D01*
X157727673Y-114522699D01*
X157906302Y-114701327D01*
X158139691Y-114798000D01*
X158480250Y-114798000D01*
X158639000Y-114639250D01*
X158639000Y-113665000D01*
X157789750Y-113665000D01*
X157631000Y-113823750D01*
X142514752Y-113823750D01*
X142524192Y-113814327D01*
X142666838Y-113470799D01*
X142667021Y-113260327D01*
X142743000Y-113275440D01*
X143393000Y-113275440D01*
X143530631Y-113248064D01*
X143566690Y-113263000D01*
X143732250Y-113263000D01*
X143891000Y-113104250D01*
X143891000Y-113025659D01*
X143991157Y-112875765D01*
X144018000Y-112740815D01*
X144044843Y-112875765D01*
X144145000Y-113025659D01*
X144145000Y-113104250D01*
X144303750Y-113263000D01*
X144469310Y-113263000D01*
X144505369Y-113248064D01*
X144643000Y-113275440D01*
X145293000Y-113275440D01*
X145540765Y-113226157D01*
X145750809Y-113085809D01*
X145891157Y-112875765D01*
X145902217Y-112820163D01*
X146002839Y-112800148D01*
X146249401Y-112635401D01*
X146347052Y-112537750D01*
X146822000Y-112537750D01*
X146822000Y-112878309D01*
X146918673Y-113111698D01*
X147097301Y-113290327D01*
X147330690Y-113387000D01*
X147796250Y-113387000D01*
X147955000Y-113228250D01*
X147955000Y-112379000D01*
X148209000Y-112379000D01*
X148209000Y-113228250D01*
X148367750Y-113387000D01*
X148833310Y-113387000D01*
X149066699Y-113290327D01*
X149245327Y-113111698D01*
X149342000Y-112878309D01*
X149342000Y-112786690D01*
X157631000Y-112786690D01*
X157631000Y-113252250D01*
X157789750Y-113411000D01*
X158639000Y-113411000D01*
X158639000Y-112436750D01*
X158480250Y-112278000D01*
X158139691Y-112278000D01*
X157906302Y-112374673D01*
X157727673Y-112553301D01*
X157631000Y-112786690D01*
X149342000Y-112786690D01*
X149342000Y-112537750D01*
X149183250Y-112379000D01*
X148209000Y-112379000D01*
X147955000Y-112379000D01*
X146980750Y-112379000D01*
X146822000Y-112537750D01*
X146347052Y-112537750D01*
X146587401Y-112297401D01*
X146752148Y-112050840D01*
X146810000Y-111760000D01*
X146810000Y-111058802D01*
X146856802Y-111012000D01*
X146867018Y-111012000D01*
X146999191Y-111209809D01*
X147060320Y-111250654D01*
X146918673Y-111392302D01*
X146822000Y-111625691D01*
X146822000Y-111966250D01*
X146980750Y-112125000D01*
X147955000Y-112125000D01*
X147955000Y-112105000D01*
X148209000Y-112105000D01*
X148209000Y-112125000D01*
X149183250Y-112125000D01*
X149342000Y-111966250D01*
X149342000Y-111625691D01*
X149245327Y-111392302D01*
X149103680Y-111250654D01*
X149164809Y-111209809D01*
X149305157Y-110999765D01*
X149305906Y-110996000D01*
X150232557Y-110996000D01*
X150249903Y-111083205D01*
X150390251Y-111293249D01*
X150600295Y-111433597D01*
X150848060Y-111482880D01*
X151645620Y-111482880D01*
X151893385Y-111433597D01*
X152103429Y-111293249D01*
X152146000Y-111229537D01*
X152188571Y-111293249D01*
X152398615Y-111433597D01*
X152646380Y-111482880D01*
X153443940Y-111482880D01*
X153691705Y-111433597D01*
X153901749Y-111293249D01*
X154042097Y-111083205D01*
X154045320Y-111067000D01*
X155402560Y-111067000D01*
X155402560Y-111157000D01*
X155451843Y-111404765D01*
X155592191Y-111614809D01*
X155802235Y-111755157D01*
X156050000Y-111804440D01*
X157150000Y-111804440D01*
X157397765Y-111755157D01*
X157607809Y-111614809D01*
X157748157Y-111404765D01*
X157797440Y-111157000D01*
X157797440Y-110757000D01*
X157772576Y-110632000D01*
X157797440Y-110507000D01*
X157797440Y-110107000D01*
X157776783Y-110003148D01*
X157785000Y-109983310D01*
X157785000Y-109915750D01*
X157753042Y-109883792D01*
X157748157Y-109859235D01*
X157607809Y-109649191D01*
X157606625Y-109648400D01*
X157688327Y-109566699D01*
X157739080Y-109444170D01*
X157785000Y-109398250D01*
X157785000Y-109265750D01*
X157739080Y-109219830D01*
X157688327Y-109097301D01*
X157509698Y-108918673D01*
X157481517Y-108907000D01*
X157626250Y-108907000D01*
X157785000Y-108748250D01*
X157785000Y-108680690D01*
X157688327Y-108447301D01*
X157509698Y-108268673D01*
X157276309Y-108172000D01*
X156885750Y-108172000D01*
X156727000Y-108330750D01*
X156727000Y-108907000D01*
X156800750Y-108907000D01*
X156727000Y-108980750D01*
X156727000Y-109154000D01*
X156473000Y-109154000D01*
X156473000Y-108980750D01*
X156399250Y-108907000D01*
X156473000Y-108907000D01*
X156473000Y-108330750D01*
X156314250Y-108172000D01*
X155923691Y-108172000D01*
X155690302Y-108268673D01*
X155511673Y-108447301D01*
X155415000Y-108680690D01*
X155415000Y-108748250D01*
X155573750Y-108907000D01*
X155718483Y-108907000D01*
X155690302Y-108918673D01*
X155511673Y-109097301D01*
X155460920Y-109219830D01*
X155415000Y-109265750D01*
X155415000Y-109398250D01*
X155460920Y-109444170D01*
X155496471Y-109529998D01*
X155415000Y-109529998D01*
X155415000Y-109547000D01*
X154073566Y-109547000D01*
X154042097Y-109388795D01*
X153901749Y-109178751D01*
X153691705Y-109038403D01*
X153443940Y-108989120D01*
X152646380Y-108989120D01*
X152398615Y-109038403D01*
X152188571Y-109178751D01*
X152146000Y-109242463D01*
X152103429Y-109178751D01*
X151893385Y-109038403D01*
X151645620Y-108989120D01*
X150848060Y-108989120D01*
X150600295Y-109038403D01*
X150390251Y-109178751D01*
X150249903Y-109388795D01*
X150232557Y-109476000D01*
X149286291Y-109476000D01*
X149164809Y-109294191D01*
X148954765Y-109153843D01*
X148707000Y-109104560D01*
X147457000Y-109104560D01*
X147209235Y-109153843D01*
X146999191Y-109294191D01*
X146867018Y-109492000D01*
X146542000Y-109492000D01*
X146251161Y-109549852D01*
X146004599Y-109714599D01*
X145940440Y-109778758D01*
X145940440Y-109368000D01*
X145891157Y-109120235D01*
X145750809Y-108910191D01*
X145540765Y-108769843D01*
X145293000Y-108720560D01*
X144643000Y-108720560D01*
X144395235Y-108769843D01*
X144185191Y-108910191D01*
X144044843Y-109120235D01*
X144018000Y-109255185D01*
X143991157Y-109120235D01*
X143850809Y-108910191D01*
X143778000Y-108861541D01*
X143778000Y-108656982D01*
X143975809Y-108524809D01*
X144016654Y-108463680D01*
X144158302Y-108605327D01*
X144391691Y-108702000D01*
X144732250Y-108702000D01*
X144891000Y-108543250D01*
X144891000Y-107569000D01*
X145145000Y-107569000D01*
X145145000Y-108543250D01*
X145303750Y-108702000D01*
X145644309Y-108702000D01*
X145877698Y-108605327D01*
X146056327Y-108426699D01*
X146153000Y-108193310D01*
X146153000Y-107727750D01*
X145994250Y-107569000D01*
X145145000Y-107569000D01*
X144891000Y-107569000D01*
X144871000Y-107569000D01*
X144871000Y-107315000D01*
X144891000Y-107315000D01*
X144891000Y-106340750D01*
X145145000Y-106340750D01*
X145145000Y-107315000D01*
X145994250Y-107315000D01*
X146153000Y-107156250D01*
X146153000Y-106690690D01*
X146056513Y-106457750D01*
X157123000Y-106457750D01*
X157123000Y-106923310D01*
X157219673Y-107156699D01*
X157398302Y-107335327D01*
X157631691Y-107432000D01*
X157972250Y-107432000D01*
X158131000Y-107273250D01*
X158131000Y-106299000D01*
X157281750Y-106299000D01*
X157123000Y-106457750D01*
X146056513Y-106457750D01*
X146056327Y-106457301D01*
X145877698Y-106278673D01*
X145644309Y-106182000D01*
X145303750Y-106182000D01*
X145145000Y-106340750D01*
X144891000Y-106340750D01*
X144732250Y-106182000D01*
X144391691Y-106182000D01*
X144158302Y-106278673D01*
X144016654Y-106420320D01*
X143975809Y-106359191D01*
X143765765Y-106218843D01*
X143518000Y-106169560D01*
X142518000Y-106169560D01*
X142270235Y-106218843D01*
X142060191Y-106359191D01*
X141919843Y-106569235D01*
X141876210Y-106788597D01*
X141702599Y-106904599D01*
X141194599Y-107412599D01*
X141029852Y-107659161D01*
X140972000Y-107950000D01*
X140972000Y-108403537D01*
X140939808Y-108435673D01*
X140797162Y-108779201D01*
X140797100Y-108850560D01*
X139583000Y-108850560D01*
X139335235Y-108899843D01*
X139125191Y-109040191D01*
X138993018Y-109238000D01*
X138822626Y-109238000D01*
X138802097Y-109134795D01*
X138661749Y-108924751D01*
X138451705Y-108784403D01*
X138203940Y-108735120D01*
X137406380Y-108735120D01*
X137158615Y-108784403D01*
X136948571Y-108924751D01*
X136906000Y-108988463D01*
X136863429Y-108924751D01*
X136766840Y-108860212D01*
X136766840Y-108574840D01*
X136708988Y-108284001D01*
X136544241Y-108037439D01*
X135900000Y-107393198D01*
X135900000Y-106585486D01*
X136113691Y-106674000D01*
X136354250Y-106674000D01*
X136513000Y-106515250D01*
X136513000Y-105791000D01*
X136767000Y-105791000D01*
X136767000Y-106515250D01*
X136925750Y-106674000D01*
X137166309Y-106674000D01*
X137399698Y-106577327D01*
X137578327Y-106398699D01*
X137675000Y-106165310D01*
X137675000Y-105949750D01*
X137516250Y-105791000D01*
X136767000Y-105791000D01*
X136513000Y-105791000D01*
X136493000Y-105791000D01*
X136493000Y-105537000D01*
X136513000Y-105537000D01*
X136513000Y-104812750D01*
X136767000Y-104812750D01*
X136767000Y-105537000D01*
X137516250Y-105537000D01*
X137632560Y-105420690D01*
X157123000Y-105420690D01*
X157123000Y-105886250D01*
X157281750Y-106045000D01*
X158131000Y-106045000D01*
X158131000Y-105070750D01*
X157972250Y-104912000D01*
X157631691Y-104912000D01*
X157398302Y-105008673D01*
X157219673Y-105187301D01*
X157123000Y-105420690D01*
X137632560Y-105420690D01*
X137675000Y-105378250D01*
X137675000Y-105162690D01*
X137578327Y-104929301D01*
X137399698Y-104750673D01*
X137166309Y-104654000D01*
X136925750Y-104654000D01*
X136767000Y-104812750D01*
X136513000Y-104812750D01*
X136354250Y-104654000D01*
X136113691Y-104654000D01*
X135888000Y-104747484D01*
X135888000Y-104541560D01*
X136025765Y-104514157D01*
X136235809Y-104373809D01*
X136376157Y-104163765D01*
X136425091Y-103917750D01*
X157123000Y-103917750D01*
X157123000Y-104383310D01*
X157219673Y-104616699D01*
X157398302Y-104795327D01*
X157631691Y-104892000D01*
X157972250Y-104892000D01*
X158131000Y-104733250D01*
X158131000Y-103759000D01*
X157281750Y-103759000D01*
X157123000Y-103917750D01*
X136425091Y-103917750D01*
X136425440Y-103916000D01*
X136425440Y-103216000D01*
X136376157Y-102968235D01*
X136317661Y-102880690D01*
X157123000Y-102880690D01*
X157123000Y-103346250D01*
X157281750Y-103505000D01*
X158131000Y-103505000D01*
X158131000Y-102530750D01*
X157972250Y-102372000D01*
X157631691Y-102372000D01*
X157398302Y-102468673D01*
X157219673Y-102647301D01*
X157123000Y-102880690D01*
X136317661Y-102880690D01*
X136235809Y-102758191D01*
X136025765Y-102617843D01*
X136016500Y-102616000D01*
X136025765Y-102614157D01*
X136235809Y-102473809D01*
X136376157Y-102263765D01*
X136425440Y-102016000D01*
X136425440Y-101316000D01*
X136376157Y-101068235D01*
X136235809Y-100858191D01*
X136025765Y-100717843D01*
X135857439Y-100684361D01*
X135830148Y-100547160D01*
X135665401Y-100300599D01*
X135446000Y-100081198D01*
X135446000Y-99945754D01*
X135493809Y-99913809D01*
X135634157Y-99703765D01*
X135639721Y-99675791D01*
X135697673Y-99815699D01*
X135876302Y-99994327D01*
X136109691Y-100091000D01*
X136300250Y-100091000D01*
X136459000Y-99932250D01*
X136459000Y-98933000D01*
X136713000Y-98933000D01*
X136713000Y-99932250D01*
X136871750Y-100091000D01*
X137062309Y-100091000D01*
X137295698Y-99994327D01*
X137474327Y-99815699D01*
X137571000Y-99582310D01*
X137571000Y-99091750D01*
X137412250Y-98933000D01*
X136713000Y-98933000D01*
X136459000Y-98933000D01*
X136439000Y-98933000D01*
X136439000Y-98699000D01*
X151828560Y-98699000D01*
X151828560Y-99929000D01*
X151877843Y-100176765D01*
X152018191Y-100386809D01*
X152228235Y-100527157D01*
X152476000Y-100576440D01*
X154276000Y-100576440D01*
X154523765Y-100527157D01*
X154687036Y-100418062D01*
X154736302Y-100467327D01*
X154969691Y-100564000D01*
X155710250Y-100564000D01*
X155869000Y-100405250D01*
X155869000Y-99441000D01*
X156123000Y-99441000D01*
X156123000Y-100405250D01*
X156281750Y-100564000D01*
X157022309Y-100564000D01*
X157255698Y-100467327D01*
X157434327Y-100288699D01*
X157531000Y-100055310D01*
X157531000Y-99599750D01*
X157372250Y-99441000D01*
X156123000Y-99441000D01*
X155869000Y-99441000D01*
X155849000Y-99441000D01*
X155849000Y-99187000D01*
X155869000Y-99187000D01*
X155869000Y-98222750D01*
X156123000Y-98222750D01*
X156123000Y-99187000D01*
X157372250Y-99187000D01*
X157531000Y-99028250D01*
X157531000Y-98572690D01*
X157434327Y-98339301D01*
X157255698Y-98160673D01*
X157022309Y-98064000D01*
X156281750Y-98064000D01*
X156123000Y-98222750D01*
X155869000Y-98222750D01*
X155710250Y-98064000D01*
X154969691Y-98064000D01*
X154736302Y-98160673D01*
X154687036Y-98209938D01*
X154523765Y-98100843D01*
X154448859Y-98085943D01*
X155223401Y-97311401D01*
X155388148Y-97064839D01*
X155409167Y-96959167D01*
X156036838Y-96959167D01*
X156178883Y-97302943D01*
X156441673Y-97566192D01*
X156785201Y-97708838D01*
X157157167Y-97709162D01*
X157500943Y-97567117D01*
X157534118Y-97534000D01*
X161036000Y-97534000D01*
X161326839Y-97476148D01*
X161573401Y-97311401D01*
X161827401Y-97057401D01*
X161992148Y-96810840D01*
X162050000Y-96520000D01*
X162050000Y-86160463D01*
X162082192Y-86128327D01*
X162224838Y-85784799D01*
X162225162Y-85412833D01*
X162083117Y-85069057D01*
X161820327Y-84805808D01*
X161476799Y-84663162D01*
X161104833Y-84662838D01*
X160761057Y-84804883D01*
X160497808Y-85067673D01*
X160355162Y-85411201D01*
X160354838Y-85783167D01*
X160496883Y-86126943D01*
X160530000Y-86160118D01*
X160530000Y-96014000D01*
X157534463Y-96014000D01*
X157502327Y-95981808D01*
X157501441Y-95981440D01*
X157591000Y-95981440D01*
X157838765Y-95932157D01*
X158048809Y-95791809D01*
X158189157Y-95581765D01*
X158238440Y-95334000D01*
X158238440Y-93384000D01*
X158189157Y-93136235D01*
X158048809Y-92926191D01*
X157838765Y-92785843D01*
X157591000Y-92736560D01*
X156861000Y-92736560D01*
X156613235Y-92785843D01*
X156583776Y-92805527D01*
X156447309Y-92749000D01*
X156241750Y-92749000D01*
X156083000Y-92907750D01*
X156083000Y-94232000D01*
X156103000Y-94232000D01*
X156103000Y-94486000D01*
X156083000Y-94486000D01*
X156083000Y-95810250D01*
X156241750Y-95969000D01*
X156447309Y-95969000D01*
X156583776Y-95912473D01*
X156593270Y-95918817D01*
X156443057Y-95980883D01*
X156179808Y-96243673D01*
X156037162Y-96587201D01*
X156036838Y-96959167D01*
X155409167Y-96959167D01*
X155446000Y-96774000D01*
X155446000Y-95961258D01*
X155464691Y-95969000D01*
X155670250Y-95969000D01*
X155829000Y-95810250D01*
X155829000Y-94486000D01*
X155809000Y-94486000D01*
X155809000Y-94232000D01*
X155829000Y-94232000D01*
X155829000Y-92907750D01*
X155670250Y-92749000D01*
X155464691Y-92749000D01*
X155328224Y-92805527D01*
X155298765Y-92785843D01*
X155051000Y-92736560D01*
X154321000Y-92736560D01*
X154073235Y-92785843D01*
X154051000Y-92800700D01*
X154028765Y-92785843D01*
X153781000Y-92736560D01*
X153051000Y-92736560D01*
X152803235Y-92785843D01*
X152773776Y-92805527D01*
X152637309Y-92749000D01*
X152431750Y-92749000D01*
X152273000Y-92907750D01*
X152273000Y-94232000D01*
X152293000Y-94232000D01*
X152293000Y-94486000D01*
X152273000Y-94486000D01*
X152273000Y-95810250D01*
X152431750Y-95969000D01*
X152637309Y-95969000D01*
X152656000Y-95961258D01*
X152656000Y-96211537D01*
X152623808Y-96243673D01*
X152481162Y-96587201D01*
X152480838Y-96959167D01*
X152622883Y-97302943D01*
X152852369Y-97532829D01*
X152838599Y-97546599D01*
X152673852Y-97793161D01*
X152622453Y-98051560D01*
X152476000Y-98051560D01*
X152228235Y-98100843D01*
X152018191Y-98241191D01*
X151877843Y-98451235D01*
X151828560Y-98699000D01*
X136439000Y-98699000D01*
X136439000Y-98679000D01*
X136459000Y-98679000D01*
X136459000Y-97679750D01*
X136713000Y-97679750D01*
X136713000Y-98679000D01*
X137412250Y-98679000D01*
X137571000Y-98520250D01*
X137571000Y-98029690D01*
X137474327Y-97796301D01*
X137295698Y-97617673D01*
X137062309Y-97521000D01*
X136871750Y-97521000D01*
X136713000Y-97679750D01*
X136459000Y-97679750D01*
X136300250Y-97521000D01*
X136109691Y-97521000D01*
X135876302Y-97617673D01*
X135697673Y-97796301D01*
X135639721Y-97936209D01*
X135634157Y-97908235D01*
X135493809Y-97698191D01*
X135283765Y-97557843D01*
X135036000Y-97508560D01*
X134336000Y-97508560D01*
X134088235Y-97557843D01*
X133878191Y-97698191D01*
X133737843Y-97908235D01*
X133731000Y-97942637D01*
X133724157Y-97908235D01*
X133583809Y-97698191D01*
X133373765Y-97557843D01*
X133348000Y-97552718D01*
X133348000Y-97536000D01*
X133305830Y-97324000D01*
X133290148Y-97245160D01*
X133125401Y-96998599D01*
X132649500Y-96522698D01*
X132649500Y-94644750D01*
X151146000Y-94644750D01*
X151146000Y-95460310D01*
X151242673Y-95693699D01*
X151421302Y-95872327D01*
X151654691Y-95969000D01*
X151860250Y-95969000D01*
X152019000Y-95810250D01*
X152019000Y-94486000D01*
X151304750Y-94486000D01*
X151146000Y-94644750D01*
X132649500Y-94644750D01*
X132649500Y-93084302D01*
X132812599Y-93247401D01*
X133059161Y-93412148D01*
X133350000Y-93470000D01*
X134620000Y-93470000D01*
X134910839Y-93412148D01*
X135142002Y-93257690D01*
X151146000Y-93257690D01*
X151146000Y-94073250D01*
X151304750Y-94232000D01*
X152019000Y-94232000D01*
X152019000Y-92907750D01*
X151860250Y-92749000D01*
X151654691Y-92749000D01*
X151421302Y-92845673D01*
X151242673Y-93024301D01*
X151146000Y-93257690D01*
X135142002Y-93257690D01*
X135157401Y-93247401D01*
X135665401Y-92739401D01*
X135769364Y-92583809D01*
X135830148Y-92492839D01*
X135888000Y-92202000D01*
X135888000Y-83710103D01*
X135957201Y-83738838D01*
X136329167Y-83739162D01*
X136672943Y-83597117D01*
X136706118Y-83564000D01*
X140716000Y-83564000D01*
X141006839Y-83506148D01*
X141253401Y-83341401D01*
X142523401Y-82071401D01*
X142688148Y-81824840D01*
X142746000Y-81534000D01*
X142746000Y-77631379D01*
X142973828Y-77479149D01*
X143256000Y-77056850D01*
X143538172Y-77479149D01*
X143991391Y-77781981D01*
X144526000Y-77888321D01*
X145060609Y-77781981D01*
X145513828Y-77479149D01*
X145816660Y-77025930D01*
X145923000Y-76491321D01*
X145923000Y-75400679D01*
X145816660Y-74866070D01*
X145513828Y-74412851D01*
X145060609Y-74110019D01*
X144964994Y-74091000D01*
X148151006Y-74091000D01*
X148055391Y-74110019D01*
X148055391Y-74110019D01*
G37*
X148055391Y-74110019D02*
X147602172Y-74412851D01*
X147299340Y-74866070D01*
X147193000Y-75400679D01*
X147193000Y-76491321D01*
X147299340Y-77025930D01*
X147602172Y-77479149D01*
X148055391Y-77781981D01*
X148590000Y-77888321D01*
X149124609Y-77781981D01*
X149577828Y-77479149D01*
X149860000Y-77056850D01*
X150142172Y-77479149D01*
X150595391Y-77781981D01*
X151130000Y-77888321D01*
X151664609Y-77781981D01*
X152117828Y-77479149D01*
X152400000Y-77056850D01*
X152541932Y-77269266D01*
X151608599Y-78202599D01*
X151443852Y-78449161D01*
X151386000Y-78740000D01*
X151386000Y-79934223D01*
X151323191Y-79976191D01*
X151182843Y-80186235D01*
X151133560Y-80434000D01*
X151133560Y-82384000D01*
X151182843Y-82631765D01*
X151323191Y-82841809D01*
X151533235Y-82982157D01*
X151781000Y-83031440D01*
X152511000Y-83031440D01*
X152758765Y-82982157D01*
X152781000Y-82967300D01*
X152803235Y-82982157D01*
X153051000Y-83031440D01*
X153781000Y-83031440D01*
X154028765Y-82982157D01*
X154051000Y-82967300D01*
X154073235Y-82982157D01*
X154321000Y-83031440D01*
X155051000Y-83031440D01*
X155298765Y-82982157D01*
X155321000Y-82967300D01*
X155343235Y-82982157D01*
X155591000Y-83031440D01*
X156321000Y-83031440D01*
X156568765Y-82982157D01*
X156591000Y-82967300D01*
X156613235Y-82982157D01*
X156861000Y-83031440D01*
X157591000Y-83031440D01*
X157838765Y-82982157D01*
X158048809Y-82841809D01*
X158189157Y-82631765D01*
X158238440Y-82384000D01*
X158238440Y-82294000D01*
X160355001Y-82294000D01*
X160354838Y-82481167D01*
X160496883Y-82824943D01*
X160530000Y-82858118D01*
X160530000Y-83003537D01*
X160497808Y-83035673D01*
X160355162Y-83379201D01*
X160354838Y-83751167D01*
X160496883Y-84094943D01*
X160759673Y-84358192D01*
X161103201Y-84500838D01*
X161475167Y-84501162D01*
X161818943Y-84359117D01*
X162082192Y-84096327D01*
X162224838Y-83752799D01*
X162225162Y-83380833D01*
X162083117Y-83037057D01*
X162050000Y-83003882D01*
X162050000Y-82858463D01*
X162082192Y-82826327D01*
X162179062Y-82593039D01*
X162274883Y-82824943D01*
X162308000Y-82858118D01*
X162308000Y-83765537D01*
X162275808Y-83797673D01*
X162133162Y-84141201D01*
X162132838Y-84513167D01*
X162274883Y-84856943D01*
X162537673Y-85120192D01*
X162881201Y-85262838D01*
X163253167Y-85263162D01*
X163596943Y-85121117D01*
X163640839Y-85077297D01*
X163586000Y-85209691D01*
X163586000Y-85550250D01*
X163744750Y-85709000D01*
X164719000Y-85709000D01*
X164719000Y-85689000D01*
X164973000Y-85689000D01*
X164973000Y-85709000D01*
X165947250Y-85709000D01*
X166106000Y-85550250D01*
X166106000Y-85209691D01*
X166009327Y-84976302D01*
X165867680Y-84834654D01*
X165928809Y-84793809D01*
X166069157Y-84583765D01*
X166118440Y-84336000D01*
X166118440Y-83336000D01*
X166069157Y-83088235D01*
X166003000Y-82989225D01*
X166003000Y-82703913D01*
X166155809Y-82601809D01*
X166296157Y-82391765D01*
X166345440Y-82144000D01*
X166345440Y-80924000D01*
X167410560Y-80924000D01*
X167410560Y-82144000D01*
X167459843Y-82391765D01*
X167600191Y-82601809D01*
X167810235Y-82742157D01*
X168058000Y-82791440D01*
X168968000Y-82791440D01*
X169215765Y-82742157D01*
X169425809Y-82601809D01*
X169566157Y-82391765D01*
X169585603Y-82294000D01*
X170410955Y-82294000D01*
X170283843Y-82484235D01*
X170234560Y-82732000D01*
X170234560Y-86432000D01*
X170283843Y-86679765D01*
X170424191Y-86889809D01*
X170634235Y-87030157D01*
X170882000Y-87079440D01*
X173882000Y-87079440D01*
X174129765Y-87030157D01*
X174339809Y-86889809D01*
X174480157Y-86679765D01*
X174529440Y-86432000D01*
X174529440Y-84867750D01*
X176547000Y-84867750D01*
X176547000Y-86558310D01*
X176643673Y-86791699D01*
X176822302Y-86970327D01*
X177055691Y-87067000D01*
X178396250Y-87067000D01*
X178555000Y-86908250D01*
X178555000Y-84709000D01*
X178809000Y-84709000D01*
X178809000Y-86908250D01*
X178967750Y-87067000D01*
X180308309Y-87067000D01*
X180541698Y-86970327D01*
X180720327Y-86791699D01*
X180817000Y-86558310D01*
X180817000Y-84867750D01*
X180658250Y-84709000D01*
X178809000Y-84709000D01*
X178555000Y-84709000D01*
X176705750Y-84709000D01*
X176547000Y-84867750D01*
X174529440Y-84867750D01*
X174529440Y-82732000D01*
X174504316Y-82605690D01*
X176547000Y-82605690D01*
X176547000Y-84296250D01*
X176705750Y-84455000D01*
X178555000Y-84455000D01*
X178555000Y-82255750D01*
X178809000Y-82255750D01*
X178809000Y-84455000D01*
X180658250Y-84455000D01*
X180817000Y-84296250D01*
X180817000Y-82605690D01*
X180720327Y-82372301D01*
X180541698Y-82193673D01*
X180308309Y-82097000D01*
X178967750Y-82097000D01*
X178809000Y-82255750D01*
X178555000Y-82255750D01*
X178396250Y-82097000D01*
X177055691Y-82097000D01*
X176822302Y-82193673D01*
X176643673Y-82372301D01*
X176547000Y-82605690D01*
X174504316Y-82605690D01*
X174480157Y-82484235D01*
X174339809Y-82274191D01*
X174129765Y-82133843D01*
X173882000Y-82084560D01*
X172821362Y-82084560D01*
X171733401Y-80996599D01*
X171486839Y-80831852D01*
X171196000Y-80774000D01*
X169585603Y-80774000D01*
X169566157Y-80676235D01*
X169425809Y-80466191D01*
X169215765Y-80325843D01*
X168968000Y-80276560D01*
X168058000Y-80276560D01*
X167810235Y-80325843D01*
X167600191Y-80466191D01*
X167459843Y-80676235D01*
X167410560Y-80924000D01*
X166345440Y-80924000D01*
X166296157Y-80676235D01*
X166155809Y-80466191D01*
X165945765Y-80325843D01*
X165698000Y-80276560D01*
X164788000Y-80276560D01*
X164540235Y-80325843D01*
X164330191Y-80466191D01*
X164189843Y-80676235D01*
X164170397Y-80774000D01*
X164002999Y-80774000D01*
X164003162Y-80586833D01*
X163861117Y-80243057D01*
X163828000Y-80209882D01*
X163828000Y-79867750D01*
X173097000Y-79867750D01*
X173097000Y-81208309D01*
X173193673Y-81441698D01*
X173372301Y-81620327D01*
X173605690Y-81717000D01*
X175296250Y-81717000D01*
X175455000Y-81558250D01*
X175455000Y-79709000D01*
X175709000Y-79709000D01*
X175709000Y-81558250D01*
X175867750Y-81717000D01*
X177558310Y-81717000D01*
X177791699Y-81620327D01*
X177970327Y-81441698D01*
X178067000Y-81208309D01*
X178067000Y-79867750D01*
X177908250Y-79709000D01*
X175709000Y-79709000D01*
X175455000Y-79709000D01*
X173255750Y-79709000D01*
X173097000Y-79867750D01*
X163828000Y-79867750D01*
X163828000Y-79248000D01*
X163770148Y-78957161D01*
X163605401Y-78710599D01*
X163358839Y-78545852D01*
X163068000Y-78488000D01*
X159060802Y-78488000D01*
X159287401Y-78261401D01*
X159452148Y-78014839D01*
X159463913Y-77955691D01*
X173097000Y-77955691D01*
X173097000Y-79296250D01*
X173255750Y-79455000D01*
X175455000Y-79455000D01*
X175455000Y-77605750D01*
X175709000Y-77605750D01*
X175709000Y-79455000D01*
X177908250Y-79455000D01*
X178067000Y-79296250D01*
X178067000Y-77955691D01*
X177970327Y-77722302D01*
X177791699Y-77543673D01*
X177558310Y-77447000D01*
X175867750Y-77447000D01*
X175709000Y-77605750D01*
X175455000Y-77605750D01*
X175296250Y-77447000D01*
X173605690Y-77447000D01*
X173372301Y-77543673D01*
X173193673Y-77722302D01*
X173097000Y-77955691D01*
X159463913Y-77955691D01*
X159510000Y-77724000D01*
X159510000Y-77631379D01*
X159737828Y-77479149D01*
X160020000Y-77056850D01*
X160302172Y-77479149D01*
X160755391Y-77781981D01*
X161290000Y-77888321D01*
X161824609Y-77781981D01*
X162277828Y-77479149D01*
X162560000Y-77056850D01*
X162842172Y-77479149D01*
X163295391Y-77781981D01*
X163830000Y-77888321D01*
X164364609Y-77781981D01*
X164817828Y-77479149D01*
X165100000Y-77056850D01*
X165382172Y-77479149D01*
X165835391Y-77781981D01*
X166370000Y-77888321D01*
X166904609Y-77781981D01*
X167357828Y-77479149D01*
X167660660Y-77025930D01*
X167767000Y-76491321D01*
X167767000Y-75400679D01*
X167660660Y-74866070D01*
X167357828Y-74412851D01*
X166904609Y-74110019D01*
X166808994Y-74091000D01*
X183211000Y-74091000D01*
X183211000Y-126061000D01*
X166808994Y-126061000D01*
X166904609Y-126041981D01*
X167357828Y-125739149D01*
X167660660Y-125285930D01*
X167767000Y-124751321D01*
X167767000Y-123660679D01*
X167660660Y-123126070D01*
X167357828Y-122672851D01*
X166904609Y-122370019D01*
X166370000Y-122263679D01*
X165835391Y-122370019D01*
X165382172Y-122672851D01*
X165100000Y-123095150D01*
X164817828Y-122672851D01*
X164364609Y-122370019D01*
X163830000Y-122263679D01*
X163295391Y-122370019D01*
X162842172Y-122672851D01*
X162560000Y-123095150D01*
X162277828Y-122672851D01*
X161824609Y-122370019D01*
X161290000Y-122263679D01*
X160755391Y-122370019D01*
X160302172Y-122672851D01*
X160020000Y-123095150D01*
X159737828Y-122672851D01*
X159284609Y-122370019D01*
X158750000Y-122263679D01*
X158215391Y-122370019D01*
X157762172Y-122672851D01*
X157480000Y-123095150D01*
X157197828Y-122672851D01*
X156744609Y-122370019D01*
X156210000Y-122263679D01*
X155675391Y-122370019D01*
X155222172Y-122672851D01*
X154940000Y-123095150D01*
X154657828Y-122672851D01*
X154204609Y-122370019D01*
X153670000Y-122263679D01*
X153135391Y-122370019D01*
X152682172Y-122672851D01*
X152379340Y-123126070D01*
X152273000Y-123660679D01*
X152273000Y-124751321D01*
X152379340Y-125285930D01*
X152682172Y-125739149D01*
X153135391Y-126041981D01*
X153231006Y-126061000D01*
X149028994Y-126061000D01*
X149124609Y-126041981D01*
X149577828Y-125739149D01*
X149880660Y-125285930D01*
X149987000Y-124751321D01*
X149987000Y-123660679D01*
X149880660Y-123126070D01*
X149577828Y-122672851D01*
X149124609Y-122370019D01*
X148590000Y-122263679D01*
X148055391Y-122370019D01*
X147602172Y-122672851D01*
X147310670Y-123109113D01*
X147292059Y-123046059D01*
X146948026Y-122620370D01*
X146467277Y-122358740D01*
X146393070Y-122343780D01*
X146177000Y-122466280D01*
X146177000Y-124079000D01*
X146197000Y-124079000D01*
X146197000Y-124333000D01*
X146177000Y-124333000D01*
X146177000Y-124353000D01*
X145923000Y-124353000D01*
X145923000Y-124333000D01*
X143637000Y-124333000D01*
X143637000Y-124353000D01*
X143383000Y-124353000D01*
X143383000Y-124333000D01*
X143363000Y-124333000D01*
X143363000Y-124079000D01*
X143383000Y-124079000D01*
X143383000Y-122466280D01*
X143637000Y-122466280D01*
X143637000Y-124079000D01*
X145923000Y-124079000D01*
X145923000Y-122466280D01*
X145706930Y-122343780D01*
X145632723Y-122358740D01*
X145151974Y-122620370D01*
X144807941Y-123046059D01*
X144780000Y-123140723D01*
X144752059Y-123046059D01*
X144408026Y-122620370D01*
X143927277Y-122358740D01*
X143853070Y-122343780D01*
X143637000Y-122466280D01*
X143383000Y-122466280D01*
X143166930Y-122343780D01*
X143092723Y-122358740D01*
X142611974Y-122620370D01*
X142267941Y-123046059D01*
X142249330Y-123109113D01*
X141957828Y-122672851D01*
X141730000Y-122520621D01*
X141730000Y-120456802D01*
X141808802Y-120378000D01*
X143311018Y-120378000D01*
X143443191Y-120575809D01*
X143653235Y-120716157D01*
X143901000Y-120765440D01*
X144874939Y-120765440D01*
X144923000Y-120775000D01*
X146692470Y-120775000D01*
X146899235Y-120913157D01*
X147147000Y-120962440D01*
X148697000Y-120962440D01*
X148944765Y-120913157D01*
X149154809Y-120772809D01*
X149295157Y-120562765D01*
X149344440Y-120315000D01*
X149344440Y-119715000D01*
X151899560Y-119715000D01*
X151899560Y-120315000D01*
X151948843Y-120562765D01*
X152089191Y-120772809D01*
X152299235Y-120913157D01*
X152547000Y-120962440D01*
X154097000Y-120962440D01*
X154344765Y-120913157D01*
X154551530Y-120775000D01*
X155321000Y-120775000D01*
X155369061Y-120765440D01*
X156581000Y-120765440D01*
X156828765Y-120716157D01*
X157038809Y-120575809D01*
X157170982Y-120378000D01*
X159782000Y-120378000D01*
X160072839Y-120320148D01*
X160319401Y-120155401D01*
X160908659Y-119566143D01*
X166687115Y-119566143D01*
X167024758Y-120383300D01*
X167649411Y-121009045D01*
X168465978Y-121348113D01*
X169350143Y-121348885D01*
X170167300Y-121011242D01*
X170793045Y-120386589D01*
X171132113Y-119570022D01*
X171132885Y-118685857D01*
X170795242Y-117868700D01*
X170170589Y-117242955D01*
X169354022Y-116903887D01*
X168469857Y-116903115D01*
X167652700Y-117240758D01*
X167026955Y-117865411D01*
X166687887Y-118681978D01*
X166687115Y-119566143D01*
X160908659Y-119566143D01*
X161303401Y-119171401D01*
X161468148Y-118924839D01*
X161526000Y-118634000D01*
X161526000Y-118054982D01*
X161723809Y-117922809D01*
X161864157Y-117712765D01*
X161913440Y-117465000D01*
X161913440Y-116215000D01*
X161864157Y-115967235D01*
X161723809Y-115757191D01*
X161623221Y-115689979D01*
X170747626Y-115689979D01*
X170929373Y-116027449D01*
X171785275Y-116367460D01*
X172706142Y-116354050D01*
X173494627Y-116027449D01*
X173676374Y-115689979D01*
X178367626Y-115689979D01*
X178549373Y-116027449D01*
X179405275Y-116367460D01*
X180326142Y-116354050D01*
X181114627Y-116027449D01*
X181296374Y-115689979D01*
X179832000Y-114225605D01*
X178367626Y-115689979D01*
X173676374Y-115689979D01*
X172212000Y-114225605D01*
X170747626Y-115689979D01*
X161623221Y-115689979D01*
X161526000Y-115625018D01*
X161526000Y-114752982D01*
X161723809Y-114620809D01*
X161864157Y-114410765D01*
X161913440Y-114163000D01*
X161913440Y-113619275D01*
X169890540Y-113619275D01*
X169903950Y-114540142D01*
X170230551Y-115328627D01*
X170568021Y-115510374D01*
X172032395Y-114046000D01*
X172391605Y-114046000D01*
X173855979Y-115510374D01*
X174193449Y-115328627D01*
X174533460Y-114472725D01*
X174521032Y-113619275D01*
X177510540Y-113619275D01*
X177523950Y-114540142D01*
X177850551Y-115328627D01*
X178188021Y-115510374D01*
X179652395Y-114046000D01*
X180011605Y-114046000D01*
X181475979Y-115510374D01*
X181813449Y-115328627D01*
X182153460Y-114472725D01*
X182140050Y-113551858D01*
X181813449Y-112763373D01*
X181475979Y-112581626D01*
X180011605Y-114046000D01*
X179652395Y-114046000D01*
X178188021Y-112581626D01*
X177850551Y-112763373D01*
X177510540Y-113619275D01*
X174521032Y-113619275D01*
X174520050Y-113551858D01*
X174193449Y-112763373D01*
X173855979Y-112581626D01*
X172391605Y-114046000D01*
X172032395Y-114046000D01*
X170568021Y-112581626D01*
X170230551Y-112763373D01*
X169890540Y-113619275D01*
X161913440Y-113619275D01*
X161913440Y-112913000D01*
X161864157Y-112665235D01*
X161723809Y-112455191D01*
X161660000Y-112412555D01*
X161660000Y-112402021D01*
X170747626Y-112402021D01*
X172212000Y-113866395D01*
X173676374Y-112402021D01*
X178367626Y-112402021D01*
X179832000Y-113866395D01*
X181296374Y-112402021D01*
X181114627Y-112064551D01*
X180258725Y-111724540D01*
X179337858Y-111737950D01*
X178549373Y-112064551D01*
X178367626Y-112402021D01*
X173676374Y-112402021D01*
X173494627Y-112064551D01*
X172638725Y-111724540D01*
X171717858Y-111737950D01*
X170929373Y-112064551D01*
X170747626Y-112402021D01*
X161660000Y-112402021D01*
X161660000Y-111762669D01*
X161697765Y-111755157D01*
X161907809Y-111614809D01*
X162048157Y-111404765D01*
X162097440Y-111157000D01*
X162097440Y-111067000D01*
X162993536Y-111067000D01*
X163001843Y-111108765D01*
X163142191Y-111318809D01*
X163352235Y-111459157D01*
X163600000Y-111508440D01*
X164600000Y-111508440D01*
X164847765Y-111459157D01*
X165057809Y-111318809D01*
X165100000Y-111255666D01*
X165142191Y-111318809D01*
X165352235Y-111459157D01*
X165600000Y-111508440D01*
X166600000Y-111508440D01*
X166847765Y-111459157D01*
X167057809Y-111318809D01*
X167198157Y-111108765D01*
X167243323Y-110881700D01*
X167463167Y-110881700D01*
X167494611Y-110928759D01*
X167704655Y-111069107D01*
X167952420Y-111118390D01*
X168851580Y-111118390D01*
X169099345Y-111069107D01*
X169208757Y-110996000D01*
X174464163Y-110996000D01*
X174554522Y-111214686D01*
X175040754Y-111701768D01*
X175676372Y-111965699D01*
X176364609Y-111966300D01*
X177000686Y-111703478D01*
X177487768Y-111217246D01*
X177751699Y-110581628D01*
X177752300Y-109893391D01*
X177489478Y-109257314D01*
X177003246Y-108770232D01*
X176367628Y-108506301D01*
X175679391Y-108505700D01*
X175043314Y-108768522D01*
X174556232Y-109254754D01*
X174464363Y-109476000D01*
X169417206Y-109476000D01*
X169415870Y-109474000D01*
X169449737Y-109423315D01*
X169499020Y-109175550D01*
X169499020Y-108477050D01*
X169449737Y-108229285D01*
X169343292Y-108069979D01*
X170747626Y-108069979D01*
X170929373Y-108407449D01*
X171785275Y-108747460D01*
X172706142Y-108734050D01*
X173494627Y-108407449D01*
X173676374Y-108069979D01*
X178367626Y-108069979D01*
X178549373Y-108407449D01*
X179405275Y-108747460D01*
X180326142Y-108734050D01*
X181114627Y-108407449D01*
X181296374Y-108069979D01*
X179832000Y-106605605D01*
X178367626Y-108069979D01*
X173676374Y-108069979D01*
X172212000Y-106605605D01*
X170747626Y-108069979D01*
X169343292Y-108069979D01*
X169309389Y-108019241D01*
X169162000Y-107920758D01*
X169162000Y-105999275D01*
X169890540Y-105999275D01*
X169903950Y-106920142D01*
X170230551Y-107708627D01*
X170568021Y-107890374D01*
X172032395Y-106426000D01*
X172391605Y-106426000D01*
X173855979Y-107890374D01*
X174193449Y-107708627D01*
X174533460Y-106852725D01*
X174521032Y-105999275D01*
X177510540Y-105999275D01*
X177523950Y-106920142D01*
X177850551Y-107708627D01*
X178188021Y-107890374D01*
X179652395Y-106426000D01*
X180011605Y-106426000D01*
X181475979Y-107890374D01*
X181813449Y-107708627D01*
X182153460Y-106852725D01*
X182140050Y-105931858D01*
X181813449Y-105143373D01*
X181475979Y-104961626D01*
X180011605Y-106426000D01*
X179652395Y-106426000D01*
X178188021Y-104961626D01*
X177850551Y-105143373D01*
X177510540Y-105999275D01*
X174521032Y-105999275D01*
X174520050Y-105931858D01*
X174193449Y-105143373D01*
X173855979Y-104961626D01*
X172391605Y-106426000D01*
X172032395Y-106426000D01*
X170568021Y-104961626D01*
X170230551Y-105143373D01*
X169890540Y-105999275D01*
X169162000Y-105999275D01*
X169162000Y-104782021D01*
X170747626Y-104782021D01*
X172212000Y-106246395D01*
X173676374Y-104782021D01*
X178367626Y-104782021D01*
X179832000Y-106246395D01*
X181296374Y-104782021D01*
X181114627Y-104444551D01*
X180258725Y-104104540D01*
X179337858Y-104117950D01*
X178549373Y-104444551D01*
X178367626Y-104782021D01*
X173676374Y-104782021D01*
X173494627Y-104444551D01*
X172638725Y-104104540D01*
X171717858Y-104117950D01*
X170929373Y-104444551D01*
X170747626Y-104782021D01*
X169162000Y-104782021D01*
X169162000Y-104648000D01*
X169121531Y-104444551D01*
X169104148Y-104357160D01*
X168939401Y-104110599D01*
X167669401Y-102840599D01*
X167422839Y-102675852D01*
X167132000Y-102618000D01*
X166949771Y-102618000D01*
X167160303Y-102531010D01*
X167553629Y-102138370D01*
X167639949Y-101930488D01*
X167724990Y-102136303D01*
X168117630Y-102529629D01*
X168630900Y-102742757D01*
X169186661Y-102743242D01*
X169700303Y-102531010D01*
X170093629Y-102138370D01*
X170306757Y-101625100D01*
X170307242Y-101069339D01*
X170095010Y-100555697D01*
X169702370Y-100162371D01*
X169494488Y-100076051D01*
X169700303Y-99991010D01*
X170093629Y-99598370D01*
X170306757Y-99085100D01*
X170307242Y-98529339D01*
X170095010Y-98015697D01*
X169702370Y-97622371D01*
X169494488Y-97536051D01*
X169700303Y-97451010D01*
X170093629Y-97058370D01*
X170306757Y-96545100D01*
X170307242Y-95989339D01*
X170095010Y-95475697D01*
X169702370Y-95082371D01*
X169189100Y-94869243D01*
X168633339Y-94868758D01*
X168119697Y-95080990D01*
X167726371Y-95473630D01*
X167640051Y-95681512D01*
X167555010Y-95475697D01*
X167162370Y-95082371D01*
X166649100Y-94869243D01*
X166093339Y-94868758D01*
X165579697Y-95080990D01*
X165186371Y-95473630D01*
X165098000Y-95686451D01*
X165098000Y-91626143D01*
X166687115Y-91626143D01*
X167024758Y-92443300D01*
X167649411Y-93069045D01*
X168465978Y-93408113D01*
X169350143Y-93408885D01*
X170167300Y-93071242D01*
X170793045Y-92446589D01*
X171132113Y-91630022D01*
X171132885Y-90745857D01*
X170795242Y-89928700D01*
X170170589Y-89302955D01*
X169354022Y-88963887D01*
X168469857Y-88963115D01*
X167652700Y-89300758D01*
X167026955Y-89925411D01*
X166687887Y-90741978D01*
X166687115Y-91626143D01*
X165098000Y-91626143D01*
X165098000Y-88138000D01*
X165040148Y-87847161D01*
X165040148Y-87847160D01*
X164875401Y-87600599D01*
X164245802Y-86971000D01*
X164560250Y-86971000D01*
X164719000Y-86812250D01*
X164719000Y-85963000D01*
X164973000Y-85963000D01*
X164973000Y-86812250D01*
X165131750Y-86971000D01*
X165597310Y-86971000D01*
X165830699Y-86874327D01*
X166009327Y-86695698D01*
X166106000Y-86462309D01*
X166106000Y-86121750D01*
X165947250Y-85963000D01*
X164973000Y-85963000D01*
X164719000Y-85963000D01*
X163744750Y-85963000D01*
X163615120Y-86092630D01*
X163598327Y-86075808D01*
X163254799Y-85933162D01*
X162882833Y-85932838D01*
X162539057Y-86074883D01*
X162275808Y-86337673D01*
X162133162Y-86681201D01*
X162132838Y-87053167D01*
X162274883Y-87396943D01*
X162537673Y-87660192D01*
X162881201Y-87802838D01*
X162928077Y-87802879D01*
X163578000Y-88452802D01*
X163578000Y-101346000D01*
X163635852Y-101636839D01*
X163800599Y-101883401D01*
X164085324Y-102168126D01*
X163964309Y-102118000D01*
X163623750Y-102118000D01*
X163465000Y-102276750D01*
X163465000Y-103251000D01*
X163485000Y-103251000D01*
X163485000Y-103505000D01*
X163465000Y-103505000D01*
X163465000Y-104479250D01*
X163569250Y-104583500D01*
X163449000Y-104703750D01*
X163449000Y-105553000D01*
X164423250Y-105553000D01*
X164582000Y-105394250D01*
X164582000Y-105053691D01*
X164485327Y-104820302D01*
X164306699Y-104641673D01*
X164131070Y-104568925D01*
X164197698Y-104541327D01*
X164339346Y-104399680D01*
X164380191Y-104460809D01*
X164590235Y-104601157D01*
X164838000Y-104650440D01*
X165838000Y-104650440D01*
X166085765Y-104601157D01*
X166295809Y-104460809D01*
X166436157Y-104250765D01*
X166458587Y-104138000D01*
X166817198Y-104138000D01*
X167642000Y-104962802D01*
X167642000Y-107920758D01*
X167494611Y-108019241D01*
X167354263Y-108229285D01*
X167304980Y-108477050D01*
X167304980Y-109175550D01*
X167342007Y-109361700D01*
X167197131Y-109361700D01*
X167057809Y-109153191D01*
X166847765Y-109012843D01*
X166600000Y-108963560D01*
X165600000Y-108963560D01*
X165352235Y-109012843D01*
X165142191Y-109153191D01*
X165100000Y-109216334D01*
X165057809Y-109153191D01*
X164847765Y-109012843D01*
X164600000Y-108963560D01*
X164031961Y-108963560D01*
X164063653Y-108804237D01*
X164194765Y-108778157D01*
X164404809Y-108637809D01*
X164545157Y-108427765D01*
X164594440Y-108180000D01*
X164594440Y-107180000D01*
X164545157Y-106932235D01*
X164404809Y-106722191D01*
X164343680Y-106681346D01*
X164485327Y-106539698D01*
X164582000Y-106306309D01*
X164582000Y-105965750D01*
X164423250Y-105807000D01*
X163449000Y-105807000D01*
X163449000Y-105827000D01*
X163195000Y-105827000D01*
X163195000Y-105807000D01*
X162220750Y-105807000D01*
X162062000Y-105965750D01*
X162062000Y-106306309D01*
X162158673Y-106539698D01*
X162300320Y-106681346D01*
X162239191Y-106722191D01*
X162098843Y-106932235D01*
X162049560Y-107180000D01*
X162049560Y-108180000D01*
X162098843Y-108427765D01*
X162239191Y-108637809D01*
X162288465Y-108670733D01*
X162097440Y-108861758D01*
X162097440Y-108807000D01*
X162048157Y-108559235D01*
X161907809Y-108349191D01*
X161697765Y-108208843D01*
X161660000Y-108201331D01*
X161660000Y-107560000D01*
X161602148Y-107269161D01*
X161437401Y-107022599D01*
X161373314Y-106958512D01*
X161405440Y-106797000D01*
X161405440Y-105547000D01*
X161356157Y-105299235D01*
X161215809Y-105089191D01*
X161162680Y-105053691D01*
X162062000Y-105053691D01*
X162062000Y-105394250D01*
X162220750Y-105553000D01*
X163195000Y-105553000D01*
X163195000Y-104703750D01*
X163090750Y-104599500D01*
X163211000Y-104479250D01*
X163211000Y-103505000D01*
X162361750Y-103505000D01*
X162203000Y-103663750D01*
X162203000Y-104129310D01*
X162299673Y-104362699D01*
X162478302Y-104541327D01*
X162528930Y-104562298D01*
X162337301Y-104641673D01*
X162158673Y-104820302D01*
X162062000Y-105053691D01*
X161162680Y-105053691D01*
X161018000Y-104957018D01*
X161018000Y-104846982D01*
X161215809Y-104714809D01*
X161356157Y-104504765D01*
X161405440Y-104257000D01*
X161405440Y-103007000D01*
X161356157Y-102759235D01*
X161267593Y-102626690D01*
X162203000Y-102626690D01*
X162203000Y-103092250D01*
X162361750Y-103251000D01*
X163211000Y-103251000D01*
X163211000Y-102276750D01*
X163052250Y-102118000D01*
X162711691Y-102118000D01*
X162478302Y-102214673D01*
X162299673Y-102393301D01*
X162203000Y-102626690D01*
X161267593Y-102626690D01*
X161215809Y-102549191D01*
X161005765Y-102408843D01*
X160758000Y-102359560D01*
X159758000Y-102359560D01*
X159510235Y-102408843D01*
X159300191Y-102549191D01*
X159259346Y-102610320D01*
X159117698Y-102468673D01*
X158884309Y-102372000D01*
X158543750Y-102372000D01*
X158385000Y-102530750D01*
X158385000Y-103505000D01*
X158405000Y-103505000D01*
X158405000Y-103759000D01*
X158385000Y-103759000D01*
X158385000Y-104733250D01*
X158543750Y-104892000D01*
X158884309Y-104892000D01*
X159117698Y-104795327D01*
X159259346Y-104653680D01*
X159300191Y-104714809D01*
X159498000Y-104846982D01*
X159498000Y-104957018D01*
X159300191Y-105089191D01*
X159259346Y-105150320D01*
X159117698Y-105008673D01*
X158884309Y-104912000D01*
X158543750Y-104912000D01*
X158385000Y-105070750D01*
X158385000Y-106045000D01*
X158405000Y-106045000D01*
X158405000Y-106299000D01*
X158385000Y-106299000D01*
X158385000Y-107273250D01*
X158543750Y-107432000D01*
X158884309Y-107432000D01*
X159117698Y-107335327D01*
X159259346Y-107193680D01*
X159300191Y-107254809D01*
X159510235Y-107395157D01*
X159706420Y-107434180D01*
X159720599Y-107455401D01*
X160140000Y-107874802D01*
X160140000Y-108201331D01*
X160102235Y-108208843D01*
X160045129Y-108247000D01*
X159979000Y-108247000D01*
X159688161Y-108304852D01*
X159649402Y-108330750D01*
X159441599Y-108469599D01*
X159228599Y-108682599D01*
X159063852Y-108929161D01*
X159006000Y-109220000D01*
X159006000Y-110744000D01*
X159063852Y-111034839D01*
X159228599Y-111281401D01*
X159441599Y-111494401D01*
X159688161Y-111659148D01*
X159979000Y-111717000D01*
X160045129Y-111717000D01*
X160102235Y-111755157D01*
X160140000Y-111762669D01*
X160140000Y-112290623D01*
X160018235Y-112314843D01*
X159808191Y-112455191D01*
X159767346Y-112516320D01*
X159625698Y-112374673D01*
X159392309Y-112278000D01*
X159051750Y-112278000D01*
X158893000Y-112436750D01*
X158893000Y-113411000D01*
X158913000Y-113411000D01*
X158913000Y-113665000D01*
X158893000Y-113665000D01*
X158893000Y-114639250D01*
X159051750Y-114798000D01*
X159392309Y-114798000D01*
X159625698Y-114701327D01*
X159767346Y-114559680D01*
X159808191Y-114620809D01*
X160006000Y-114752982D01*
X160006000Y-115625018D01*
X159808191Y-115757191D01*
X159767346Y-115818320D01*
X159625698Y-115676673D01*
X159392309Y-115580000D01*
X159051750Y-115580000D01*
X158893000Y-115738750D01*
X158893000Y-116713000D01*
X158913000Y-116713000D01*
X158913000Y-116967000D01*
X158893000Y-116967000D01*
X158893000Y-117941250D01*
X159051750Y-118100000D01*
X159392309Y-118100000D01*
X159625698Y-118003327D01*
X159767346Y-117861680D01*
X159808191Y-117922809D01*
X160006000Y-118054982D01*
X160006000Y-118319198D01*
X159467198Y-118858000D01*
X157170982Y-118858000D01*
X157038809Y-118660191D01*
X156977680Y-118619346D01*
X157119327Y-118477698D01*
X157216000Y-118244309D01*
X157216000Y-117903750D01*
X157057250Y-117745000D01*
X156083000Y-117745000D01*
X156083000Y-117765000D01*
X155829000Y-117765000D01*
X155829000Y-117745000D01*
X154854750Y-117745000D01*
X154732000Y-117867750D01*
X154732000Y-117760750D01*
X154573250Y-117602000D01*
X153449000Y-117602000D01*
X153449000Y-118618000D01*
X154573250Y-118618000D01*
X154732000Y-118459250D01*
X154732000Y-118331221D01*
X154792673Y-118477698D01*
X154934320Y-118619346D01*
X154873191Y-118660191D01*
X154732843Y-118870235D01*
X154706072Y-119004822D01*
X154573250Y-118872000D01*
X153449000Y-118872000D01*
X153449000Y-118892000D01*
X153195000Y-118892000D01*
X153195000Y-118872000D01*
X152070750Y-118872000D01*
X151912000Y-119030750D01*
X151912000Y-119171310D01*
X152001768Y-119388028D01*
X151948843Y-119467235D01*
X151899560Y-119715000D01*
X149344440Y-119715000D01*
X149295157Y-119467235D01*
X149242232Y-119388028D01*
X149332000Y-119171310D01*
X149332000Y-119030750D01*
X149173250Y-118872000D01*
X148049000Y-118872000D01*
X148049000Y-118892000D01*
X147795000Y-118892000D01*
X147795000Y-118872000D01*
X146670750Y-118872000D01*
X146512000Y-119030750D01*
X146512000Y-119171310D01*
X146546666Y-119255000D01*
X145798440Y-119255000D01*
X145798440Y-119118000D01*
X145749157Y-118870235D01*
X145608809Y-118660191D01*
X145547680Y-118619346D01*
X145689327Y-118477698D01*
X145786000Y-118244309D01*
X145786000Y-117903750D01*
X145643000Y-117760750D01*
X146512000Y-117760750D01*
X146512000Y-117901310D01*
X146598442Y-118110000D01*
X146512000Y-118318690D01*
X146512000Y-118459250D01*
X146670750Y-118618000D01*
X147795000Y-118618000D01*
X147795000Y-117602000D01*
X148049000Y-117602000D01*
X148049000Y-118618000D01*
X149173250Y-118618000D01*
X149332000Y-118459250D01*
X149332000Y-118318690D01*
X149245558Y-118110000D01*
X149332000Y-117901310D01*
X149332000Y-117760750D01*
X151912000Y-117760750D01*
X151912000Y-117901310D01*
X151998442Y-118110000D01*
X151912000Y-118318690D01*
X151912000Y-118459250D01*
X152070750Y-118618000D01*
X153195000Y-118618000D01*
X153195000Y-117602000D01*
X152070750Y-117602000D01*
X151912000Y-117760750D01*
X149332000Y-117760750D01*
X149173250Y-117602000D01*
X148049000Y-117602000D01*
X147795000Y-117602000D01*
X146670750Y-117602000D01*
X146512000Y-117760750D01*
X145643000Y-117760750D01*
X145627250Y-117745000D01*
X144653000Y-117745000D01*
X144653000Y-117765000D01*
X144399000Y-117765000D01*
X144399000Y-117745000D01*
X143424750Y-117745000D01*
X143266000Y-117903750D01*
X143266000Y-118244309D01*
X143362673Y-118477698D01*
X143504320Y-118619346D01*
X143443191Y-118660191D01*
X143311018Y-118858000D01*
X142492000Y-118858000D01*
X142492000Y-116991691D01*
X143266000Y-116991691D01*
X143266000Y-117332250D01*
X143424750Y-117491000D01*
X144399000Y-117491000D01*
X144399000Y-116641750D01*
X144653000Y-116641750D01*
X144653000Y-117491000D01*
X145627250Y-117491000D01*
X145786000Y-117332250D01*
X145786000Y-116991691D01*
X145689327Y-116758302D01*
X145510699Y-116579673D01*
X145296021Y-116490750D01*
X146512000Y-116490750D01*
X146512000Y-116631310D01*
X146598442Y-116840000D01*
X146512000Y-117048690D01*
X146512000Y-117189250D01*
X146670750Y-117348000D01*
X147795000Y-117348000D01*
X147795000Y-116332000D01*
X148049000Y-116332000D01*
X148049000Y-117348000D01*
X149173250Y-117348000D01*
X149332000Y-117189250D01*
X149332000Y-117048690D01*
X149245558Y-116840000D01*
X149332000Y-116631310D01*
X149332000Y-116490750D01*
X149173250Y-116332000D01*
X148049000Y-116332000D01*
X147795000Y-116332000D01*
X146670750Y-116332000D01*
X146512000Y-116490750D01*
X145296021Y-116490750D01*
X145277310Y-116483000D01*
X144811750Y-116483000D01*
X144653000Y-116641750D01*
X144399000Y-116641750D01*
X144240250Y-116483000D01*
X143774690Y-116483000D01*
X143541301Y-116579673D01*
X143362673Y-116758302D01*
X143266000Y-116991691D01*
X142492000Y-116991691D01*
X142492000Y-115778690D01*
X146512000Y-115778690D01*
X146512000Y-115919250D01*
X146670750Y-116078000D01*
X147795000Y-116078000D01*
X147795000Y-115428750D01*
X148049000Y-115428750D01*
X148049000Y-116078000D01*
X149173250Y-116078000D01*
X149332000Y-115919250D01*
X149332000Y-115905000D01*
X151899560Y-115905000D01*
X151899560Y-116505000D01*
X151948843Y-116752765D01*
X152001768Y-116831972D01*
X151912000Y-117048690D01*
X151912000Y-117189250D01*
X152070750Y-117348000D01*
X153195000Y-117348000D01*
X153195000Y-117328000D01*
X153449000Y-117328000D01*
X153449000Y-117348000D01*
X154573250Y-117348000D01*
X154696000Y-117225250D01*
X154696000Y-117332250D01*
X154854750Y-117491000D01*
X155829000Y-117491000D01*
X155829000Y-116641750D01*
X156083000Y-116641750D01*
X156083000Y-117491000D01*
X157057250Y-117491000D01*
X157216000Y-117332250D01*
X157216000Y-117125750D01*
X157631000Y-117125750D01*
X157631000Y-117591310D01*
X157727673Y-117824699D01*
X157906302Y-118003327D01*
X158139691Y-118100000D01*
X158480250Y-118100000D01*
X158639000Y-117941250D01*
X158639000Y-116967000D01*
X157789750Y-116967000D01*
X157631000Y-117125750D01*
X157216000Y-117125750D01*
X157216000Y-116991691D01*
X157119327Y-116758302D01*
X156940699Y-116579673D01*
X156707310Y-116483000D01*
X156241750Y-116483000D01*
X156083000Y-116641750D01*
X155829000Y-116641750D01*
X155670250Y-116483000D01*
X155204690Y-116483000D01*
X154971301Y-116579673D01*
X154792673Y-116758302D01*
X154702195Y-116976735D01*
X154642232Y-116831972D01*
X154695157Y-116752765D01*
X154744440Y-116505000D01*
X154744440Y-116088690D01*
X157631000Y-116088690D01*
X157631000Y-116554250D01*
X157789750Y-116713000D01*
X158639000Y-116713000D01*
X158639000Y-115738750D01*
X158480250Y-115580000D01*
X158139691Y-115580000D01*
X157906302Y-115676673D01*
X157727673Y-115855301D01*
X157631000Y-116088690D01*
X154744440Y-116088690D01*
X154744440Y-115905000D01*
X154695157Y-115657235D01*
X154554809Y-115447191D01*
X154344765Y-115306843D01*
X154097000Y-115257560D01*
X152547000Y-115257560D01*
X152299235Y-115306843D01*
X152089191Y-115447191D01*
X151948843Y-115657235D01*
X151899560Y-115905000D01*
X149332000Y-115905000D01*
X149332000Y-115778690D01*
X149235327Y-115545301D01*
X149056698Y-115366673D01*
X148823309Y-115270000D01*
X148207750Y-115270000D01*
X148049000Y-115428750D01*
X147795000Y-115428750D01*
X147636250Y-115270000D01*
X147020691Y-115270000D01*
X146787302Y-115366673D01*
X146608673Y-115545301D01*
X146512000Y-115778690D01*
X142492000Y-115778690D01*
X142492000Y-113846463D01*
X142514752Y-113823750D01*
X157631000Y-113823750D01*
X157631000Y-114289310D01*
X157727673Y-114522699D01*
X157906302Y-114701327D01*
X158139691Y-114798000D01*
X158480250Y-114798000D01*
X158639000Y-114639250D01*
X158639000Y-113665000D01*
X157789750Y-113665000D01*
X157631000Y-113823750D01*
X142514752Y-113823750D01*
X142524192Y-113814327D01*
X142666838Y-113470799D01*
X142667021Y-113260327D01*
X142743000Y-113275440D01*
X143393000Y-113275440D01*
X143530631Y-113248064D01*
X143566690Y-113263000D01*
X143732250Y-113263000D01*
X143891000Y-113104250D01*
X143891000Y-113025659D01*
X143991157Y-112875765D01*
X144018000Y-112740815D01*
X144044843Y-112875765D01*
X144145000Y-113025659D01*
X144145000Y-113104250D01*
X144303750Y-113263000D01*
X144469310Y-113263000D01*
X144505369Y-113248064D01*
X144643000Y-113275440D01*
X145293000Y-113275440D01*
X145540765Y-113226157D01*
X145750809Y-113085809D01*
X145891157Y-112875765D01*
X145902217Y-112820163D01*
X146002839Y-112800148D01*
X146249401Y-112635401D01*
X146347052Y-112537750D01*
X146822000Y-112537750D01*
X146822000Y-112878309D01*
X146918673Y-113111698D01*
X147097301Y-113290327D01*
X147330690Y-113387000D01*
X147796250Y-113387000D01*
X147955000Y-113228250D01*
X147955000Y-112379000D01*
X148209000Y-112379000D01*
X148209000Y-113228250D01*
X148367750Y-113387000D01*
X148833310Y-113387000D01*
X149066699Y-113290327D01*
X149245327Y-113111698D01*
X149342000Y-112878309D01*
X149342000Y-112786690D01*
X157631000Y-112786690D01*
X157631000Y-113252250D01*
X157789750Y-113411000D01*
X158639000Y-113411000D01*
X158639000Y-112436750D01*
X158480250Y-112278000D01*
X158139691Y-112278000D01*
X157906302Y-112374673D01*
X157727673Y-112553301D01*
X157631000Y-112786690D01*
X149342000Y-112786690D01*
X149342000Y-112537750D01*
X149183250Y-112379000D01*
X148209000Y-112379000D01*
X147955000Y-112379000D01*
X146980750Y-112379000D01*
X146822000Y-112537750D01*
X146347052Y-112537750D01*
X146587401Y-112297401D01*
X146752148Y-112050840D01*
X146810000Y-111760000D01*
X146810000Y-111058802D01*
X146856802Y-111012000D01*
X146867018Y-111012000D01*
X146999191Y-111209809D01*
X147060320Y-111250654D01*
X146918673Y-111392302D01*
X146822000Y-111625691D01*
X146822000Y-111966250D01*
X146980750Y-112125000D01*
X147955000Y-112125000D01*
X147955000Y-112105000D01*
X148209000Y-112105000D01*
X148209000Y-112125000D01*
X149183250Y-112125000D01*
X149342000Y-111966250D01*
X149342000Y-111625691D01*
X149245327Y-111392302D01*
X149103680Y-111250654D01*
X149164809Y-111209809D01*
X149305157Y-110999765D01*
X149305906Y-110996000D01*
X150232557Y-110996000D01*
X150249903Y-111083205D01*
X150390251Y-111293249D01*
X150600295Y-111433597D01*
X150848060Y-111482880D01*
X151645620Y-111482880D01*
X151893385Y-111433597D01*
X152103429Y-111293249D01*
X152146000Y-111229537D01*
X152188571Y-111293249D01*
X152398615Y-111433597D01*
X152646380Y-111482880D01*
X153443940Y-111482880D01*
X153691705Y-111433597D01*
X153901749Y-111293249D01*
X154042097Y-111083205D01*
X154045320Y-111067000D01*
X155402560Y-111067000D01*
X155402560Y-111157000D01*
X155451843Y-111404765D01*
X155592191Y-111614809D01*
X155802235Y-111755157D01*
X156050000Y-111804440D01*
X157150000Y-111804440D01*
X157397765Y-111755157D01*
X157607809Y-111614809D01*
X157748157Y-111404765D01*
X157797440Y-111157000D01*
X157797440Y-110757000D01*
X157772576Y-110632000D01*
X157797440Y-110507000D01*
X157797440Y-110107000D01*
X157776783Y-110003148D01*
X157785000Y-109983310D01*
X157785000Y-109915750D01*
X157753042Y-109883792D01*
X157748157Y-109859235D01*
X157607809Y-109649191D01*
X157606625Y-109648400D01*
X157688327Y-109566699D01*
X157739080Y-109444170D01*
X157785000Y-109398250D01*
X157785000Y-109265750D01*
X157739080Y-109219830D01*
X157688327Y-109097301D01*
X157509698Y-108918673D01*
X157481517Y-108907000D01*
X157626250Y-108907000D01*
X157785000Y-108748250D01*
X157785000Y-108680690D01*
X157688327Y-108447301D01*
X157509698Y-108268673D01*
X157276309Y-108172000D01*
X156885750Y-108172000D01*
X156727000Y-108330750D01*
X156727000Y-108907000D01*
X156800750Y-108907000D01*
X156727000Y-108980750D01*
X156727000Y-109154000D01*
X156473000Y-109154000D01*
X156473000Y-108980750D01*
X156399250Y-108907000D01*
X156473000Y-108907000D01*
X156473000Y-108330750D01*
X156314250Y-108172000D01*
X155923691Y-108172000D01*
X155690302Y-108268673D01*
X155511673Y-108447301D01*
X155415000Y-108680690D01*
X155415000Y-108748250D01*
X155573750Y-108907000D01*
X155718483Y-108907000D01*
X155690302Y-108918673D01*
X155511673Y-109097301D01*
X155460920Y-109219830D01*
X155415000Y-109265750D01*
X155415000Y-109398250D01*
X155460920Y-109444170D01*
X155496471Y-109529998D01*
X155415000Y-109529998D01*
X155415000Y-109547000D01*
X154073566Y-109547000D01*
X154042097Y-109388795D01*
X153901749Y-109178751D01*
X153691705Y-109038403D01*
X153443940Y-108989120D01*
X152646380Y-108989120D01*
X152398615Y-109038403D01*
X152188571Y-109178751D01*
X152146000Y-109242463D01*
X152103429Y-109178751D01*
X151893385Y-109038403D01*
X151645620Y-108989120D01*
X150848060Y-108989120D01*
X150600295Y-109038403D01*
X150390251Y-109178751D01*
X150249903Y-109388795D01*
X150232557Y-109476000D01*
X149286291Y-109476000D01*
X149164809Y-109294191D01*
X148954765Y-109153843D01*
X148707000Y-109104560D01*
X147457000Y-109104560D01*
X147209235Y-109153843D01*
X146999191Y-109294191D01*
X146867018Y-109492000D01*
X146542000Y-109492000D01*
X146251161Y-109549852D01*
X146004599Y-109714599D01*
X145940440Y-109778758D01*
X145940440Y-109368000D01*
X145891157Y-109120235D01*
X145750809Y-108910191D01*
X145540765Y-108769843D01*
X145293000Y-108720560D01*
X144643000Y-108720560D01*
X144395235Y-108769843D01*
X144185191Y-108910191D01*
X144044843Y-109120235D01*
X144018000Y-109255185D01*
X143991157Y-109120235D01*
X143850809Y-108910191D01*
X143778000Y-108861541D01*
X143778000Y-108656982D01*
X143975809Y-108524809D01*
X144016654Y-108463680D01*
X144158302Y-108605327D01*
X144391691Y-108702000D01*
X144732250Y-108702000D01*
X144891000Y-108543250D01*
X144891000Y-107569000D01*
X145145000Y-107569000D01*
X145145000Y-108543250D01*
X145303750Y-108702000D01*
X145644309Y-108702000D01*
X145877698Y-108605327D01*
X146056327Y-108426699D01*
X146153000Y-108193310D01*
X146153000Y-107727750D01*
X145994250Y-107569000D01*
X145145000Y-107569000D01*
X144891000Y-107569000D01*
X144871000Y-107569000D01*
X144871000Y-107315000D01*
X144891000Y-107315000D01*
X144891000Y-106340750D01*
X145145000Y-106340750D01*
X145145000Y-107315000D01*
X145994250Y-107315000D01*
X146153000Y-107156250D01*
X146153000Y-106690690D01*
X146056513Y-106457750D01*
X157123000Y-106457750D01*
X157123000Y-106923310D01*
X157219673Y-107156699D01*
X157398302Y-107335327D01*
X157631691Y-107432000D01*
X157972250Y-107432000D01*
X158131000Y-107273250D01*
X158131000Y-106299000D01*
X157281750Y-106299000D01*
X157123000Y-106457750D01*
X146056513Y-106457750D01*
X146056327Y-106457301D01*
X145877698Y-106278673D01*
X145644309Y-106182000D01*
X145303750Y-106182000D01*
X145145000Y-106340750D01*
X144891000Y-106340750D01*
X144732250Y-106182000D01*
X144391691Y-106182000D01*
X144158302Y-106278673D01*
X144016654Y-106420320D01*
X143975809Y-106359191D01*
X143765765Y-106218843D01*
X143518000Y-106169560D01*
X142518000Y-106169560D01*
X142270235Y-106218843D01*
X142060191Y-106359191D01*
X141919843Y-106569235D01*
X141876210Y-106788597D01*
X141702599Y-106904599D01*
X141194599Y-107412599D01*
X141029852Y-107659161D01*
X140972000Y-107950000D01*
X140972000Y-108403537D01*
X140939808Y-108435673D01*
X140797162Y-108779201D01*
X140797100Y-108850560D01*
X139583000Y-108850560D01*
X139335235Y-108899843D01*
X139125191Y-109040191D01*
X138993018Y-109238000D01*
X138822626Y-109238000D01*
X138802097Y-109134795D01*
X138661749Y-108924751D01*
X138451705Y-108784403D01*
X138203940Y-108735120D01*
X137406380Y-108735120D01*
X137158615Y-108784403D01*
X136948571Y-108924751D01*
X136906000Y-108988463D01*
X136863429Y-108924751D01*
X136766840Y-108860212D01*
X136766840Y-108574840D01*
X136708988Y-108284001D01*
X136544241Y-108037439D01*
X135900000Y-107393198D01*
X135900000Y-106585486D01*
X136113691Y-106674000D01*
X136354250Y-106674000D01*
X136513000Y-106515250D01*
X136513000Y-105791000D01*
X136767000Y-105791000D01*
X136767000Y-106515250D01*
X136925750Y-106674000D01*
X137166309Y-106674000D01*
X137399698Y-106577327D01*
X137578327Y-106398699D01*
X137675000Y-106165310D01*
X137675000Y-105949750D01*
X137516250Y-105791000D01*
X136767000Y-105791000D01*
X136513000Y-105791000D01*
X136493000Y-105791000D01*
X136493000Y-105537000D01*
X136513000Y-105537000D01*
X136513000Y-104812750D01*
X136767000Y-104812750D01*
X136767000Y-105537000D01*
X137516250Y-105537000D01*
X137632560Y-105420690D01*
X157123000Y-105420690D01*
X157123000Y-105886250D01*
X157281750Y-106045000D01*
X158131000Y-106045000D01*
X158131000Y-105070750D01*
X157972250Y-104912000D01*
X157631691Y-104912000D01*
X157398302Y-105008673D01*
X157219673Y-105187301D01*
X157123000Y-105420690D01*
X137632560Y-105420690D01*
X137675000Y-105378250D01*
X137675000Y-105162690D01*
X137578327Y-104929301D01*
X137399698Y-104750673D01*
X137166309Y-104654000D01*
X136925750Y-104654000D01*
X136767000Y-104812750D01*
X136513000Y-104812750D01*
X136354250Y-104654000D01*
X136113691Y-104654000D01*
X135888000Y-104747484D01*
X135888000Y-104541560D01*
X136025765Y-104514157D01*
X136235809Y-104373809D01*
X136376157Y-104163765D01*
X136425091Y-103917750D01*
X157123000Y-103917750D01*
X157123000Y-104383310D01*
X157219673Y-104616699D01*
X157398302Y-104795327D01*
X157631691Y-104892000D01*
X157972250Y-104892000D01*
X158131000Y-104733250D01*
X158131000Y-103759000D01*
X157281750Y-103759000D01*
X157123000Y-103917750D01*
X136425091Y-103917750D01*
X136425440Y-103916000D01*
X136425440Y-103216000D01*
X136376157Y-102968235D01*
X136317661Y-102880690D01*
X157123000Y-102880690D01*
X157123000Y-103346250D01*
X157281750Y-103505000D01*
X158131000Y-103505000D01*
X158131000Y-102530750D01*
X157972250Y-102372000D01*
X157631691Y-102372000D01*
X157398302Y-102468673D01*
X157219673Y-102647301D01*
X157123000Y-102880690D01*
X136317661Y-102880690D01*
X136235809Y-102758191D01*
X136025765Y-102617843D01*
X136016500Y-102616000D01*
X136025765Y-102614157D01*
X136235809Y-102473809D01*
X136376157Y-102263765D01*
X136425440Y-102016000D01*
X136425440Y-101316000D01*
X136376157Y-101068235D01*
X136235809Y-100858191D01*
X136025765Y-100717843D01*
X135857439Y-100684361D01*
X135830148Y-100547160D01*
X135665401Y-100300599D01*
X135446000Y-100081198D01*
X135446000Y-99945754D01*
X135493809Y-99913809D01*
X135634157Y-99703765D01*
X135639721Y-99675791D01*
X135697673Y-99815699D01*
X135876302Y-99994327D01*
X136109691Y-100091000D01*
X136300250Y-100091000D01*
X136459000Y-99932250D01*
X136459000Y-98933000D01*
X136713000Y-98933000D01*
X136713000Y-99932250D01*
X136871750Y-100091000D01*
X137062309Y-100091000D01*
X137295698Y-99994327D01*
X137474327Y-99815699D01*
X137571000Y-99582310D01*
X137571000Y-99091750D01*
X137412250Y-98933000D01*
X136713000Y-98933000D01*
X136459000Y-98933000D01*
X136439000Y-98933000D01*
X136439000Y-98699000D01*
X151828560Y-98699000D01*
X151828560Y-99929000D01*
X151877843Y-100176765D01*
X152018191Y-100386809D01*
X152228235Y-100527157D01*
X152476000Y-100576440D01*
X154276000Y-100576440D01*
X154523765Y-100527157D01*
X154687036Y-100418062D01*
X154736302Y-100467327D01*
X154969691Y-100564000D01*
X155710250Y-100564000D01*
X155869000Y-100405250D01*
X155869000Y-99441000D01*
X156123000Y-99441000D01*
X156123000Y-100405250D01*
X156281750Y-100564000D01*
X157022309Y-100564000D01*
X157255698Y-100467327D01*
X157434327Y-100288699D01*
X157531000Y-100055310D01*
X157531000Y-99599750D01*
X157372250Y-99441000D01*
X156123000Y-99441000D01*
X155869000Y-99441000D01*
X155849000Y-99441000D01*
X155849000Y-99187000D01*
X155869000Y-99187000D01*
X155869000Y-98222750D01*
X156123000Y-98222750D01*
X156123000Y-99187000D01*
X157372250Y-99187000D01*
X157531000Y-99028250D01*
X157531000Y-98572690D01*
X157434327Y-98339301D01*
X157255698Y-98160673D01*
X157022309Y-98064000D01*
X156281750Y-98064000D01*
X156123000Y-98222750D01*
X155869000Y-98222750D01*
X155710250Y-98064000D01*
X154969691Y-98064000D01*
X154736302Y-98160673D01*
X154687036Y-98209938D01*
X154523765Y-98100843D01*
X154448859Y-98085943D01*
X155223401Y-97311401D01*
X155388148Y-97064839D01*
X155409167Y-96959167D01*
X156036838Y-96959167D01*
X156178883Y-97302943D01*
X156441673Y-97566192D01*
X156785201Y-97708838D01*
X157157167Y-97709162D01*
X157500943Y-97567117D01*
X157534118Y-97534000D01*
X161036000Y-97534000D01*
X161326839Y-97476148D01*
X161573401Y-97311401D01*
X161827401Y-97057401D01*
X161992148Y-96810840D01*
X162050000Y-96520000D01*
X162050000Y-86160463D01*
X162082192Y-86128327D01*
X162224838Y-85784799D01*
X162225162Y-85412833D01*
X162083117Y-85069057D01*
X161820327Y-84805808D01*
X161476799Y-84663162D01*
X161104833Y-84662838D01*
X160761057Y-84804883D01*
X160497808Y-85067673D01*
X160355162Y-85411201D01*
X160354838Y-85783167D01*
X160496883Y-86126943D01*
X160530000Y-86160118D01*
X160530000Y-96014000D01*
X157534463Y-96014000D01*
X157502327Y-95981808D01*
X157501441Y-95981440D01*
X157591000Y-95981440D01*
X157838765Y-95932157D01*
X158048809Y-95791809D01*
X158189157Y-95581765D01*
X158238440Y-95334000D01*
X158238440Y-93384000D01*
X158189157Y-93136235D01*
X158048809Y-92926191D01*
X157838765Y-92785843D01*
X157591000Y-92736560D01*
X156861000Y-92736560D01*
X156613235Y-92785843D01*
X156583776Y-92805527D01*
X156447309Y-92749000D01*
X156241750Y-92749000D01*
X156083000Y-92907750D01*
X156083000Y-94232000D01*
X156103000Y-94232000D01*
X156103000Y-94486000D01*
X156083000Y-94486000D01*
X156083000Y-95810250D01*
X156241750Y-95969000D01*
X156447309Y-95969000D01*
X156583776Y-95912473D01*
X156593270Y-95918817D01*
X156443057Y-95980883D01*
X156179808Y-96243673D01*
X156037162Y-96587201D01*
X156036838Y-96959167D01*
X155409167Y-96959167D01*
X155446000Y-96774000D01*
X155446000Y-95961258D01*
X155464691Y-95969000D01*
X155670250Y-95969000D01*
X155829000Y-95810250D01*
X155829000Y-94486000D01*
X155809000Y-94486000D01*
X155809000Y-94232000D01*
X155829000Y-94232000D01*
X155829000Y-92907750D01*
X155670250Y-92749000D01*
X155464691Y-92749000D01*
X155328224Y-92805527D01*
X155298765Y-92785843D01*
X155051000Y-92736560D01*
X154321000Y-92736560D01*
X154073235Y-92785843D01*
X154051000Y-92800700D01*
X154028765Y-92785843D01*
X153781000Y-92736560D01*
X153051000Y-92736560D01*
X152803235Y-92785843D01*
X152773776Y-92805527D01*
X152637309Y-92749000D01*
X152431750Y-92749000D01*
X152273000Y-92907750D01*
X152273000Y-94232000D01*
X152293000Y-94232000D01*
X152293000Y-94486000D01*
X152273000Y-94486000D01*
X152273000Y-95810250D01*
X152431750Y-95969000D01*
X152637309Y-95969000D01*
X152656000Y-95961258D01*
X152656000Y-96211537D01*
X152623808Y-96243673D01*
X152481162Y-96587201D01*
X152480838Y-96959167D01*
X152622883Y-97302943D01*
X152852369Y-97532829D01*
X152838599Y-97546599D01*
X152673852Y-97793161D01*
X152622453Y-98051560D01*
X152476000Y-98051560D01*
X152228235Y-98100843D01*
X152018191Y-98241191D01*
X151877843Y-98451235D01*
X151828560Y-98699000D01*
X136439000Y-98699000D01*
X136439000Y-98679000D01*
X136459000Y-98679000D01*
X136459000Y-97679750D01*
X136713000Y-97679750D01*
X136713000Y-98679000D01*
X137412250Y-98679000D01*
X137571000Y-98520250D01*
X137571000Y-98029690D01*
X137474327Y-97796301D01*
X137295698Y-97617673D01*
X137062309Y-97521000D01*
X136871750Y-97521000D01*
X136713000Y-97679750D01*
X136459000Y-97679750D01*
X136300250Y-97521000D01*
X136109691Y-97521000D01*
X135876302Y-97617673D01*
X135697673Y-97796301D01*
X135639721Y-97936209D01*
X135634157Y-97908235D01*
X135493809Y-97698191D01*
X135283765Y-97557843D01*
X135036000Y-97508560D01*
X134336000Y-97508560D01*
X134088235Y-97557843D01*
X133878191Y-97698191D01*
X133737843Y-97908235D01*
X133731000Y-97942637D01*
X133724157Y-97908235D01*
X133583809Y-97698191D01*
X133373765Y-97557843D01*
X133348000Y-97552718D01*
X133348000Y-97536000D01*
X133305830Y-97324000D01*
X133290148Y-97245160D01*
X133125401Y-96998599D01*
X132649500Y-96522698D01*
X132649500Y-94644750D01*
X151146000Y-94644750D01*
X151146000Y-95460310D01*
X151242673Y-95693699D01*
X151421302Y-95872327D01*
X151654691Y-95969000D01*
X151860250Y-95969000D01*
X152019000Y-95810250D01*
X152019000Y-94486000D01*
X151304750Y-94486000D01*
X151146000Y-94644750D01*
X132649500Y-94644750D01*
X132649500Y-93084302D01*
X132812599Y-93247401D01*
X133059161Y-93412148D01*
X133350000Y-93470000D01*
X134620000Y-93470000D01*
X134910839Y-93412148D01*
X135142002Y-93257690D01*
X151146000Y-93257690D01*
X151146000Y-94073250D01*
X151304750Y-94232000D01*
X152019000Y-94232000D01*
X152019000Y-92907750D01*
X151860250Y-92749000D01*
X151654691Y-92749000D01*
X151421302Y-92845673D01*
X151242673Y-93024301D01*
X151146000Y-93257690D01*
X135142002Y-93257690D01*
X135157401Y-93247401D01*
X135665401Y-92739401D01*
X135769364Y-92583809D01*
X135830148Y-92492839D01*
X135888000Y-92202000D01*
X135888000Y-83710103D01*
X135957201Y-83738838D01*
X136329167Y-83739162D01*
X136672943Y-83597117D01*
X136706118Y-83564000D01*
X140716000Y-83564000D01*
X141006839Y-83506148D01*
X141253401Y-83341401D01*
X142523401Y-82071401D01*
X142688148Y-81824840D01*
X142746000Y-81534000D01*
X142746000Y-77631379D01*
X142973828Y-77479149D01*
X143256000Y-77056850D01*
X143538172Y-77479149D01*
X143991391Y-77781981D01*
X144526000Y-77888321D01*
X145060609Y-77781981D01*
X145513828Y-77479149D01*
X145816660Y-77025930D01*
X145923000Y-76491321D01*
X145923000Y-75400679D01*
X145816660Y-74866070D01*
X145513828Y-74412851D01*
X145060609Y-74110019D01*
X144964994Y-74091000D01*
X148151006Y-74091000D01*
X148055391Y-74110019D01*
G36*
X133899275Y-85280500D02*
X133941500Y-85280500D01*
X133941500Y-85534500D01*
X133899275Y-85534500D01*
X133899275Y-85588475D01*
X133845300Y-85534500D01*
X133647500Y-85534500D01*
X133647500Y-85280500D01*
X133845300Y-85280500D01*
X133865300Y-85260500D01*
X133899275Y-85260500D01*
X133899275Y-85280500D01*
X133899275Y-85280500D01*
G37*
X133899275Y-85280500D02*
X133941500Y-85280500D01*
X133941500Y-85534500D01*
X133899275Y-85534500D01*
X133899275Y-85588475D01*
X133845300Y-85534500D01*
X133647500Y-85534500D01*
X133647500Y-85280500D01*
X133845300Y-85280500D01*
X133865300Y-85260500D01*
X133899275Y-85260500D01*
X133899275Y-85280500D01*
M02*
