G04 #@! TF.GenerationSoftware,KiCad,Pcbnew,5.1.4-5.1.4*
G04 #@! TF.CreationDate,2019-11-06T19:06:23+01:00*
G04 #@! TF.ProjectId,satscanner,73617473-6361-46e6-9e65-722e6b696361,rev?*
G04 #@! TF.SameCoordinates,Original*
G04 #@! TF.FileFunction,Legend,Top*
G04 #@! TF.FilePolarity,Positive*
%FSLAX46Y46*%
G04 Gerber Fmt 4.6, Leading zero omitted, Abs format (unit mm)*
G04 Created by KiCad (PCBNEW 5.1.4-5.1.4) date 2019-11-06 19:06:23*
%MOMM*%
%LPD*%
G04 APERTURE LIST*
%ADD10C,0.381000*%
%ADD11C,0.150000*%
%ADD12C,0.152400*%
%ADD13C,0.203200*%
G04 APERTURE END LIST*
D10*
X114670000Y-126846000D02*
X114670000Y-73546000D01*
X114670000Y-126796000D02*
X168870000Y-126796000D01*
X114670000Y-73446000D02*
X167720000Y-73446000D01*
X168910000Y-124206000D02*
X168910000Y-126746000D01*
X171450000Y-121666000D02*
X168910000Y-124206000D01*
X171450000Y-88646000D02*
X171450000Y-121666000D01*
X168910000Y-86106000D02*
X171450000Y-88646000D01*
X168910000Y-74676000D02*
X167640000Y-73406000D01*
X168910000Y-86106000D02*
X168910000Y-74676000D01*
D11*
X162472000Y-106180000D02*
X162472000Y-107180000D01*
X164172000Y-107180000D02*
X164172000Y-106180000D01*
X129639950Y-83807500D02*
X128639950Y-84807500D01*
X128639950Y-84807500D02*
X128639950Y-91960500D01*
X128639950Y-91960500D02*
X134504050Y-91960500D01*
X134504050Y-91960500D02*
X134504050Y-83807500D01*
X134504050Y-83807500D02*
X129639950Y-83807500D01*
X165696000Y-85336000D02*
X165696000Y-84336000D01*
X163996000Y-84336000D02*
X163996000Y-85336000D01*
X156286000Y-100214000D02*
X152586000Y-100214000D01*
X156286000Y-98414000D02*
X152586000Y-98414000D01*
X163838000Y-104228000D02*
X164838000Y-104228000D01*
X164838000Y-102528000D02*
X163838000Y-102528000D01*
X165600000Y-109386000D02*
X164600000Y-109386000D01*
X164600000Y-111086000D02*
X165600000Y-111086000D01*
X159758000Y-102782000D02*
X158758000Y-102782000D01*
X158758000Y-104482000D02*
X159758000Y-104482000D01*
X159758000Y-105322000D02*
X158758000Y-105322000D01*
X158758000Y-107022000D02*
X159758000Y-107022000D01*
X160266000Y-115990000D02*
X159266000Y-115990000D01*
X159266000Y-117690000D02*
X160266000Y-117690000D01*
X160266000Y-112688000D02*
X159266000Y-112688000D01*
X159266000Y-114388000D02*
X160266000Y-114388000D01*
X127516000Y-94576000D02*
X128516000Y-94576000D01*
X128516000Y-92876000D02*
X127516000Y-92876000D01*
X127900000Y-88316000D02*
X127900000Y-92016000D01*
X126100000Y-88316000D02*
X126100000Y-92016000D01*
X172082000Y-89582000D02*
X172082000Y-80582000D01*
X186082000Y-89582000D02*
X172082000Y-89582000D01*
X186082000Y-80582000D02*
X186082000Y-89582000D01*
X172082000Y-80582000D02*
X186082000Y-80582000D01*
X167195500Y-81534000D02*
X167576500Y-81534000D01*
X166179500Y-81534000D02*
X166560500Y-81534000D01*
X166560500Y-81534000D02*
X167195500Y-81153000D01*
X167195500Y-81153000D02*
X167195500Y-81915000D01*
X167195500Y-81915000D02*
X166560500Y-81534000D01*
X166560500Y-81026000D02*
X166560500Y-82042000D01*
X164878000Y-82434000D02*
X168418000Y-82434000D01*
X164878000Y-80634000D02*
X168418000Y-80634000D01*
X168622000Y-109274000D02*
X168622000Y-109674000D01*
X168182000Y-109674000D02*
X168182000Y-109274000D01*
X183822000Y-104736000D02*
X170422000Y-104736000D01*
X183822000Y-115736000D02*
X170422000Y-115736000D01*
X183822000Y-106036000D02*
X190022000Y-106036000D01*
X190022000Y-106036000D02*
X190022000Y-114436000D01*
X190022000Y-114436000D02*
X183822000Y-114436000D01*
X170442000Y-115736000D02*
X170422000Y-104736000D01*
X183822000Y-104736000D02*
X183822000Y-115736000D01*
D12*
X151846280Y-109636560D02*
X152445720Y-109636560D01*
X151846280Y-110835440D02*
X152445720Y-110835440D01*
X132600280Y-98450560D02*
X133199720Y-98450560D01*
X132600280Y-99649440D02*
X133199720Y-99649440D01*
D11*
X157091000Y-95834000D02*
X158091000Y-94834000D01*
X158091000Y-94834000D02*
X158091000Y-79934000D01*
X158091000Y-79934000D02*
X151281000Y-79934000D01*
X151281000Y-79934000D02*
X151281000Y-95834000D01*
X151281000Y-95834000D02*
X157091000Y-95834000D01*
X160375000Y-111607000D02*
X160375000Y-111382000D01*
X157125000Y-111607000D02*
X157125000Y-111382000D01*
X157125000Y-108357000D02*
X157125000Y-108582000D01*
X160375000Y-108357000D02*
X160375000Y-108582000D01*
X160375000Y-111607000D02*
X157125000Y-111607000D01*
X160375000Y-108357000D02*
X157125000Y-108357000D01*
X160375000Y-111382000D02*
X161450000Y-111382000D01*
D13*
X126354840Y-105384600D02*
G75*
G03X126354840Y-105384600I-142240J0D01*
G01*
D11*
X143676000Y-118118000D02*
X143676000Y-119118000D01*
X145376000Y-119118000D02*
X145376000Y-118118000D01*
X156806000Y-119118000D02*
X156806000Y-118118000D01*
X155106000Y-118118000D02*
X155106000Y-119118000D01*
X148932000Y-111752000D02*
X148932000Y-110752000D01*
X147232000Y-110752000D02*
X147232000Y-111752000D01*
X144518000Y-106592000D02*
X143518000Y-106592000D01*
X143518000Y-108292000D02*
X144518000Y-108292000D01*
X132350000Y-96350000D02*
X133050000Y-96350000D01*
X133050000Y-97550000D02*
X132350000Y-97550000D01*
X126254000Y-99831000D02*
X128254000Y-99831000D01*
X128254000Y-97781000D02*
X126254000Y-97781000D01*
X152697000Y-120685000D02*
X152697000Y-120540000D01*
X148547000Y-120685000D02*
X148547000Y-120540000D01*
X148547000Y-115535000D02*
X148547000Y-115680000D01*
X152697000Y-115535000D02*
X152697000Y-115680000D01*
X152697000Y-120685000D02*
X148547000Y-120685000D01*
X152697000Y-115535000D02*
X148547000Y-115535000D01*
X152697000Y-120540000D02*
X154097000Y-120540000D01*
X142568000Y-111248000D02*
X145468000Y-111248000D01*
X145468000Y-111248000D02*
X145468000Y-110748000D01*
X145468000Y-110748000D02*
X142568000Y-110748000D01*
X142568000Y-110748000D02*
X142568000Y-111248000D01*
X142418000Y-111298000D02*
G75*
G03X142418000Y-111298000I-100000J0D01*
G01*
X165187333Y-106783142D02*
X165139714Y-106830761D01*
X164996857Y-106878380D01*
X164901619Y-106878380D01*
X164758761Y-106830761D01*
X164663523Y-106735523D01*
X164615904Y-106640285D01*
X164568285Y-106449809D01*
X164568285Y-106306952D01*
X164615904Y-106116476D01*
X164663523Y-106021238D01*
X164758761Y-105926000D01*
X164901619Y-105878380D01*
X164996857Y-105878380D01*
X165139714Y-105926000D01*
X165187333Y-105973619D01*
X166092095Y-105878380D02*
X165615904Y-105878380D01*
X165568285Y-106354571D01*
X165615904Y-106306952D01*
X165711142Y-106259333D01*
X165949238Y-106259333D01*
X166044476Y-106306952D01*
X166092095Y-106354571D01*
X166139714Y-106449809D01*
X166139714Y-106687904D01*
X166092095Y-106783142D01*
X166044476Y-106830761D01*
X165949238Y-106878380D01*
X165711142Y-106878380D01*
X165615904Y-106830761D01*
X165568285Y-106783142D01*
X126593714Y-84178857D02*
X126593714Y-85150285D01*
X126650857Y-85264571D01*
X126708000Y-85321714D01*
X126822285Y-85378857D01*
X127050857Y-85378857D01*
X127165142Y-85321714D01*
X127222285Y-85264571D01*
X127279428Y-85150285D01*
X127279428Y-84178857D01*
X128365142Y-84578857D02*
X128365142Y-85378857D01*
X128079428Y-84121714D02*
X127793714Y-84978857D01*
X128536571Y-84978857D01*
X166683333Y-87807142D02*
X166635714Y-87854761D01*
X166492857Y-87902380D01*
X166397619Y-87902380D01*
X166254761Y-87854761D01*
X166159523Y-87759523D01*
X166111904Y-87664285D01*
X166064285Y-87473809D01*
X166064285Y-87330952D01*
X166111904Y-87140476D01*
X166159523Y-87045238D01*
X166254761Y-86950000D01*
X166397619Y-86902380D01*
X166492857Y-86902380D01*
X166635714Y-86950000D01*
X166683333Y-86997619D01*
X167635714Y-87902380D02*
X167064285Y-87902380D01*
X167350000Y-87902380D02*
X167350000Y-86902380D01*
X167254761Y-87045238D01*
X167159523Y-87140476D01*
X167064285Y-87188095D01*
X150709333Y-99671142D02*
X150661714Y-99718761D01*
X150518857Y-99766380D01*
X150423619Y-99766380D01*
X150280761Y-99718761D01*
X150185523Y-99623523D01*
X150137904Y-99528285D01*
X150090285Y-99337809D01*
X150090285Y-99194952D01*
X150137904Y-99004476D01*
X150185523Y-98909238D01*
X150280761Y-98814000D01*
X150423619Y-98766380D01*
X150518857Y-98766380D01*
X150661714Y-98814000D01*
X150709333Y-98861619D01*
X151090285Y-98861619D02*
X151137904Y-98814000D01*
X151233142Y-98766380D01*
X151471238Y-98766380D01*
X151566476Y-98814000D01*
X151614095Y-98861619D01*
X151661714Y-98956857D01*
X151661714Y-99052095D01*
X151614095Y-99194952D01*
X151042666Y-99766380D01*
X151661714Y-99766380D01*
X162647333Y-101957142D02*
X162599714Y-102004761D01*
X162456857Y-102052380D01*
X162361619Y-102052380D01*
X162218761Y-102004761D01*
X162123523Y-101909523D01*
X162075904Y-101814285D01*
X162028285Y-101623809D01*
X162028285Y-101480952D01*
X162075904Y-101290476D01*
X162123523Y-101195238D01*
X162218761Y-101100000D01*
X162361619Y-101052380D01*
X162456857Y-101052380D01*
X162599714Y-101100000D01*
X162647333Y-101147619D01*
X162980666Y-101052380D02*
X163599714Y-101052380D01*
X163266380Y-101433333D01*
X163409238Y-101433333D01*
X163504476Y-101480952D01*
X163552095Y-101528571D01*
X163599714Y-101623809D01*
X163599714Y-101861904D01*
X163552095Y-101957142D01*
X163504476Y-102004761D01*
X163409238Y-102052380D01*
X163123523Y-102052380D01*
X163028285Y-102004761D01*
X162980666Y-101957142D01*
X164171333Y-112625142D02*
X164123714Y-112672761D01*
X163980857Y-112720380D01*
X163885619Y-112720380D01*
X163742761Y-112672761D01*
X163647523Y-112577523D01*
X163599904Y-112482285D01*
X163552285Y-112291809D01*
X163552285Y-112148952D01*
X163599904Y-111958476D01*
X163647523Y-111863238D01*
X163742761Y-111768000D01*
X163885619Y-111720380D01*
X163980857Y-111720380D01*
X164123714Y-111768000D01*
X164171333Y-111815619D01*
X165028476Y-112053714D02*
X165028476Y-112720380D01*
X164790380Y-111672761D02*
X164552285Y-112387047D01*
X165171333Y-112387047D01*
X156043333Y-103735142D02*
X155995714Y-103782761D01*
X155852857Y-103830380D01*
X155757619Y-103830380D01*
X155614761Y-103782761D01*
X155519523Y-103687523D01*
X155471904Y-103592285D01*
X155424285Y-103401809D01*
X155424285Y-103258952D01*
X155471904Y-103068476D01*
X155519523Y-102973238D01*
X155614761Y-102878000D01*
X155757619Y-102830380D01*
X155852857Y-102830380D01*
X155995714Y-102878000D01*
X156043333Y-102925619D01*
X156900476Y-102830380D02*
X156710000Y-102830380D01*
X156614761Y-102878000D01*
X156567142Y-102925619D01*
X156471904Y-103068476D01*
X156424285Y-103258952D01*
X156424285Y-103639904D01*
X156471904Y-103735142D01*
X156519523Y-103782761D01*
X156614761Y-103830380D01*
X156805238Y-103830380D01*
X156900476Y-103782761D01*
X156948095Y-103735142D01*
X156995714Y-103639904D01*
X156995714Y-103401809D01*
X156948095Y-103306571D01*
X156900476Y-103258952D01*
X156805238Y-103211333D01*
X156614761Y-103211333D01*
X156519523Y-103258952D01*
X156471904Y-103306571D01*
X156424285Y-103401809D01*
X156043333Y-106529142D02*
X155995714Y-106576761D01*
X155852857Y-106624380D01*
X155757619Y-106624380D01*
X155614761Y-106576761D01*
X155519523Y-106481523D01*
X155471904Y-106386285D01*
X155424285Y-106195809D01*
X155424285Y-106052952D01*
X155471904Y-105862476D01*
X155519523Y-105767238D01*
X155614761Y-105672000D01*
X155757619Y-105624380D01*
X155852857Y-105624380D01*
X155995714Y-105672000D01*
X156043333Y-105719619D01*
X156376666Y-105624380D02*
X157043333Y-105624380D01*
X156614761Y-106624380D01*
X162647333Y-117197142D02*
X162599714Y-117244761D01*
X162456857Y-117292380D01*
X162361619Y-117292380D01*
X162218761Y-117244761D01*
X162123523Y-117149523D01*
X162075904Y-117054285D01*
X162028285Y-116863809D01*
X162028285Y-116720952D01*
X162075904Y-116530476D01*
X162123523Y-116435238D01*
X162218761Y-116340000D01*
X162361619Y-116292380D01*
X162456857Y-116292380D01*
X162599714Y-116340000D01*
X162647333Y-116387619D01*
X163218761Y-116720952D02*
X163123523Y-116673333D01*
X163075904Y-116625714D01*
X163028285Y-116530476D01*
X163028285Y-116482857D01*
X163075904Y-116387619D01*
X163123523Y-116340000D01*
X163218761Y-116292380D01*
X163409238Y-116292380D01*
X163504476Y-116340000D01*
X163552095Y-116387619D01*
X163599714Y-116482857D01*
X163599714Y-116530476D01*
X163552095Y-116625714D01*
X163504476Y-116673333D01*
X163409238Y-116720952D01*
X163218761Y-116720952D01*
X163123523Y-116768571D01*
X163075904Y-116816190D01*
X163028285Y-116911428D01*
X163028285Y-117101904D01*
X163075904Y-117197142D01*
X163123523Y-117244761D01*
X163218761Y-117292380D01*
X163409238Y-117292380D01*
X163504476Y-117244761D01*
X163552095Y-117197142D01*
X163599714Y-117101904D01*
X163599714Y-116911428D01*
X163552095Y-116816190D01*
X163504476Y-116768571D01*
X163409238Y-116720952D01*
X162647333Y-113895142D02*
X162599714Y-113942761D01*
X162456857Y-113990380D01*
X162361619Y-113990380D01*
X162218761Y-113942761D01*
X162123523Y-113847523D01*
X162075904Y-113752285D01*
X162028285Y-113561809D01*
X162028285Y-113418952D01*
X162075904Y-113228476D01*
X162123523Y-113133238D01*
X162218761Y-113038000D01*
X162361619Y-112990380D01*
X162456857Y-112990380D01*
X162599714Y-113038000D01*
X162647333Y-113085619D01*
X163123523Y-113990380D02*
X163314000Y-113990380D01*
X163409238Y-113942761D01*
X163456857Y-113895142D01*
X163552095Y-113752285D01*
X163599714Y-113561809D01*
X163599714Y-113180857D01*
X163552095Y-113085619D01*
X163504476Y-113038000D01*
X163409238Y-112990380D01*
X163218761Y-112990380D01*
X163123523Y-113038000D01*
X163075904Y-113085619D01*
X163028285Y-113180857D01*
X163028285Y-113418952D01*
X163075904Y-113514190D01*
X163123523Y-113561809D01*
X163218761Y-113609428D01*
X163409238Y-113609428D01*
X163504476Y-113561809D01*
X163552095Y-113514190D01*
X163599714Y-113418952D01*
X123563142Y-94083142D02*
X123515523Y-94130761D01*
X123372666Y-94178380D01*
X123277428Y-94178380D01*
X123134571Y-94130761D01*
X123039333Y-94035523D01*
X122991714Y-93940285D01*
X122944095Y-93749809D01*
X122944095Y-93606952D01*
X122991714Y-93416476D01*
X123039333Y-93321238D01*
X123134571Y-93226000D01*
X123277428Y-93178380D01*
X123372666Y-93178380D01*
X123515523Y-93226000D01*
X123563142Y-93273619D01*
X124515523Y-94178380D02*
X123944095Y-94178380D01*
X124229809Y-94178380D02*
X124229809Y-93178380D01*
X124134571Y-93321238D01*
X124039333Y-93416476D01*
X123944095Y-93464095D01*
X125134571Y-93178380D02*
X125229809Y-93178380D01*
X125325047Y-93226000D01*
X125372666Y-93273619D01*
X125420285Y-93368857D01*
X125467904Y-93559333D01*
X125467904Y-93797428D01*
X125420285Y-93987904D01*
X125372666Y-94083142D01*
X125325047Y-94130761D01*
X125229809Y-94178380D01*
X125134571Y-94178380D01*
X125039333Y-94130761D01*
X124991714Y-94083142D01*
X124944095Y-93987904D01*
X124896476Y-93797428D01*
X124896476Y-93559333D01*
X124944095Y-93368857D01*
X124991714Y-93273619D01*
X125039333Y-93226000D01*
X125134571Y-93178380D01*
X122057142Y-90457142D02*
X122009523Y-90504761D01*
X121866666Y-90552380D01*
X121771428Y-90552380D01*
X121628571Y-90504761D01*
X121533333Y-90409523D01*
X121485714Y-90314285D01*
X121438095Y-90123809D01*
X121438095Y-89980952D01*
X121485714Y-89790476D01*
X121533333Y-89695238D01*
X121628571Y-89600000D01*
X121771428Y-89552380D01*
X121866666Y-89552380D01*
X122009523Y-89600000D01*
X122057142Y-89647619D01*
X123009523Y-90552380D02*
X122438095Y-90552380D01*
X122723809Y-90552380D02*
X122723809Y-89552380D01*
X122628571Y-89695238D01*
X122533333Y-89790476D01*
X122438095Y-89838095D01*
X123961904Y-90552380D02*
X123390476Y-90552380D01*
X123676190Y-90552380D02*
X123676190Y-89552380D01*
X123580952Y-89695238D01*
X123485714Y-89790476D01*
X123390476Y-89838095D01*
X174553714Y-76557142D02*
X174506095Y-76604761D01*
X174363238Y-76652380D01*
X174268000Y-76652380D01*
X174125142Y-76604761D01*
X174029904Y-76509523D01*
X173982285Y-76414285D01*
X173934666Y-76223809D01*
X173934666Y-76080952D01*
X173982285Y-75890476D01*
X174029904Y-75795238D01*
X174125142Y-75700000D01*
X174268000Y-75652380D01*
X174363238Y-75652380D01*
X174506095Y-75700000D01*
X174553714Y-75747619D01*
X175172761Y-75652380D02*
X175363238Y-75652380D01*
X175458476Y-75700000D01*
X175553714Y-75795238D01*
X175601333Y-75985714D01*
X175601333Y-76319047D01*
X175553714Y-76509523D01*
X175458476Y-76604761D01*
X175363238Y-76652380D01*
X175172761Y-76652380D01*
X175077523Y-76604761D01*
X174982285Y-76509523D01*
X174934666Y-76319047D01*
X174934666Y-75985714D01*
X174982285Y-75795238D01*
X175077523Y-75700000D01*
X175172761Y-75652380D01*
X176029904Y-76652380D02*
X176029904Y-75652380D01*
X176601333Y-76652380D01*
X176601333Y-75652380D01*
X177601333Y-76652380D02*
X177029904Y-76652380D01*
X177315619Y-76652380D02*
X177315619Y-75652380D01*
X177220380Y-75795238D01*
X177125142Y-75890476D01*
X177029904Y-75938095D01*
X166361904Y-79952380D02*
X166361904Y-78952380D01*
X166600000Y-78952380D01*
X166742857Y-79000000D01*
X166838095Y-79095238D01*
X166885714Y-79190476D01*
X166933333Y-79380952D01*
X166933333Y-79523809D01*
X166885714Y-79714285D01*
X166838095Y-79809523D01*
X166742857Y-79904761D01*
X166600000Y-79952380D01*
X166361904Y-79952380D01*
X167885714Y-79952380D02*
X167314285Y-79952380D01*
X167600000Y-79952380D02*
X167600000Y-78952380D01*
X167504761Y-79095238D01*
X167409523Y-79190476D01*
X167314285Y-79238095D01*
X168235333Y-112720380D02*
X167759142Y-112720380D01*
X167759142Y-111720380D01*
X169092476Y-112720380D02*
X168521047Y-112720380D01*
X168806761Y-112720380D02*
X168806761Y-111720380D01*
X168711523Y-111863238D01*
X168616285Y-111958476D01*
X168521047Y-112006095D01*
X175283904Y-117800380D02*
X175283904Y-116800380D01*
X175664857Y-116800380D01*
X175760095Y-116848000D01*
X175807714Y-116895619D01*
X175855333Y-116990857D01*
X175855333Y-117133714D01*
X175807714Y-117228952D01*
X175760095Y-117276571D01*
X175664857Y-117324190D01*
X175283904Y-117324190D01*
X176807714Y-117800380D02*
X176236285Y-117800380D01*
X176522000Y-117800380D02*
X176522000Y-116800380D01*
X176426761Y-116943238D01*
X176331523Y-117038476D01*
X176236285Y-117086095D01*
X152233333Y-112466380D02*
X151900000Y-111990190D01*
X151661904Y-112466380D02*
X151661904Y-111466380D01*
X152042857Y-111466380D01*
X152138095Y-111514000D01*
X152185714Y-111561619D01*
X152233333Y-111656857D01*
X152233333Y-111799714D01*
X152185714Y-111894952D01*
X152138095Y-111942571D01*
X152042857Y-111990190D01*
X151661904Y-111990190D01*
X153185714Y-112466380D02*
X152614285Y-112466380D01*
X152900000Y-112466380D02*
X152900000Y-111466380D01*
X152804761Y-111609238D01*
X152709523Y-111704476D01*
X152614285Y-111752095D01*
X135783333Y-99552380D02*
X135450000Y-99076190D01*
X135211904Y-99552380D02*
X135211904Y-98552380D01*
X135592857Y-98552380D01*
X135688095Y-98600000D01*
X135735714Y-98647619D01*
X135783333Y-98742857D01*
X135783333Y-98885714D01*
X135735714Y-98980952D01*
X135688095Y-99028571D01*
X135592857Y-99076190D01*
X135211904Y-99076190D01*
X136164285Y-98647619D02*
X136211904Y-98600000D01*
X136307142Y-98552380D01*
X136545238Y-98552380D01*
X136640476Y-98600000D01*
X136688095Y-98647619D01*
X136735714Y-98742857D01*
X136735714Y-98838095D01*
X136688095Y-98980952D01*
X136116666Y-99552380D01*
X136735714Y-99552380D01*
X146405714Y-86210857D02*
X146405714Y-87182285D01*
X146462857Y-87296571D01*
X146520000Y-87353714D01*
X146634285Y-87410857D01*
X146862857Y-87410857D01*
X146977142Y-87353714D01*
X147034285Y-87296571D01*
X147091428Y-87182285D01*
X147091428Y-86210857D01*
X148291428Y-87410857D02*
X147605714Y-87410857D01*
X147948571Y-87410857D02*
X147948571Y-86210857D01*
X147834285Y-86382285D01*
X147720000Y-86496571D01*
X147605714Y-86553714D01*
X155448095Y-112228380D02*
X155448095Y-113037904D01*
X155495714Y-113133142D01*
X155543333Y-113180761D01*
X155638571Y-113228380D01*
X155829047Y-113228380D01*
X155924285Y-113180761D01*
X155971904Y-113133142D01*
X156019523Y-113037904D01*
X156019523Y-112228380D01*
X156448095Y-112323619D02*
X156495714Y-112276000D01*
X156590952Y-112228380D01*
X156829047Y-112228380D01*
X156924285Y-112276000D01*
X156971904Y-112323619D01*
X157019523Y-112418857D01*
X157019523Y-112514095D01*
X156971904Y-112656952D01*
X156400476Y-113228380D01*
X157019523Y-113228380D01*
X122838095Y-105002380D02*
X122838095Y-105811904D01*
X122885714Y-105907142D01*
X122933333Y-105954761D01*
X123028571Y-106002380D01*
X123219047Y-106002380D01*
X123314285Y-105954761D01*
X123361904Y-105907142D01*
X123409523Y-105811904D01*
X123409523Y-105002380D01*
X123790476Y-105002380D02*
X124409523Y-105002380D01*
X124076190Y-105383333D01*
X124219047Y-105383333D01*
X124314285Y-105430952D01*
X124361904Y-105478571D01*
X124409523Y-105573809D01*
X124409523Y-105811904D01*
X124361904Y-105907142D01*
X124314285Y-105954761D01*
X124219047Y-106002380D01*
X123933333Y-106002380D01*
X123838095Y-105954761D01*
X123790476Y-105907142D01*
X141089142Y-119229142D02*
X141041523Y-119276761D01*
X140898666Y-119324380D01*
X140803428Y-119324380D01*
X140660571Y-119276761D01*
X140565333Y-119181523D01*
X140517714Y-119086285D01*
X140470095Y-118895809D01*
X140470095Y-118752952D01*
X140517714Y-118562476D01*
X140565333Y-118467238D01*
X140660571Y-118372000D01*
X140803428Y-118324380D01*
X140898666Y-118324380D01*
X141041523Y-118372000D01*
X141089142Y-118419619D01*
X142041523Y-119324380D02*
X141470095Y-119324380D01*
X141755809Y-119324380D02*
X141755809Y-118324380D01*
X141660571Y-118467238D01*
X141565333Y-118562476D01*
X141470095Y-118610095D01*
X142422476Y-118419619D02*
X142470095Y-118372000D01*
X142565333Y-118324380D01*
X142803428Y-118324380D01*
X142898666Y-118372000D01*
X142946285Y-118419619D01*
X142993904Y-118514857D01*
X142993904Y-118610095D01*
X142946285Y-118752952D01*
X142374857Y-119324380D01*
X142993904Y-119324380D01*
X157007142Y-121957142D02*
X156959523Y-122004761D01*
X156816666Y-122052380D01*
X156721428Y-122052380D01*
X156578571Y-122004761D01*
X156483333Y-121909523D01*
X156435714Y-121814285D01*
X156388095Y-121623809D01*
X156388095Y-121480952D01*
X156435714Y-121290476D01*
X156483333Y-121195238D01*
X156578571Y-121100000D01*
X156721428Y-121052380D01*
X156816666Y-121052380D01*
X156959523Y-121100000D01*
X157007142Y-121147619D01*
X157959523Y-122052380D02*
X157388095Y-122052380D01*
X157673809Y-122052380D02*
X157673809Y-121052380D01*
X157578571Y-121195238D01*
X157483333Y-121290476D01*
X157388095Y-121338095D01*
X158292857Y-121052380D02*
X158911904Y-121052380D01*
X158578571Y-121433333D01*
X158721428Y-121433333D01*
X158816666Y-121480952D01*
X158864285Y-121528571D01*
X158911904Y-121623809D01*
X158911904Y-121861904D01*
X158864285Y-121957142D01*
X158816666Y-122004761D01*
X158721428Y-122052380D01*
X158435714Y-122052380D01*
X158340476Y-122004761D01*
X158292857Y-121957142D01*
X149471142Y-113895142D02*
X149423523Y-113942761D01*
X149280666Y-113990380D01*
X149185428Y-113990380D01*
X149042571Y-113942761D01*
X148947333Y-113847523D01*
X148899714Y-113752285D01*
X148852095Y-113561809D01*
X148852095Y-113418952D01*
X148899714Y-113228476D01*
X148947333Y-113133238D01*
X149042571Y-113038000D01*
X149185428Y-112990380D01*
X149280666Y-112990380D01*
X149423523Y-113038000D01*
X149471142Y-113085619D01*
X150423523Y-113990380D02*
X149852095Y-113990380D01*
X150137809Y-113990380D02*
X150137809Y-112990380D01*
X150042571Y-113133238D01*
X149947333Y-113228476D01*
X149852095Y-113276095D01*
X151280666Y-113323714D02*
X151280666Y-113990380D01*
X151042571Y-112942761D02*
X150804476Y-113657047D01*
X151423523Y-113657047D01*
X145661142Y-106021142D02*
X145613523Y-106068761D01*
X145470666Y-106116380D01*
X145375428Y-106116380D01*
X145232571Y-106068761D01*
X145137333Y-105973523D01*
X145089714Y-105878285D01*
X145042095Y-105687809D01*
X145042095Y-105544952D01*
X145089714Y-105354476D01*
X145137333Y-105259238D01*
X145232571Y-105164000D01*
X145375428Y-105116380D01*
X145470666Y-105116380D01*
X145613523Y-105164000D01*
X145661142Y-105211619D01*
X146613523Y-106116380D02*
X146042095Y-106116380D01*
X146327809Y-106116380D02*
X146327809Y-105116380D01*
X146232571Y-105259238D01*
X146137333Y-105354476D01*
X146042095Y-105402095D01*
X147518285Y-105116380D02*
X147042095Y-105116380D01*
X146994476Y-105592571D01*
X147042095Y-105544952D01*
X147137333Y-105497333D01*
X147375428Y-105497333D01*
X147470666Y-105544952D01*
X147518285Y-105592571D01*
X147565904Y-105687809D01*
X147565904Y-105925904D01*
X147518285Y-106021142D01*
X147470666Y-106068761D01*
X147375428Y-106116380D01*
X147137333Y-106116380D01*
X147042095Y-106068761D01*
X146994476Y-106021142D01*
X135105142Y-97307142D02*
X135057523Y-97354761D01*
X134914666Y-97402380D01*
X134819428Y-97402380D01*
X134676571Y-97354761D01*
X134581333Y-97259523D01*
X134533714Y-97164285D01*
X134486095Y-96973809D01*
X134486095Y-96830952D01*
X134533714Y-96640476D01*
X134581333Y-96545238D01*
X134676571Y-96450000D01*
X134819428Y-96402380D01*
X134914666Y-96402380D01*
X135057523Y-96450000D01*
X135105142Y-96497619D01*
X136057523Y-97402380D02*
X135486095Y-97402380D01*
X135771809Y-97402380D02*
X135771809Y-96402380D01*
X135676571Y-96545238D01*
X135581333Y-96640476D01*
X135486095Y-96688095D01*
X136390857Y-96402380D02*
X137057523Y-96402380D01*
X136628952Y-97402380D01*
X122547142Y-99163142D02*
X122499523Y-99210761D01*
X122356666Y-99258380D01*
X122261428Y-99258380D01*
X122118571Y-99210761D01*
X122023333Y-99115523D01*
X121975714Y-99020285D01*
X121928095Y-98829809D01*
X121928095Y-98686952D01*
X121975714Y-98496476D01*
X122023333Y-98401238D01*
X122118571Y-98306000D01*
X122261428Y-98258380D01*
X122356666Y-98258380D01*
X122499523Y-98306000D01*
X122547142Y-98353619D01*
X123499523Y-99258380D02*
X122928095Y-99258380D01*
X123213809Y-99258380D02*
X123213809Y-98258380D01*
X123118571Y-98401238D01*
X123023333Y-98496476D01*
X122928095Y-98544095D01*
X124070952Y-98686952D02*
X123975714Y-98639333D01*
X123928095Y-98591714D01*
X123880476Y-98496476D01*
X123880476Y-98448857D01*
X123928095Y-98353619D01*
X123975714Y-98306000D01*
X124070952Y-98258380D01*
X124261428Y-98258380D01*
X124356666Y-98306000D01*
X124404285Y-98353619D01*
X124451904Y-98448857D01*
X124451904Y-98496476D01*
X124404285Y-98591714D01*
X124356666Y-98639333D01*
X124261428Y-98686952D01*
X124070952Y-98686952D01*
X123975714Y-98734571D01*
X123928095Y-98782190D01*
X123880476Y-98877428D01*
X123880476Y-99067904D01*
X123928095Y-99163142D01*
X123975714Y-99210761D01*
X124070952Y-99258380D01*
X124261428Y-99258380D01*
X124356666Y-99210761D01*
X124404285Y-99163142D01*
X124451904Y-99067904D01*
X124451904Y-98877428D01*
X124404285Y-98782190D01*
X124356666Y-98734571D01*
X124261428Y-98686952D01*
X149860095Y-121062380D02*
X149860095Y-121871904D01*
X149907714Y-121967142D01*
X149955333Y-122014761D01*
X150050571Y-122062380D01*
X150241047Y-122062380D01*
X150336285Y-122014761D01*
X150383904Y-121967142D01*
X150431523Y-121871904D01*
X150431523Y-121062380D01*
X151383904Y-121062380D02*
X150907714Y-121062380D01*
X150860095Y-121538571D01*
X150907714Y-121490952D01*
X151002952Y-121443333D01*
X151241047Y-121443333D01*
X151336285Y-121490952D01*
X151383904Y-121538571D01*
X151431523Y-121633809D01*
X151431523Y-121871904D01*
X151383904Y-121967142D01*
X151336285Y-122014761D01*
X151241047Y-122062380D01*
X151002952Y-122062380D01*
X150907714Y-122014761D01*
X150860095Y-121967142D01*
X138638095Y-109552380D02*
X138638095Y-110361904D01*
X138685714Y-110457142D01*
X138733333Y-110504761D01*
X138828571Y-110552380D01*
X139019047Y-110552380D01*
X139114285Y-110504761D01*
X139161904Y-110457142D01*
X139209523Y-110361904D01*
X139209523Y-109552380D01*
X140114285Y-109552380D02*
X139923809Y-109552380D01*
X139828571Y-109600000D01*
X139780952Y-109647619D01*
X139685714Y-109790476D01*
X139638095Y-109980952D01*
X139638095Y-110361904D01*
X139685714Y-110457142D01*
X139733333Y-110504761D01*
X139828571Y-110552380D01*
X140019047Y-110552380D01*
X140114285Y-110504761D01*
X140161904Y-110457142D01*
X140209523Y-110361904D01*
X140209523Y-110123809D01*
X140161904Y-110028571D01*
X140114285Y-109980952D01*
X140019047Y-109933333D01*
X139828571Y-109933333D01*
X139733333Y-109980952D01*
X139685714Y-110028571D01*
X139638095Y-110123809D01*
M02*
